<svg width="365" height="121" viewBox="0 0 365 121" fill="none" xmlns="http://www.w3.org/2000/svg">
<rect width="365" height="121" rx="35" fill="white"/>
<path d="M47.8966 84.6938V76.0538H58.8406C60.4619 76.0538 61.9553 75.7125 63.3206 75.0298C64.7286 74.3472 65.8593 73.1312 66.7126 71.3818C67.5659 69.5898 67.9926 67.0298 67.9926 63.7018C67.9926 61.3125 67.7579 59.3072 67.2886 57.6858C66.8193 56.0645 66.1366 54.7845 65.2406 53.8458C64.3873 52.8645 63.3206 52.1605 62.0406 51.7338C60.8033 51.3072 59.3739 51.0938 57.7526 51.0938H47.8966V42.4538H57.3046C62.2966 42.4538 66.3713 43.2858 69.5286 44.9498C72.6859 46.6138 75.0113 49.0032 76.5046 52.1178C77.9979 55.1898 78.7446 58.8805 78.7446 63.1898C78.7446 66.5178 78.3606 69.3978 77.5926 71.8298C76.8673 74.2618 75.8433 76.3098 74.5206 77.9738C73.1979 79.6378 71.7046 80.9605 70.0406 81.9418C68.3766 82.9232 66.6059 83.6272 64.7286 84.0538C62.8513 84.4805 60.9953 84.6938 59.1606 84.6938H47.8966ZM43.1606 84.6938V42.4538H53.5286V84.6938H43.1606ZM98.3986 85.5898C95.1559 85.5898 92.2759 84.9498 89.7586 83.6698C87.2413 82.3472 85.2786 80.3845 83.8706 77.7818C82.4626 75.1365 81.7586 71.8298 81.7586 67.8618C81.7586 63.7232 82.4839 60.3525 83.9346 57.7498C85.4279 55.1045 87.4333 53.1632 89.9506 51.9258C92.5106 50.6458 95.3906 50.0058 98.5906 50.0058C101.919 50.0058 104.82 50.6672 107.295 51.9898C109.812 53.2698 111.753 55.2325 113.119 57.8778C114.527 60.4805 115.231 63.7872 115.231 67.7978C115.231 71.9365 114.484 75.3285 112.991 77.9738C111.54 80.5765 109.535 82.4965 106.975 83.7338C104.457 84.9712 101.599 85.5898 98.3986 85.5898ZM98.6546 77.9738C99.9773 77.9738 101.087 77.6112 101.983 76.8858C102.879 76.1178 103.561 75.0085 104.031 73.5578C104.5 72.1072 104.735 70.3792 104.735 68.3738C104.735 66.1552 104.479 64.2992 103.967 62.8058C103.455 61.2698 102.708 60.0965 101.727 59.2858C100.788 58.4752 99.6359 58.0698 98.2706 58.0698C96.9906 58.0698 95.9026 58.4538 95.0066 59.2218C94.1106 59.9472 93.4279 61.0352 92.9586 62.4858C92.4893 63.9365 92.2546 65.6858 92.2546 67.7338C92.2546 70.9765 92.8093 73.4938 93.9186 75.2858C95.0706 77.0778 96.6493 77.9738 98.6546 77.9738ZM123.8 84.6938L115.8 50.9018H126.808L130.712 75.9898H131.032L135.384 50.9018H146.84L151.064 75.9898H151.384L155.608 50.9018H165.912L158.04 84.6938H144.536L141.08 61.9098H140.76L137.176 84.6938H123.8ZM168.717 84.6938V65.5578V50.9018H177.485V64.6618H177.997C178.253 61.3338 178.808 58.6032 179.661 56.4698C180.514 54.2938 181.73 52.6725 183.309 51.6058C184.888 50.5392 186.893 50.0058 189.325 50.0058C192.994 50.0058 195.746 51.2218 197.581 53.6538C199.458 56.0858 200.397 59.7125 200.397 64.5338V84.6938H190.029V65.8778C190.029 63.5738 189.666 61.8458 188.941 60.6938C188.258 59.5418 187.149 58.9658 185.613 58.9658C184.333 58.9658 183.202 59.4138 182.221 60.3098C181.24 61.2058 180.472 62.6565 179.917 64.6618C179.362 66.6672 179.085 69.3552 179.085 72.7258V84.6938H168.717ZM204.655 84.6938V39.8938H215.023V84.6938H204.655ZM235.399 85.5898C232.156 85.5898 229.276 84.9498 226.759 83.6698C224.241 82.3472 222.279 80.3845 220.871 77.7818C219.463 75.1365 218.759 71.8298 218.759 67.8618C218.759 63.7232 219.484 60.3525 220.935 57.7498C222.428 55.1045 224.433 53.1632 226.951 51.9258C229.511 50.6458 232.391 50.0058 235.591 50.0058C238.919 50.0058 241.82 50.6672 244.295 51.9898C246.812 53.2698 248.753 55.2325 250.119 57.8778C251.527 60.4805 252.231 63.7872 252.231 67.7978C252.231 71.9365 251.484 75.3285 249.991 77.9738C248.54 80.5765 246.535 82.4965 243.975 83.7338C241.457 84.9712 238.599 85.5898 235.399 85.5898ZM235.655 77.9738C236.977 77.9738 238.087 77.6112 238.983 76.8858C239.879 76.1178 240.561 75.0085 241.031 73.5578C241.5 72.1072 241.735 70.3792 241.735 68.3738C241.735 66.1552 241.479 64.2992 240.967 62.8058C240.455 61.2698 239.708 60.0965 238.727 59.2858C237.788 58.4752 236.636 58.0698 235.271 58.0698C233.991 58.0698 232.903 58.4538 232.007 59.2218C231.111 59.9472 230.428 61.0352 229.959 62.4858C229.489 63.9365 229.255 65.6858 229.255 67.7338C229.255 70.9765 229.809 73.4938 230.919 75.2858C232.071 77.0778 233.649 77.9738 235.655 77.9738ZM264.551 85.5898C262.844 85.5898 261.223 85.2912 259.687 84.6938C258.151 84.0965 256.892 83.1365 255.911 81.8138C254.929 80.4485 254.439 78.6352 254.439 76.3738C254.439 74.2832 254.844 72.5978 255.655 71.3178C256.465 69.9952 257.553 68.9498 258.919 68.1818C260.284 67.3712 261.777 66.7738 263.399 66.3898C265.02 65.9632 266.62 65.6005 268.199 65.3018C270.417 64.8752 272.081 64.5338 273.191 64.2778C274.3 64.0218 275.047 63.7232 275.431 63.3818C275.857 63.0405 276.071 62.5712 276.071 61.9738C276.071 60.7365 275.601 59.7978 274.663 59.1578C273.767 58.5178 272.572 58.1978 271.079 58.1978C270.14 58.1978 269.201 58.3685 268.263 58.7098C267.324 59.0512 266.556 59.6698 265.959 60.5658C265.361 61.4192 265.084 62.6565 265.127 64.2778L255.911 63.6378C255.825 60.9498 256.231 58.7312 257.127 56.9818C258.023 55.1898 259.239 53.8032 260.775 52.8218C262.353 51.7978 264.06 51.0725 265.895 50.6458C267.772 50.2192 269.628 50.0058 271.463 50.0058C274.833 50.0058 277.607 50.6458 279.783 51.9258C281.959 53.1632 283.559 54.9765 284.583 57.3658C285.649 59.7125 286.183 62.5712 286.183 65.9418V71.9578C286.183 73.3658 286.183 74.7952 286.183 76.2458C286.183 77.6538 286.183 79.0618 286.183 80.4698C286.183 81.8778 286.183 83.2858 286.183 84.6938H277.223C277.223 83.1578 277.223 81.6005 277.223 80.0218C277.223 78.4432 277.223 76.7792 277.223 75.0298H276.839C276.668 76.9498 276.028 78.7205 274.919 80.3418C273.852 81.9205 272.423 83.2005 270.631 84.1818C268.881 85.1205 266.855 85.5898 264.551 85.5898ZM268.839 78.0378C269.564 78.0378 270.332 77.9098 271.143 77.6538C271.996 77.3552 272.785 76.8858 273.511 76.2458C274.279 75.6058 274.897 74.7312 275.367 73.6218C275.836 72.4698 276.071 71.0618 276.071 69.3978V67.8618L277.799 67.6698C277.457 68.2245 276.881 68.6725 276.071 69.0138C275.303 69.3552 274.428 69.6325 273.447 69.8458C272.465 70.0165 271.463 70.2085 270.439 70.4218C269.457 70.5925 268.54 70.8485 267.687 71.1898C266.833 71.4885 266.129 71.9152 265.575 72.4698C265.063 72.9818 264.807 73.7072 264.807 74.6458C264.807 75.7552 265.191 76.6085 265.959 77.2058C266.769 77.7605 267.729 78.0378 268.839 78.0378ZM302.498 85.5898C300.066 85.5898 297.868 84.9285 295.906 83.6058C293.986 82.2832 292.45 80.2778 291.298 77.5898C290.188 74.9018 289.634 71.5098 289.634 67.4138C289.634 63.5312 290.146 60.3098 291.17 57.7498C292.194 55.1472 293.644 53.2058 295.522 51.9258C297.399 50.6458 299.596 50.0058 302.114 50.0058C304.076 50.0058 305.804 50.4112 307.298 51.2218C308.834 52.0325 310.092 53.3125 311.074 55.0618C312.055 56.8112 312.738 59.0938 313.122 61.9098H313.698C313.484 60.4592 313.271 59.0298 313.058 57.6218C312.844 56.2138 312.674 54.8485 312.546 53.5258C312.46 52.2032 312.418 50.9658 312.418 49.8138V39.8938H322.786V72.7898V84.6938H313.762V74.2618H313.314C312.844 76.7365 312.119 78.8272 311.138 80.5338C310.199 82.1978 309.004 83.4565 307.554 84.3098C306.146 85.1632 304.46 85.5898 302.498 85.5898ZM306.146 77.3338C306.956 77.3338 307.746 77.1632 308.514 76.8218C309.282 76.4378 309.964 75.8618 310.562 75.0938C311.159 74.3258 311.628 73.3658 311.97 72.2138C312.354 71.0618 312.546 69.6965 312.546 68.1178V67.6698C312.546 66.3898 312.418 65.2592 312.162 64.2778C311.906 63.2538 311.564 62.4005 311.138 61.7178C310.711 60.9925 310.22 60.4165 309.666 59.9898C309.111 59.5205 308.514 59.1792 307.874 58.9658C307.276 58.7525 306.679 58.6458 306.082 58.6458C304.759 58.6458 303.65 59.0938 302.754 59.9898C301.858 60.8858 301.196 62.0592 300.77 63.5098C300.343 64.9178 300.13 66.4538 300.13 68.1178C300.13 69.7818 300.364 71.3178 300.834 72.7258C301.303 74.1338 301.986 75.2645 302.882 76.1178C303.778 76.9285 304.866 77.3338 306.146 77.3338Z" fill="black"/>
</svg>
