<svg width="1440" height="606" viewBox="0 0 1440 606" fill="none" xmlns="http://www.w3.org/2000/svg">
<rect width="1440" height="606" fill="#2A4255"/>
<mask id="mask0_39_101" style="mask-type:alpha" maskUnits="userSpaceOnUse" x="0" y="0" width="1440" height="606">
<rect width="1440" height="606" fill="#304B61"/>
</mask>
<g mask="url(#mask0_39_101)">
<path d="M251.728 385.736C251.728 357.889 258.184 333.929 271.096 313.854C284.008 294.102 301.875 278.884 324.697 268.199C347.819 257.837 374.394 252.657 404.422 252.657C426.643 252.657 447.212 255.571 466.13 261.399C485.348 267.551 502.014 276.941 516.127 289.569C530.541 302.197 541.651 318.225 549.459 337.652C557.566 357.08 561.62 380.231 561.62 407.106C561.62 429.771 558.767 449.199 553.062 465.389C547.357 481.902 539.399 495.339 529.19 505.701C518.98 516.062 507.119 523.348 493.606 527.557C480.394 531.766 466.13 533.061 450.816 531.442L442.708 458.103C456.221 458.751 467.181 456.97 475.589 452.761C484.297 448.551 490.753 442.237 494.957 433.819C499.161 425.724 501.263 415.848 501.263 404.192C501.263 390.269 497.81 378.126 490.903 367.765C483.997 357.404 473.637 349.309 459.824 343.481C446.011 337.976 428.745 335.224 408.025 335.224C392.711 335.224 378.898 336.843 366.586 340.081C354.575 343.319 344.365 348.176 335.957 354.651C327.85 361.127 321.544 369.06 317.04 378.45C312.836 388.164 310.734 399.173 310.734 411.477C310.734 423.781 312.685 434.305 316.589 443.047C320.793 451.789 326.348 458.427 333.255 462.96C340.462 467.817 348.719 470.245 358.028 470.245V419.734H409.377V540.185H353.524H258.034V486.273H338.209V481.902C319.592 480.283 303.827 475.426 290.915 467.331C278.003 459.56 268.243 448.713 261.637 434.79C255.031 421.191 251.728 404.839 251.728 385.736Z" fill="white" fill-opacity="0.1"/>
<path d="M408.026 335.223C428.098 335.223 444.929 337.807 458.52 342.973L459.825 343.481C473.206 349.127 483.346 356.9 490.246 366.801L490.903 367.765C497.809 378.126 501.263 390.269 501.263 404.192L501.257 405.279C501.13 416.464 499.03 425.977 494.957 433.818C490.753 442.237 484.298 448.551 475.59 452.761C467.182 456.97 456.221 458.75 442.708 458.103L450.816 531.442C466.131 533.061 480.394 531.766 493.607 527.557C506.697 523.479 518.237 516.514 528.227 506.662L529.189 505.701C539.399 495.34 547.357 481.902 553.062 465.388C558.768 449.199 561.621 429.771 561.621 407.106C561.621 380.231 557.566 357.079 549.458 337.651C541.651 318.224 530.541 302.197 516.128 289.569C502.015 276.941 485.348 267.551 466.13 261.399C447.212 255.571 426.643 252.656 404.422 252.656L401.617 252.672C372.736 252.985 347.097 258.161 324.697 268.199C301.876 278.884 284.009 294.102 271.097 313.854C258.588 333.301 252.138 356.395 251.747 383.136L251.728 385.735C251.728 404.839 255.032 421.19 261.638 434.789C268.038 448.277 277.396 458.879 289.713 466.593L290.916 467.331C303.828 475.426 319.593 480.283 338.21 481.902V486.273H258.034V540.185H409.376V419.733H358.028V470.245C348.719 470.245 340.461 467.817 333.254 462.96C326.348 458.427 320.793 451.789 316.589 443.047C312.686 434.304 310.733 423.781 310.733 411.477H315.237C315.237 423.217 317.099 432.966 320.627 440.89C324.497 448.908 329.503 454.811 335.597 458.811L335.619 458.825L335.643 458.841C340.91 462.391 346.844 464.52 353.523 465.172V414.876H413.881V545.042H253.53V481.417H310.243C302.404 478.922 295.2 475.636 288.652 471.53C275.024 463.311 264.657 451.793 257.648 437.042C250.632 422.598 247.224 405.435 247.224 385.735C247.224 357.491 253.682 332.864 266.767 312.072L267.394 311.085L267.405 311.07L267.415 311.055C280.435 291.139 298.255 275.732 320.715 264.788L322.903 263.743L322.935 263.728L322.969 263.713C346.736 253.063 373.916 247.799 404.422 247.799C427.008 247.799 447.999 250.761 467.367 256.728L467.391 256.736L467.413 256.743C487.143 263.059 504.352 272.73 518.968 285.799C533.975 298.947 545.513 315.62 553.591 335.721C562.002 355.903 566.125 379.745 566.125 407.106C566.125 430.188 563.222 450.232 557.273 467.113C551.551 483.664 543.579 497.407 533.281 508.201L532.277 509.238C521.552 520.122 509.069 527.791 494.882 532.215L493.583 532.618C480.124 536.7 465.706 537.897 450.376 536.276L446.772 535.895L437.607 452.996L442.908 453.251C456.006 453.878 466.172 452.119 473.692 448.354L473.719 448.342L473.747 448.329C481.376 444.641 486.938 439.266 490.639 432.204L490.991 431.516L491.009 431.48L491.028 431.445C494.77 424.239 496.759 415.227 496.759 404.192C496.759 391.188 493.551 380.059 487.246 370.6C480.961 361.171 471.391 353.577 458.183 348.004C445.04 342.783 428.371 340.08 408.026 340.08C393.01 340.08 379.571 341.668 367.678 344.793C356.129 347.906 346.474 352.529 338.615 358.573C331.077 364.599 325.251 371.934 321.079 380.603C317.22 389.562 315.237 399.821 315.237 411.477H310.733L310.74 410.328C310.868 398.486 312.967 387.86 317.039 378.45C321.544 369.06 327.85 361.126 335.958 354.65C344.366 348.175 354.575 343.318 366.586 340.08C378.898 336.842 392.712 335.223 408.026 335.223Z" fill="white" fill-opacity="0.5"/>
<path d="M563.572 629.714V226.592H568.076V629.714H563.572Z" fill="white" fill-opacity="0.5"/>
<path d="M222 248.448H595.852V253.305H222V248.448Z" fill="white" fill-opacity="0.5"/>
<path d="M246.773 202.307V605.429H245.272V202.307H246.773Z" fill="white" fill-opacity="0.5"/>
<path d="M595.853 547.956H222V546.337H595.853V547.956Z" fill="white" fill-opacity="0.5"/>
<path d="M595.853 454.865H222V451.627H595.853V454.865Z" fill="white" fill-opacity="0.5"/>
<path d="M595.853 418.438H222V416.819H595.853V418.438Z" fill="white" fill-opacity="0.5"/>
<path d="M354.875 631.333V228.21H356.377V631.333H354.875Z" fill="white" fill-opacity="0.5"/>
<path d="M410.428 631.333V228.21H411.929V631.333H410.428Z" fill="white" fill-opacity="0.5"/>
<path d="M457.994 629.388L405.929 171.645L407.419 171.448L459.484 629.19L457.994 629.388Z" fill="white" fill-opacity="0.5"/>
<path d="M730.123 33.3426C730.123 58.5183 724.286 80.1812 712.612 98.3311C700.938 116.188 684.785 129.947 664.152 139.608C643.247 148.975 619.221 153.659 592.072 153.659C571.982 153.659 553.386 151.025 536.282 145.755C518.907 140.193 503.839 131.704 491.08 120.287C478.048 108.87 468.003 94.3791 460.945 76.8147C453.615 59.2502 449.949 38.3192 449.949 14.0217C449.949 -6.47015 452.529 -24.0346 457.687 -38.6717C462.845 -53.6015 470.039 -65.7502 479.27 -75.1179C488.5 -84.4856 499.224 -91.0723 511.441 -94.8779C523.386 -98.6835 536.282 -99.8545 550.128 -98.3908L557.458 -32.085C545.241 -32.6705 535.332 -31.0604 527.73 -27.2547C519.857 -23.4491 514.02 -17.7407 510.219 -10.1294C506.419 -2.81089 504.518 6.11771 504.518 16.6564C504.518 29.2443 507.64 40.222 513.884 49.5898C520.129 58.9575 529.495 66.276 541.983 71.5453C554.472 76.5219 570.082 79.0102 588.815 79.0102C602.66 79.0102 615.149 77.5465 626.28 74.6191C637.139 71.6917 646.369 67.3006 653.971 61.4458C661.301 55.5909 667.002 48.4188 671.075 39.9293C674.876 31.1471 676.776 21.1939 676.776 10.0697C676.776 -1.05444 675.011 -10.5685 671.482 -18.4725C667.681 -26.3765 662.659 -32.3777 656.414 -36.4761C649.899 -40.8672 642.433 -43.0628 634.017 -43.0628V2.60482H587.593V-106.295H638.089H724.422V-57.5534H651.935V-53.6014C668.767 -52.1377 683.02 -47.7466 694.694 -40.4281C706.368 -33.4023 715.191 -23.5955 721.164 -11.0076C727.137 1.28748 730.123 16.0709 730.123 33.3426Z" fill="white" fill-opacity="0.1"/>
<path d="M588.814 79.0107C570.667 79.0107 555.45 76.6744 543.162 72.0038L541.983 71.545C529.885 66.4402 520.717 59.4123 514.479 50.4613L513.885 49.5894C507.641 40.2217 504.518 29.2439 504.518 16.656L504.523 15.6726C504.639 5.56092 506.538 -3.03977 510.22 -10.1295C514.02 -17.7406 519.857 -23.4495 527.73 -27.2551C535.331 -31.0608 545.241 -32.6705 557.458 -32.0851L550.127 -98.3906C536.282 -99.8542 523.386 -98.6842 511.441 -94.8786C499.606 -91.1919 489.173 -84.8941 480.14 -75.9876L479.271 -75.1186C470.04 -65.7508 462.845 -53.6015 457.687 -38.6717C452.529 -24.0347 449.949 -6.47022 449.949 14.0216C449.949 38.3191 453.615 59.2507 460.945 76.8152C468.004 94.379 478.048 108.869 491.079 120.286C503.839 131.703 518.907 140.193 536.283 145.755C553.386 151.024 571.983 153.66 592.072 153.66L594.608 153.645C620.719 153.362 643.9 148.682 664.151 139.607C684.784 129.947 700.938 116.188 712.612 98.3305C723.921 80.7478 729.753 59.8688 730.106 35.6928L730.123 33.3428C730.123 16.0712 727.136 1.28794 721.163 -11.0071C715.377 -23.2015 706.917 -32.7864 695.78 -39.7609L694.693 -40.4285C683.02 -47.7468 668.766 -52.1381 651.934 -53.6018V-57.5541H724.422V-106.295H587.593V2.60503H634.017V-43.0628C642.433 -43.0628 649.9 -40.8672 656.415 -36.4762C662.659 -32.3778 667.681 -26.3766 671.482 -18.4729C675.011 -10.569 676.776 -1.05469 676.776 10.0694H672.704C672.704 -0.544918 671.021 -9.35867 667.831 -16.5232C664.333 -23.7716 659.806 -29.1091 654.297 -32.7254L654.277 -32.7383L654.256 -32.7526C649.493 -35.962 644.128 -37.8867 638.09 -38.4759V6.99615H583.521V-110.686H728.494V-53.163H677.219C684.307 -50.9079 690.82 -47.9365 696.74 -44.225C709.061 -36.7941 718.434 -26.3806 724.77 -13.044C731.114 0.0149085 734.195 15.5319 734.195 33.3428C734.195 58.8782 728.356 81.1434 716.526 99.9414L715.959 100.833L715.95 100.848L715.94 100.861C704.169 118.867 688.058 132.796 667.752 142.69L665.774 143.635L665.745 143.65L665.714 143.662C644.226 153.292 619.653 158.051 592.072 158.051C571.652 158.051 552.675 155.372 535.164 149.978L535.143 149.97L535.123 149.965C517.284 144.254 501.726 135.51 488.511 123.695C474.943 111.808 464.512 96.7339 457.208 78.5605C449.604 60.3137 445.877 38.758 445.877 14.0216C445.877 -6.84717 448.501 -24.9686 453.88 -40.2312C459.053 -55.1944 466.261 -67.6198 475.571 -77.3784L476.479 -78.3161C486.176 -88.157 497.461 -95.0901 510.287 -99.0896L511.462 -99.4541C523.631 -103.145 536.665 -104.227 550.525 -102.762L553.783 -102.417L562.07 -27.4681L557.278 -27.6982C545.435 -28.2658 536.245 -26.6755 529.445 -23.2714L529.421 -23.26L529.396 -23.2485C522.498 -19.9143 517.469 -15.0548 514.124 -8.67007L513.805 -8.04828L513.79 -8.01541L513.772 -7.98396C510.389 -1.46861 508.59 6.67928 508.59 16.656C508.59 28.4123 511.49 38.4742 517.191 47.0265C522.873 55.5511 531.525 62.4167 543.467 67.4554C555.349 72.1759 570.42 74.6196 588.814 74.6196C602.39 74.6196 614.54 73.1839 625.292 70.3586C635.734 67.5436 644.463 63.3644 651.569 57.8999C658.383 52.4517 663.651 45.82 667.423 37.9827C670.912 29.8832 672.704 20.6077 672.704 10.0694H676.776L676.77 11.1085C676.655 21.8144 674.757 31.4216 671.075 39.9295C667.003 48.419 661.301 55.5915 653.971 61.4463C646.369 67.3008 637.139 71.6923 626.28 74.6196C615.149 77.547 602.66 79.0107 588.814 79.0107Z" fill="white" fill-opacity="0.5"/>
<path d="M448.185 -187.237V177.225H444.112V-187.237H448.185Z" fill="white" fill-opacity="0.5"/>
<path d="M757 157.465H419V153.074H757V157.465Z" fill="white" fill-opacity="0.5"/>
<path d="M734.602 199.181V-165.282H735.96V199.181H734.602Z" fill="white" fill-opacity="0.5"/>
<path d="M419 3.77555H757V5.23926H419V3.77555Z" fill="white" fill-opacity="0.5"/>
<path d="M636.867 -188.701V175.761H635.51V-188.701H636.867Z" fill="white" fill-opacity="0.5"/>
<path d="M586.643 -188.701V175.761H585.285V-188.701H586.643Z" fill="white" fill-opacity="0.5"/>
<path d="M543.638 -186.943L590.71 226.902L589.362 227.08L542.291 -186.765L543.638 -186.943Z" fill="white" fill-opacity="0.5"/>
<path d="M76.7645 -16.4677C102.589 -16.4677 124.81 -9.50612 143.427 4.41697C161.745 18.3401 175.858 37.6057 185.767 62.214C195.376 87.146 200.181 115.802 200.181 148.181C200.181 172.142 197.478 194.321 192.073 214.72C186.368 235.443 177.66 253.414 165.949 268.632C154.238 284.174 139.374 296.154 121.357 304.573C103.34 313.315 81.8694 317.687 56.9459 317.687C35.926 317.687 17.9091 314.61 2.8949 308.458C-12.4195 302.306 -24.8813 293.726 -34.4903 282.717C-44.0994 271.708 -50.8558 258.918 -54.7594 244.347C-58.6631 230.101 -59.8642 214.72 -58.3628 198.207L9.65128 189.465C9.05071 204.035 10.7023 215.854 14.606 224.92C18.5096 234.31 24.3651 241.271 32.1725 245.805C39.6796 250.338 48.8382 252.604 59.6484 252.604C72.5606 252.604 83.8212 248.881 93.4303 241.433C103.039 233.986 110.546 222.815 115.951 207.921C121.056 193.026 123.609 174.408 123.609 152.066C123.609 135.553 122.107 120.659 119.104 107.383C116.102 94.4314 111.597 83.4224 105.592 74.3562C99.5861 65.6138 92.2291 58.8142 83.5209 53.9573C74.5124 49.4242 64.3028 47.1576 52.8921 47.1576C41.4813 47.1576 31.7221 49.2623 23.6144 53.4716C15.5068 58.0047 9.35101 63.9948 5.14705 71.4421C0.642794 79.2131 -1.60932 88.1174 -1.60932 98.155H45.2348V153.524H-66.4705V93.2981V-9.66803H-16.4734V76.7846H-12.4195C-10.9181 56.7095 -6.41385 39.7104 1.09323 25.7873C8.30002 11.8642 18.3595 1.34091 31.2717 -5.78253C43.8835 -12.906 59.0478 -16.4677 76.7645 -16.4677Z" fill="white" fill-opacity="0.1"/>
<path d="M123.609 152.067C123.609 173.711 121.213 191.86 116.422 206.514L115.951 207.922C110.715 222.351 103.506 233.285 94.3244 240.725L93.43 241.433C83.821 248.88 72.5604 252.604 59.6482 252.604L58.6394 252.598C48.2672 252.461 39.4449 250.196 32.1726 245.804C24.3654 241.271 18.5094 234.31 14.6057 224.921C10.702 215.855 9.05076 204.035 9.65133 189.465L-58.3625 198.208C-59.8638 214.721 -58.6636 230.102 -54.76 244.348C-50.9783 258.463 -44.5183 270.907 -35.3823 281.679L-34.4909 282.716C-24.8818 293.725 -12.4195 302.307 2.89496 308.459C17.9091 314.611 35.9261 317.687 56.9459 317.687C81.8694 317.687 103.34 313.315 121.357 304.572C139.374 296.154 154.237 284.174 165.948 268.633C177.659 253.414 186.368 235.443 192.073 214.72C197.478 194.321 200.182 172.142 200.182 148.181L200.167 145.157C199.876 114.015 195.076 86.3677 185.767 62.2148C175.858 37.6066 161.744 18.3406 143.427 4.4175C125.391 -9.07031 103.974 -16.0257 79.1754 -16.4472L76.7649 -16.4678C59.0483 -16.4678 43.8841 -12.905 31.2723 -5.78165C18.7638 1.11908 8.93197 11.2098 1.7777 24.4917L1.09297 25.7881C-6.41391 39.7111 -10.9184 56.7107 -12.4198 76.7855H-16.4739V-9.6678H-66.4707V153.523H45.2352V98.1546H-1.60928C-1.60919 88.1173 0.642931 79.2125 5.14709 71.4417C9.351 63.9947 15.5068 58.0048 23.6142 53.4718C31.7218 49.2625 41.4812 47.1572 52.8918 47.1572V52.0141C42.0041 52.0141 32.9632 54.0214 25.6141 57.8259C18.179 61.9984 12.704 67.3968 8.99446 73.9681L8.98127 73.9919L8.9666 74.0171C5.67455 79.697 3.70026 86.0958 3.09584 93.2977H49.7394V158.38H-70.975V-14.5247H-11.9696V46.6291C-9.65642 38.1759 -6.60847 30.4082 -2.80133 23.3471C4.82093 8.65277 15.5027 -2.5267 29.1829 -10.0836C42.5783 -17.6494 58.4951 -21.3247 76.7649 -21.3247C102.958 -21.3246 125.797 -14.3602 145.079 -0.251247L145.994 0.42543L146.009 0.436497L146.022 0.447564C164.492 14.4867 178.78 33.7018 188.93 57.9208L189.899 60.2797L189.914 60.3145L189.927 60.3508C199.804 85.9787 204.686 115.287 204.686 148.181C204.686 172.536 201.938 195.17 196.405 216.054L196.397 216.08L196.391 216.103C190.534 237.379 181.565 255.935 169.445 271.695C157.252 287.877 141.789 300.319 123.147 309.029C104.431 318.099 82.3196 322.544 56.9459 322.544C35.5394 322.544 16.9512 319.414 1.29531 312.999C-14.0534 306.83 -26.7989 298.233 -36.809 287.129L-37.7708 286.046C-47.8652 274.481 -54.9769 261.021 -59.0795 245.724L-59.4534 244.323C-63.2391 229.81 -64.3491 214.263 -62.8462 197.734L-62.4929 193.847L14.3872 183.964L14.1512 189.68C13.569 203.804 15.2003 214.765 18.6921 222.875L18.7038 222.903L18.7155 222.933C22.1357 231.16 27.1204 237.158 33.6696 241.148L34.3074 241.528L34.3411 241.547L34.3734 241.567C41.0566 245.603 49.4144 247.747 59.6482 247.747C71.7074 247.747 82.0284 244.289 90.8011 237.49C99.5453 230.713 106.588 220.394 111.756 206.151C116.598 191.98 119.105 174.005 119.105 152.067C119.105 135.875 117.632 121.385 114.734 108.561C111.847 96.1069 107.56 85.6967 101.955 77.2219C96.3661 69.0942 89.5635 62.8116 81.5243 58.3129C73.2161 54.1516 63.7017 52.0141 52.8918 52.0141V47.1572L53.9578 47.1651C64.9394 47.3023 74.7941 49.5657 83.5213 53.9572C92.2294 58.8141 99.5867 65.6147 105.592 74.3571C111.598 83.4231 116.102 94.4317 119.105 107.383C122.108 120.658 123.609 135.554 123.609 152.067Z" fill="white" fill-opacity="0.5"/>
<path d="M-149.499 319.791H224.354V324.648H-149.499V319.791Z" fill="white" fill-opacity="0.5"/>
<path d="M204.085 -48.5234V354.599H199.58V-48.5234H204.085Z" fill="white" fill-opacity="0.5"/>
<path d="M12.6542 354.599V-48.523H15.657V354.599H12.6542Z" fill="white" fill-opacity="0.5"/>
<path d="M46.4361 354.599V-48.523H47.9375V354.599H46.4361Z" fill="white" fill-opacity="0.5"/>
<path d="M-151 94.7551H222.852V96.374H-151V94.7551Z" fill="white" fill-opacity="0.5"/>
<path d="M-151 154.656H222.852V156.275H-151V154.656Z" fill="white" fill-opacity="0.5"/>
<path d="M-149.196 205.947L275.311 149.806L275.493 151.413L-149.014 207.554L-149.196 205.947Z" fill="white" fill-opacity="0.5"/>
<path d="M37.4356 644.763L-39.4575 359.02L67.3439 325.603C83.6719 320.495 98.5534 317.56 111.988 316.798C125.691 315.953 137.813 317.324 148.355 320.91C159.087 324.123 167.971 329.636 175.007 337.449C182.311 345.177 187.632 355.247 190.972 367.658C194.079 379.204 194.6 390.306 192.535 400.966C190.737 411.542 185.663 421.266 177.313 430.137C169.152 438.636 157.37 446.078 141.966 452.462L143.014 456.359C170.438 449.343 191.803 450.012 207.11 458.366C222.685 466.636 233.153 480.728 238.512 500.644C243.017 517.384 242.73 532.495 237.651 545.975C232.572 559.456 223.047 571.511 209.075 582.141C195.294 592.399 177.027 601.087 154.275 608.206L37.4356 644.763ZM87.3344 568.129L136.319 552.802C149.97 548.531 159.844 542.625 165.941 535.085C171.96 527.256 173.649 518.435 171.008 508.622C168.057 497.654 161.599 490.912 151.636 488.397C141.862 485.509 128.544 486.703 111.68 491.98L70.3247 504.919L87.3344 568.129ZM57.5092 457.295L92.4405 446.366C107.698 441.592 118.604 435.207 125.158 427.21C131.713 419.214 133.553 409.876 130.679 399.197C127.961 389.095 122.328 382.721 113.78 380.076C105.155 377.141 93.6153 377.936 79.1609 382.458L40.6161 394.518L57.5092 457.295Z" fill="white" fill-opacity="0.1"/>
<path d="M238.512 500.643C233.152 480.728 222.685 466.635 207.11 458.365C191.803 450.012 170.438 449.343 143.015 456.359L141.966 452.462C156.889 446.277 168.413 439.1 176.538 430.931L177.313 430.137C185.664 421.266 190.737 411.542 192.534 400.966C194.535 390.64 194.109 379.897 191.256 368.739L190.972 367.658C187.633 355.247 182.31 345.177 175.007 337.448C167.971 329.636 159.087 324.124 148.356 320.91C138.143 317.436 126.448 316.041 113.269 316.726L111.989 316.798C98.5538 317.559 83.6719 320.495 67.3438 325.604L66.1788 321.274C82.7381 316.093 97.9431 313.08 111.769 312.296L111.768 312.297C125.817 311.432 138.429 312.821 149.531 316.583C160.842 319.98 170.355 325.842 177.936 334.231L178.669 335.022C186.183 343.265 191.592 353.782 194.987 366.401C198.254 378.541 198.84 390.357 196.645 401.778L196.647 401.779C194.669 413.417 189.1 423.945 180.248 433.349L180.232 433.364L180.218 433.379C175.011 438.802 168.502 443.74 160.75 448.228C180.112 445.537 196.293 447.41 208.998 454.343L208.997 454.343C225.724 463.239 236.884 478.418 242.527 499.387C247.24 516.901 247.023 533.076 241.524 547.672C236.073 562.14 225.938 574.828 211.486 585.824L211.468 585.838L211.451 585.852C197.181 596.473 178.459 605.333 155.44 612.535L34.5857 650.349L-44.6375 355.947L66.1788 321.274L67.3438 325.604L-39.4573 359.02L37.4358 644.763L154.275 608.206C176.316 601.309 194.148 592.94 207.771 583.097L209.076 582.14C222.611 571.843 231.973 560.208 237.162 547.235L237.651 545.976C242.73 532.495 243.016 517.384 238.512 500.643ZM166.993 509.878C164.444 500.407 159.113 494.914 150.683 492.786L150.607 492.767L150.53 492.745C141.865 490.185 129.444 491.116 112.845 496.309L75.5046 507.993L90.1841 562.543L135.154 548.473L136.319 552.802L87.3341 568.129L70.3245 504.919L111.68 491.98C128.544 486.704 141.863 485.509 151.636 488.397C161.6 490.912 168.057 497.654 171.008 508.622L171.243 509.538C173.54 518.985 171.772 527.5 165.941 535.084C159.844 542.625 149.97 548.531 136.319 552.802L135.154 548.473C148.391 544.331 157.396 538.77 162.759 532.158C167.858 525.499 169.244 518.244 166.993 509.878ZM126.664 400.453C124.3 391.667 119.641 386.579 112.627 384.409L112.575 384.393L112.523 384.374C105.051 381.832 94.4615 382.365 80.3268 386.788L45.7959 397.592L60.359 451.71L91.276 442.036L92.4411 446.366L57.509 457.296L40.6158 394.519L79.1617 382.458C93.6158 377.936 105.155 377.141 113.781 380.075C122.328 382.72 127.961 389.095 130.679 399.197L130.935 400.194C133.433 410.459 131.508 419.464 125.158 427.21L124.531 427.955C117.918 435.604 107.221 441.741 92.4411 446.366L91.276 442.036C106.191 437.37 116.225 431.303 122.027 424.225C127.585 417.444 129.159 409.724 126.664 400.453Z" fill="white" fill-opacity="0.5"/>
<path d="M-45.4559 342.121L51.243 701.464L47.2279 702.72L-49.4709 343.377L-45.4559 342.121Z" fill="white" fill-opacity="0.5"/>
<path d="M264.545 264.684L-68.7073 368.954L-69.8724 364.625L263.38 260.355L264.545 264.684Z" fill="white" fill-opacity="0.5"/>
<path d="M302.604 406.113L-30.649 510.382L-31.814 506.053L301.438 401.783L302.604 406.113Z" fill="white" fill-opacity="0.5"/>
<path d="M343.38 557.643L10.1276 661.913L8.96258 657.583L342.215 553.313L343.38 557.643Z" fill="white" fill-opacity="0.5"/>
<path d="M-6.96127 598.414L284.805 507.125L285.581 510.012L-6.18457 601.301L-6.96127 598.414Z" fill="white" fill-opacity="0.5"/>
<path d="M-7.34945 596.972L284.416 505.683L285.193 508.569L-6.57275 599.858L-7.34945 596.972Z" fill="white" fill-opacity="0.5"/>
<path d="M-24.2413 534.194L267.525 442.905L268.301 445.792L-23.4646 537.081L-24.2413 534.194Z" fill="white" fill-opacity="0.5"/>
<path d="M-37.0567 486.57L254.709 395.281L255.486 398.167L-36.28 489.457L-37.0567 486.57Z" fill="white" fill-opacity="0.5"/>
<path d="M-54.1441 423.072L237.622 331.783L238.398 334.669L-53.3674 425.958L-54.1441 423.072Z" fill="white" fill-opacity="0.5"/>
<path d="M261.952 613.631L165.253 254.288L166.591 253.869L263.29 613.212L261.952 613.631Z" fill="white" fill-opacity="0.5"/>
<path d="M272.659 610.282L175.96 250.938L177.298 250.519L273.997 609.863L272.659 610.282Z" fill="white" fill-opacity="0.5"/>
<path d="M244.301 13.6772H484.444V118.04C484.444 133.995 483.11 148.119 480.442 160.413C477.774 172.968 473.771 183.561 468.435 192.192C463.341 201.085 456.913 207.755 449.151 212.202C441.388 216.91 432.292 219.264 421.861 219.264C412.159 219.264 403.426 217.04 395.664 212.594C387.902 208.409 381.595 201.478 376.744 191.8C372.135 182.384 369.224 169.96 368.011 154.528H364.736C363.524 180.945 357.823 200.039 347.635 211.809C337.447 223.841 323.985 229.857 307.248 229.857C293.179 229.857 281.535 225.934 272.318 218.087C263.1 210.24 256.065 198.731 251.214 183.561C246.605 168.652 244.301 150.081 244.301 127.848V13.6772ZM291.602 77.2364V125.102C291.602 138.442 293.785 148.773 298.151 156.097C302.76 163.421 309.188 167.082 317.435 167.082C326.653 167.082 333.445 162.897 337.811 154.528C342.42 146.419 344.724 134.126 344.724 117.647V77.2364H291.602ZM384.748 77.2364V111.37C384.748 126.279 387.053 137.657 391.662 145.504C396.27 153.35 403.062 157.274 412.037 157.274C420.527 157.274 426.834 153.743 430.958 146.681C435.324 139.619 437.507 129.025 437.507 114.901V77.2364H384.748Z" fill="white" fill-opacity="0.1"/>
<path d="M307.248 229.857C323.985 229.857 337.448 223.841 347.636 211.809C357.823 200.039 363.523 180.945 364.736 154.528H368.011C369.186 169.478 371.954 181.605 376.316 190.909L376.744 191.8C381.595 201.478 387.902 208.408 395.664 212.593C403.184 216.901 411.614 219.123 420.955 219.258L421.862 219.264C432.292 219.264 441.389 216.909 449.151 212.201C456.913 207.755 463.341 201.085 468.435 192.192C473.604 183.831 477.522 173.628 480.188 161.584L480.442 160.413C483.111 148.12 484.444 133.995 484.444 118.04H488.083C488.083 134.221 486.731 148.656 483.985 161.307V161.306C481.248 174.177 477.112 185.208 471.503 194.301C466.127 203.671 459.276 210.824 450.935 215.622L450.144 216.09C441.932 220.864 432.468 223.187 421.862 223.187C411.66 223.187 402.358 220.849 394.038 216.102L394.037 216.103C385.495 211.498 378.685 203.925 373.543 193.666L373.534 193.648L373.526 193.632C370.585 187.624 368.337 180.56 366.738 172.485C364.127 190.587 358.752 204.717 350.296 214.486V214.485C339.343 227.403 324.871 233.78 307.248 233.78C292.529 233.78 280.043 229.662 270.063 221.166C260.17 212.744 252.793 200.532 247.775 184.84L247.768 184.821L247.762 184.801C242.99 169.364 240.662 150.342 240.662 127.848V9.75391H488.083V118.04H484.444V13.6773H244.301V127.848C244.301 149.386 246.464 167.488 250.789 182.153L251.214 183.561C255.914 198.257 262.662 209.517 271.46 217.341L272.317 218.086C281.535 225.933 293.179 229.857 307.248 229.857ZM317.435 163.159C325.395 163.159 330.946 159.686 334.64 152.604L334.673 152.541L334.709 152.477C338.795 145.288 341.086 133.867 341.086 117.648V81.1594H295.241V125.102H291.602V77.236H344.724V117.648C344.724 134.126 342.42 146.419 337.811 154.528C333.445 162.897 326.653 167.082 317.435 167.082L316.668 167.072C308.789 166.85 302.617 163.192 298.152 156.097C293.786 148.774 291.602 138.442 291.602 125.102H295.241C295.241 138.037 297.367 147.502 301.192 153.939C305.117 160.149 310.404 163.159 317.435 163.159ZM412.037 153.35C419.422 153.35 424.495 150.386 427.879 144.59L427.904 144.547L427.931 144.505C431.713 138.387 433.869 128.714 433.869 114.902V81.1594H388.387V111.37H384.748V77.236H437.507V114.902C437.507 129.026 435.325 139.619 430.958 146.681C426.835 153.743 420.527 157.274 412.037 157.274L411.202 157.262C402.64 157.025 396.127 153.105 391.662 145.503L391.237 144.758C386.911 136.942 384.748 125.813 384.748 111.37H388.387C388.387 125.944 390.656 136.46 394.735 143.405C398.644 150.059 404.246 153.35 412.037 153.35Z" fill="white" fill-opacity="0.6"/>
<path d="M498.999 12.3692H197V8.4458H498.999V12.3692Z" fill="white" fill-opacity="0.6"/>
<path d="M483.838 310.548V-15.0948H487.477V310.548H483.838Z" fill="white" fill-opacity="0.6"/>
<path d="M364.979 310.548V-15.0948H368.618V310.548H364.979Z" fill="white" fill-opacity="0.6"/>
<path d="M237.63 310.548V-15.0948H241.269V310.548H237.63Z" fill="white" fill-opacity="0.6"/>
<path d="M290.996 -15.0962L290.996 270.007H288.57L288.57 -15.0962H290.996Z" fill="white" fill-opacity="0.6"/>
<path d="M292.208 -15.0962L292.208 270.007H289.783L289.783 -15.0962H292.208Z" fill="white" fill-opacity="0.6"/>
<path d="M344.967 -15.0947L344.967 270.009H342.542L342.542 -15.0947H344.967Z" fill="white" fill-opacity="0.6"/>
<path d="M384.991 -15.0947L384.991 270.009H382.565L382.565 -15.0947H384.991Z" fill="white" fill-opacity="0.6"/>
<path d="M438.356 -15.0947L438.356 270.009H435.931L435.931 -15.0947H438.356Z" fill="white" fill-opacity="0.6"/>
<path d="M213.98 223.579H515.979V224.887H213.98V223.579Z" fill="white" fill-opacity="0.6"/>
<path d="M213.98 234.042H515.979V235.35H213.98V234.042Z" fill="white" fill-opacity="0.6"/>
<path d="M873.65 313.736L873.34 689.292L732.97 689.157C711.51 689.137 692.514 687.032 675.983 682.843C659.099 678.654 644.856 672.381 633.254 664.025C621.299 656.047 612.336 645.985 606.365 633.841C600.043 621.695 596.888 607.467 596.902 591.155C596.914 575.981 599.916 562.327 605.907 550.194C611.545 538.06 620.876 528.206 633.9 520.631C646.57 513.436 663.285 508.899 684.043 507.023L684.047 501.901C648.516 499.971 622.842 491.031 607.024 475.083C590.854 459.135 582.78 438.074 582.801 411.899C582.819 389.896 588.112 371.693 598.678 357.288C609.244 342.882 624.732 331.896 645.143 324.329C665.202 317.14 690.183 313.56 720.087 313.589L873.65 313.736ZM788.1 387.627L723.72 387.566C705.778 387.548 691.878 390.949 682.022 397.768C672.166 404.966 667.232 415.014 667.222 427.912C667.21 442.327 672.83 452.955 684.082 459.794C694.982 467.012 711.514 470.631 733.678 470.653L788.032 470.705L788.1 387.627ZM787.98 533.297L742.069 533.253C722.016 533.234 706.71 536.823 696.15 544.021C685.59 551.218 680.304 561.835 680.292 575.871C680.281 589.148 685.023 599.016 694.516 605.474C704.009 612.311 718.255 615.739 737.252 615.757L787.912 615.806L787.98 533.297Z" fill="white" fill-opacity="0.1"/>
<path d="M582.801 411.899C582.78 438.074 590.854 459.136 607.023 475.084C622.842 491.032 648.516 499.97 684.047 501.901L684.042 507.023C663.933 508.841 647.618 513.154 635.098 519.964L633.899 520.632C620.876 528.206 611.546 538.06 605.907 550.193C600.103 561.947 597.104 575.129 596.911 589.737L596.901 591.155C596.888 607.467 600.043 621.696 606.365 633.841C612.336 645.986 621.299 656.047 633.253 664.024C644.493 672.12 658.211 678.26 674.407 682.444L675.982 682.844C692.513 687.032 711.51 689.137 732.97 689.157L732.965 694.847C711.201 694.826 691.788 692.693 674.775 688.383L674.777 688.383C657.467 684.086 642.637 677.604 630.413 668.821C617.816 660.4 608.205 649.677 601.763 636.626L601.133 635.388C594.723 622.54 591.61 607.736 591.624 591.15C591.637 575.195 594.794 560.652 601.19 547.645L601.188 547.644C607.394 534.291 617.588 523.652 631.393 515.622L631.417 515.609L631.44 515.596C639.524 511.005 649.028 507.498 659.892 505.008C635.547 500.902 616.548 492.477 603.42 479.241L603.421 479.241C586.06 462.095 577.502 439.454 577.524 411.894C577.543 388.875 583.099 369.355 594.539 353.758C605.879 338.297 622.314 326.776 643.427 318.948L643.453 318.937L643.478 318.928C664.248 311.485 689.836 307.87 720.091 307.899L878.931 308.051L878.612 694.987L732.965 694.847L732.97 689.157L873.34 689.292L873.649 313.736L720.086 313.589C691.117 313.561 666.767 316.92 647.037 323.666L645.142 324.329C625.369 331.66 610.216 342.199 599.682 355.947L598.678 357.287C588.111 371.692 582.819 389.897 582.801 411.899ZM672.499 427.917C672.488 440.365 677.152 449.05 686.672 454.837L686.758 454.889L686.844 454.944C696.508 461.344 711.867 464.941 733.682 464.962L782.759 465.009L782.818 393.312L723.714 393.256L723.719 387.566L788.1 387.627L788.032 470.704L733.677 470.652C711.513 470.631 694.981 467.011 684.081 459.793C672.829 452.954 667.21 442.327 667.221 427.912L667.236 426.712C667.544 414.389 672.473 404.742 682.021 397.769C691.877 390.95 705.777 387.548 723.719 387.566L723.714 393.256C706.317 393.239 693.583 396.553 684.92 402.526C676.562 408.656 672.508 416.921 672.499 427.917ZM685.569 575.876C685.56 587.424 689.541 595.362 697.331 600.661L697.39 600.7L697.446 600.743C705.67 606.666 718.678 610.049 737.256 610.067L782.64 610.11L782.699 538.982L742.064 538.943L742.069 533.253L787.98 533.297L787.912 615.805L737.251 615.757C718.254 615.738 704.008 612.312 694.515 605.474C685.022 599.016 680.281 589.148 680.292 575.871L680.309 574.565C680.639 561.175 685.92 550.993 696.15 544.021L697.154 543.357C707.671 536.603 722.643 533.234 742.069 533.253L742.064 538.943C722.461 538.924 708.315 542.459 698.968 548.83C690.013 554.934 685.58 563.691 685.569 575.876Z" fill="white" fill-opacity="0.5"/>
<path d="M875.08 712.054L875.469 239.765L880.746 239.77L880.357 712.059L875.08 712.054Z" fill="white" fill-opacity="0.5"/>
<path d="M474.194 502.08L912.192 502.499L912.188 508.189L474.19 507.77L474.194 502.08Z" fill="white" fill-opacity="0.5"/>
<path d="M474.358 302.922L912.356 303.341L912.352 309.031L474.354 308.612L474.358 302.922Z" fill="white" fill-opacity="0.5"/>
<path d="M912.29 386.798L528.818 386.431L528.822 382.637L912.293 383.004L912.29 386.798Z" fill="white" fill-opacity="0.5"/>
<path d="M912.288 388.695L528.816 388.328L528.82 384.534L912.291 384.901L912.288 388.695Z" fill="white" fill-opacity="0.5"/>
<path d="M912.218 471.203L528.747 470.836L528.75 467.042L912.221 467.41L912.218 471.203Z" fill="white" fill-opacity="0.5"/>
<path d="M912.167 533.795L528.695 533.428L528.698 529.635L912.17 530.002L912.167 533.795Z" fill="white" fill-opacity="0.5"/>
<path d="M591.364 266.047L590.975 738.337L589.216 738.335L589.605 266.045L591.364 266.047Z" fill="white" fill-opacity="0.5"/>
<path d="M577.292 266.034L576.903 738.323L575.144 738.322L575.533 266.032L577.292 266.034Z" fill="white" fill-opacity="0.5"/>
</g>
</svg>
