<svg width="729" height="120" viewBox="0 0 729 120" fill="none" xmlns="http://www.w3.org/2000/svg">
<path d="M93.3242 37.56C92.2576 37.56 91.2442 37.3733 90.2842 37C89.3242 36.6267 88.5376 36.0267 87.9242 35.2C87.3109 34.3467 87.0042 33.2133 87.0042 31.8C87.0042 30.4933 87.2576 29.44 87.7642 28.64C88.2709 27.8133 88.9509 27.16 89.8042 26.68C90.6576 26.1733 91.5909 25.8 92.6042 25.56C93.6176 25.2933 94.6176 25.0667 95.6042 24.88C96.9909 24.6133 98.0309 24.4 98.7242 24.24C99.4176 24.08 99.8842 23.8933 100.124 23.68C100.391 23.4667 100.524 23.1733 100.524 22.8C100.524 22.0267 100.231 21.44 99.6442 21.04C99.0842 20.64 98.3376 20.44 97.4042 20.44C96.8176 20.44 96.2309 20.5467 95.6442 20.76C95.0576 20.9733 94.5776 21.36 94.2042 21.92C93.8309 22.4533 93.6576 23.2267 93.6842 24.24L87.9242 23.84C87.8709 22.16 88.1242 20.7733 88.6842 19.68C89.2442 18.56 90.0042 17.6933 90.9642 17.08C91.9509 16.44 93.0176 15.9867 94.1642 15.72C95.3376 15.4533 96.4976 15.32 97.6442 15.32C99.7509 15.32 101.484 15.72 102.844 16.52C104.204 17.2933 105.204 18.4267 105.844 19.92C106.511 21.3867 106.844 23.1733 106.844 25.28V29.04C106.844 29.92 106.844 30.8133 106.844 31.72C106.844 32.6 106.844 33.48 106.844 34.36C106.844 35.24 106.844 36.12 106.844 37H101.244C101.244 36.04 101.244 35.0667 101.244 34.08C101.244 33.0933 101.244 32.0533 101.244 30.96H101.004C100.898 32.16 100.498 33.2667 99.8042 34.28C99.1376 35.2667 98.2442 36.0667 97.1242 36.68C96.0309 37.2667 94.7642 37.56 93.3242 37.56ZM96.0042 32.84C96.4576 32.84 96.9376 32.76 97.4442 32.6C97.9776 32.4133 98.4709 32.12 98.9242 31.72C99.4042 31.32 99.7909 30.7733 100.084 30.08C100.378 29.36 100.524 28.48 100.524 27.44V26.48L101.604 26.36C101.391 26.7067 101.031 26.9867 100.524 27.2C100.044 27.4133 99.4976 27.5867 98.8842 27.72C98.2709 27.8267 97.6442 27.9467 97.0042 28.08C96.3909 28.1867 95.8176 28.3467 95.2842 28.56C94.7509 28.7467 94.3109 29.0133 93.9642 29.36C93.6442 29.68 93.4842 30.1333 93.4842 30.72C93.4842 31.4133 93.7242 31.9467 94.2042 32.32C94.7109 32.6667 95.3109 32.84 96.0042 32.84ZM122.163 37.56C120.963 37.56 119.91 37.2933 119.003 36.76C118.096 36.2267 117.336 35.44 116.723 34.4C116.136 33.3333 115.696 32.0267 115.403 30.48H115.123V37H109.483V29.56V9H115.963V15.2C115.963 15.92 115.923 16.6933 115.843 17.52C115.79 18.3467 115.696 19.2 115.563 20.08C115.456 20.96 115.323 21.8533 115.163 22.76H115.523C115.763 21 116.19 19.5733 116.803 18.48C117.416 17.3867 118.203 16.5867 119.163 16.08C120.123 15.5733 121.216 15.32 122.443 15.32C124.016 15.32 125.376 15.72 126.523 16.52C127.696 17.32 128.603 18.52 129.243 20.12C129.883 21.72 130.203 23.7333 130.203 26.16C130.203 28.7467 129.843 30.88 129.123 32.56C128.43 34.24 127.47 35.4933 126.243 36.32C125.043 37.1467 123.683 37.56 122.163 37.56ZM119.883 32.4C120.683 32.4 121.363 32.1467 121.923 31.64C122.483 31.1067 122.91 30.4133 123.203 29.56C123.496 28.68 123.643 27.72 123.643 26.68C123.643 25.64 123.51 24.6667 123.243 23.76C122.976 22.8533 122.563 22.12 122.003 21.56C121.443 21 120.736 20.72 119.883 20.72C119.51 20.72 119.123 20.7867 118.723 20.92C118.35 21.0533 117.99 21.2667 117.643 21.56C117.323 21.8267 117.03 22.1867 116.763 22.64C116.496 23.0667 116.283 23.6 116.123 24.24C115.963 24.8533 115.883 25.56 115.883 26.36V26.64C115.883 27.6267 115.99 28.48 116.203 29.2C116.443 29.92 116.75 30.52 117.123 31C117.496 31.48 117.923 31.84 118.403 32.08C118.883 32.2933 119.376 32.4 119.883 32.4ZM142.65 37.56C140.757 37.56 139.13 37.28 137.77 36.72C136.41 36.1333 135.303 35.3333 134.45 34.32C133.597 33.3067 132.97 32.1467 132.57 30.84C132.17 29.5333 131.97 28.1467 131.97 26.68C131.97 25.1867 132.17 23.7733 132.57 22.44C132.97 21.08 133.583 19.8667 134.41 18.8C135.263 17.7067 136.357 16.8533 137.69 16.24C139.05 15.6267 140.677 15.32 142.57 15.32C144.81 15.32 146.61 15.7467 147.97 16.6C149.357 17.4267 150.317 18.5067 150.85 19.84C151.41 21.1733 151.57 22.6133 151.33 24.16L145.73 24.6C145.783 23.64 145.677 22.8533 145.41 22.24C145.17 21.6 144.797 21.1333 144.29 20.84C143.783 20.52 143.17 20.36 142.45 20.36C141.81 20.36 141.237 20.48 140.73 20.72C140.25 20.96 139.837 21.3333 139.49 21.84C139.17 22.32 138.917 22.9333 138.73 23.68C138.57 24.4267 138.49 25.32 138.49 26.36C138.49 27.6933 138.637 28.84 138.93 29.8C139.25 30.76 139.717 31.4933 140.33 32C140.97 32.5067 141.77 32.76 142.73 32.76C143.717 32.76 144.463 32.52 144.97 32.04C145.477 31.56 145.81 30.96 145.97 30.24C146.13 29.4933 146.157 28.76 146.05 28.04L152.01 28.32C152.17 29.4933 152.117 30.64 151.85 31.76C151.583 32.8533 151.063 33.84 150.29 34.72C149.543 35.6 148.53 36.2933 147.25 36.8C145.997 37.3067 144.463 37.56 142.65 37.56ZM161.65 37.56C160.13 37.56 158.757 37.1467 157.53 36.32C156.33 35.4933 155.37 34.24 154.65 32.56C153.957 30.88 153.61 28.76 153.61 26.2C153.61 23.7733 153.93 21.76 154.57 20.16C155.21 18.5333 156.117 17.32 157.29 16.52C158.464 15.72 159.837 15.32 161.41 15.32C162.637 15.32 163.717 15.5733 164.65 16.08C165.61 16.5867 166.397 17.3867 167.01 18.48C167.624 19.5733 168.05 21 168.29 22.76H168.65C168.517 21.8533 168.384 20.96 168.25 20.08C168.117 19.2 168.01 18.3467 167.93 17.52C167.877 16.6933 167.85 15.92 167.85 15.2V9H174.33V29.56V37H168.69V30.48H168.41C168.117 32.0267 167.664 33.3333 167.05 34.4C166.464 35.44 165.717 36.2267 164.81 36.76C163.93 37.2933 162.877 37.56 161.65 37.56ZM163.93 32.4C164.437 32.4 164.93 32.2933 165.41 32.08C165.89 31.84 166.317 31.48 166.69 31C167.064 30.52 167.357 29.92 167.57 29.2C167.81 28.48 167.93 27.6267 167.93 26.64V26.36C167.93 25.56 167.85 24.8533 167.69 24.24C167.53 23.6 167.317 23.0667 167.05 22.64C166.784 22.1867 166.477 21.8267 166.13 21.56C165.784 21.2667 165.41 21.0533 165.01 20.92C164.637 20.7867 164.264 20.72 163.89 20.72C163.064 20.72 162.37 21 161.81 21.56C161.25 22.12 160.837 22.8533 160.57 23.76C160.304 24.64 160.17 25.6 160.17 26.64C160.17 27.68 160.317 28.64 160.61 29.52C160.904 30.4 161.33 31.1067 161.89 31.64C162.45 32.1467 163.13 32.4 163.93 32.4ZM187.257 37.56C185.257 37.56 183.577 37.28 182.217 36.72C180.884 36.1333 179.804 35.3467 178.977 34.36C178.151 33.3467 177.551 32.2 177.177 30.92C176.831 29.64 176.657 28.2933 176.657 26.88C176.657 25.36 176.844 23.9067 177.217 22.52C177.617 21.1333 178.217 19.9067 179.017 18.84C179.844 17.7467 180.897 16.8933 182.177 16.28C183.484 15.64 185.044 15.32 186.857 15.32C188.671 15.32 190.217 15.64 191.497 16.28C192.804 16.8933 193.844 17.76 194.617 18.88C195.391 20 195.884 21.2933 196.097 22.76C196.337 24.2267 196.311 25.8133 196.017 27.52L180.697 27.76V24.24L191.057 24.04L190.217 26.08C190.377 24.8533 190.351 23.8267 190.137 23C189.951 22.1467 189.591 21.5067 189.057 21.08C188.524 20.6267 187.791 20.4 186.857 20.4C185.871 20.4 185.084 20.6533 184.497 21.16C183.911 21.6667 183.497 22.3867 183.257 23.32C183.017 24.2267 182.897 25.3067 182.897 26.56C182.897 28.72 183.257 30.2933 183.977 31.28C184.697 32.2667 185.804 32.76 187.297 32.76C187.937 32.76 188.471 32.68 188.897 32.52C189.324 32.36 189.671 32.1333 189.937 31.84C190.204 31.52 190.391 31.1467 190.497 30.72C190.604 30.2667 190.644 29.76 190.617 29.2L196.537 29.52C196.617 30.4 196.524 31.3067 196.257 32.24C196.017 33.1733 195.551 34.04 194.857 34.84C194.164 35.64 193.191 36.2933 191.937 36.8C190.711 37.3067 189.151 37.56 187.257 37.56ZM200.622 37V24.08H197.702V19.44L204.142 19.88V19.56C202.515 19.3733 201.288 18.9867 200.462 18.4C199.635 17.8133 199.075 17.1467 198.782 16.4C198.515 15.6533 198.382 14.9733 198.382 14.36C198.382 13.16 198.702 12.12 199.342 11.24C200.008 10.3333 200.915 9.64 202.062 9.16C203.235 8.68 204.555 8.44 206.022 8.44C207.222 8.44 208.288 8.6 209.222 8.92C210.182 9.24 211.048 9.70666 211.822 10.32L211.302 16.24C210.582 15.7333 209.888 15.36 209.222 15.12C208.555 14.8533 207.875 14.72 207.182 14.72C206.382 14.72 205.715 14.8933 205.182 15.24C204.675 15.5867 204.422 16.1333 204.422 16.88C204.422 17.28 204.528 17.6533 204.742 18C204.955 18.3467 205.288 18.6267 205.742 18.84C206.222 19.0267 206.862 19.12 207.662 19.12H211.662V24.08H207.022V37H200.622ZM221.866 43.32C219.493 43.32 217.613 43.1333 216.226 42.76C214.84 42.3867 213.853 41.8667 213.266 41.2C212.68 40.56 212.386 39.8133 212.386 38.96C212.386 37.7867 212.853 36.8533 213.786 36.16C214.72 35.44 216.08 34.9467 217.866 34.68V34.48C216.506 34.48 215.44 34.2533 214.666 33.8C213.893 33.32 213.506 32.6667 213.506 31.84C213.506 31.0667 213.853 30.3733 214.546 29.76C215.266 29.1467 216.426 28.84 218.026 28.84V28.56C216.586 28.2133 215.44 27.5467 214.586 26.56C213.733 25.5733 213.306 24.2933 213.306 22.72C213.306 21.3333 213.653 20.1333 214.346 19.12C215.066 18.1067 216.106 17.32 217.466 16.76C218.826 16.1733 220.48 15.88 222.426 15.88H232.946V20.84L225.706 19.92V20.24C227.92 20.5333 229.413 21.04 230.186 21.76C230.986 22.4533 231.386 23.2933 231.386 24.28C231.386 25.2667 231.08 26.1467 230.466 26.92C229.88 27.6933 228.96 28.3067 227.706 28.76C226.453 29.1867 224.866 29.4 222.946 29.4C222.36 29.4 221.76 29.3733 221.146 29.32C220.56 29.2667 220.053 29.1867 219.626 29.08C219.173 29.2667 218.813 29.4667 218.546 29.68C218.306 29.8667 218.186 30.0667 218.186 30.28C218.186 30.4133 218.24 30.52 218.346 30.6C218.453 30.6533 218.6 30.6933 218.786 30.72C219 30.7467 219.24 30.76 219.506 30.76H225.906C226.466 30.76 227.16 30.8 227.986 30.88C228.84 30.9333 229.68 31.1333 230.506 31.48C231.36 31.8 232.066 32.3467 232.626 33.12C233.186 33.8933 233.466 34.9867 233.466 36.4C233.466 38 233.04 39.3067 232.186 40.32C231.36 41.3333 230.093 42.08 228.386 42.56C226.68 43.0667 224.506 43.32 221.866 43.32ZM221.866 37.64C223.653 37.64 224.973 37.5733 225.826 37.44C226.68 37.3333 227.24 37.1733 227.506 36.96C227.773 36.7467 227.906 36.5067 227.906 36.24C227.906 35.8667 227.8 35.5733 227.586 35.36C227.373 35.1467 227.106 35 226.786 34.92C226.466 34.8133 226.146 34.76 225.826 34.76C225.533 34.7333 225.293 34.72 225.106 34.72H219.706C218.853 35.0133 218.266 35.2933 217.946 35.56C217.653 35.8 217.506 36.08 217.506 36.4C217.506 36.7733 217.68 37.04 218.026 37.2C218.4 37.3867 218.906 37.5067 219.546 37.56C220.213 37.6133 220.986 37.64 221.866 37.64ZM222.546 25.88C223.4 25.88 224.053 25.6133 224.506 25.08C224.986 24.5467 225.226 23.8133 225.226 22.88C225.226 21.9467 224.986 21.2 224.506 20.64C224.026 20.0533 223.36 19.76 222.506 19.76C221.68 19.76 221.013 20.0533 220.506 20.64C220.026 21.2 219.786 21.9467 219.786 22.88C219.786 23.4933 219.893 24.0267 220.106 24.48C220.32 24.9333 220.626 25.28 221.026 25.52C221.453 25.76 221.96 25.88 222.546 25.88ZM235.46 37V25.84V9H241.94V14.28C241.94 14.84 241.9 15.5867 241.82 16.52C241.766 17.4267 241.673 18.4 241.54 19.44C241.433 20.48 241.313 21.48 241.18 22.44C241.073 23.3733 240.98 24.16 240.9 24.8H241.26C241.5 22.5867 241.913 20.7867 242.5 19.4C243.086 17.9867 243.886 16.96 244.9 16.32C245.913 15.6533 247.14 15.32 248.58 15.32C250.846 15.32 252.526 16.1333 253.62 17.76C254.713 19.36 255.26 21.7867 255.26 25.04V37H248.78V25.32C248.78 23.8267 248.58 22.7333 248.18 22.04C247.78 21.3467 247.126 21 246.22 21C245.42 21 244.7 21.3067 244.06 21.92C243.42 22.5067 242.9 23.4533 242.5 24.76C242.126 26.0667 241.94 27.76 241.94 29.84V37H235.46ZM257.92 37V15.88H264.4V37H257.92ZM261.12 14.36C259.894 14.36 258.947 14.1067 258.28 13.6C257.64 13.0667 257.32 12.3067 257.32 11.32C257.32 10.3067 257.64 9.54667 258.28 9.04C258.947 8.50666 259.894 8.24 261.12 8.24C262.374 8.24 263.32 8.50666 263.96 9.04C264.627 9.57333 264.96 10.3333 264.96 11.32C264.96 12.28 264.627 13.0267 263.96 13.56C263.32 14.0933 262.374 14.36 261.12 14.36ZM267.535 43.56C267.189 43.56 266.829 43.5333 266.455 43.48C266.109 43.4533 265.749 43.4133 265.375 43.36L264.855 37.88C265.895 37.9333 266.629 37.7733 267.055 37.4C267.482 37.0533 267.695 36.36 267.695 35.32V15.88H274.175V35.68C274.175 37.12 274.002 38.3333 273.655 39.32C273.335 40.3333 272.869 41.1467 272.255 41.76C271.642 42.4 270.935 42.8533 270.135 43.12C269.335 43.4133 268.469 43.56 267.535 43.56ZM270.895 14.36C269.669 14.36 268.722 14.1067 268.055 13.6C267.415 13.0667 267.095 12.3067 267.095 11.32C267.095 10.3067 267.415 9.54667 268.055 9.04C268.722 8.50666 269.669 8.24 270.895 8.24C272.149 8.24 273.095 8.50666 273.735 9.04C274.402 9.57333 274.735 10.3333 274.735 11.32C274.735 12.28 274.402 13.0267 273.735 13.56C273.095 14.0933 272.149 14.36 270.895 14.36ZM277.061 37V9H283.381V23.84C284.288 23.36 285.061 22.8133 285.701 22.2C286.368 21.5867 286.928 20.9333 287.381 20.24C287.834 19.52 288.194 18.8 288.461 18.08C288.754 17.3333 288.994 16.6 289.181 15.88H296.621C296.328 16.9467 295.901 17.9867 295.341 19C294.808 19.9867 294.141 20.92 293.341 21.8C292.541 22.6533 291.608 23.4267 290.541 24.12C289.501 24.8133 288.341 25.3867 287.061 25.84V26.16C288.714 25.8933 290.061 25.8667 291.101 26.08C292.168 26.2667 293.008 26.64 293.621 27.2C294.234 27.7333 294.701 28.4133 295.021 29.24C295.368 30.0667 295.634 30.9867 295.821 32L296.741 37H289.741L289.301 33.48C289.194 32.6267 289.048 31.8267 288.861 31.08C288.674 30.3333 288.314 29.7333 287.781 29.28C287.248 28.8 286.408 28.56 285.261 28.56H283.381V37H277.061ZM298.702 37V9H305.182V37H298.702ZM308.077 37V25.28V15.88H313.557V24.48H313.877C314.063 22.24 314.423 20.4533 314.957 19.12C315.517 17.7867 316.25 16.8267 317.157 16.24C318.09 15.6267 319.197 15.32 320.477 15.32C321.81 15.32 322.89 15.6533 323.717 16.32C324.543 16.96 325.157 17.96 325.557 19.32C325.957 20.6533 326.143 22.3733 326.117 24.48H326.437C326.623 22.2667 327.01 20.4933 327.597 19.16C328.183 17.8267 328.957 16.8533 329.917 16.24C330.877 15.6267 332.01 15.32 333.317 15.32C334.41 15.32 335.357 15.52 336.157 15.92C336.957 16.32 337.623 16.92 338.157 17.72C338.717 18.52 339.13 19.5333 339.397 20.76C339.663 21.96 339.797 23.3733 339.797 25V37H333.317V25.56C333.317 24.5467 333.223 23.7067 333.037 23.04C332.877 22.3467 332.623 21.84 332.277 21.52C331.93 21.1733 331.49 21 330.957 21C330.263 21 329.623 21.32 329.037 21.96C328.45 22.5733 327.97 23.5067 327.597 24.76C327.25 26.0133 327.077 27.6 327.077 29.52V37H320.757V25.4C320.757 24.3867 320.663 23.56 320.477 22.92C320.317 22.28 320.05 21.8 319.677 21.48C319.33 21.16 318.89 21 318.357 21C317.69 21 317.063 21.28 316.477 21.84C315.917 22.3733 315.45 23.2667 315.077 24.52C314.73 25.7733 314.557 27.44 314.557 29.52V37H308.077ZM342.491 37V25.04V15.88H347.971V24.48H348.291C348.451 22.4 348.797 20.6933 349.331 19.36C349.864 18 350.624 16.9867 351.611 16.32C352.597 15.6533 353.851 15.32 355.371 15.32C357.664 15.32 359.384 16.08 360.531 17.6C361.704 19.12 362.291 21.3867 362.291 24.4V37H355.811V25.24C355.811 23.8 355.584 22.72 355.131 22C354.704 21.28 354.011 20.92 353.051 20.92C352.251 20.92 351.544 21.2 350.931 21.76C350.317 22.32 349.837 23.2267 349.491 24.48C349.144 25.7333 348.971 27.4133 348.971 29.52V37H342.491ZM374.792 37.56C372.765 37.56 370.965 37.16 369.392 36.36C367.818 35.5333 366.592 34.3067 365.712 32.68C364.832 31.0267 364.392 28.96 364.392 26.48C364.392 23.8933 364.845 21.7867 365.752 20.16C366.685 18.5067 367.938 17.2933 369.512 16.52C371.112 15.72 372.912 15.32 374.912 15.32C376.992 15.32 378.805 15.7333 380.352 16.56C381.925 17.36 383.138 18.5867 383.992 20.24C384.872 21.8667 385.312 23.9333 385.312 26.44C385.312 29.0267 384.845 31.1467 383.912 32.8C383.005 34.4267 381.752 35.6267 380.152 36.4C378.578 37.1733 376.792 37.56 374.792 37.56ZM374.952 32.8C375.778 32.8 376.472 32.5733 377.032 32.12C377.592 31.64 378.018 30.9467 378.312 30.04C378.605 29.1333 378.752 28.0533 378.752 26.8C378.752 25.4133 378.592 24.2533 378.272 23.32C377.952 22.36 377.485 21.6267 376.872 21.12C376.285 20.6133 375.565 20.36 374.712 20.36C373.912 20.36 373.232 20.6 372.672 21.08C372.112 21.5333 371.685 22.2133 371.392 23.12C371.098 24.0267 370.952 25.12 370.952 26.4C370.952 28.4267 371.298 30 371.992 31.12C372.712 32.24 373.698 32.8 374.952 32.8ZM387.647 42.92V23.4V15.88H393.327V22.4H393.607C393.9 20.8267 394.34 19.52 394.927 18.48C395.514 17.4133 396.26 16.6267 397.167 16.12C398.1 15.5867 399.22 15.32 400.527 15.32C402.18 15.32 403.58 15.7467 404.727 16.6C405.9 17.4267 406.78 18.6667 407.367 20.32C407.98 21.9467 408.287 23.96 408.287 26.36C408.287 28.9467 407.94 31.0667 407.247 32.72C406.58 34.3733 405.66 35.6 404.487 36.4C403.314 37.1733 401.98 37.56 400.487 37.56C399.287 37.56 398.22 37.3067 397.287 36.8C396.38 36.2933 395.62 35.52 395.007 34.48C394.42 33.4133 394.007 32.08 393.767 30.48H393.407C393.54 31.2533 393.66 32.0667 393.767 32.92C393.874 33.7467 393.954 34.5733 394.007 35.4C394.087 36.2 394.127 36.9733 394.127 37.72V42.92H387.647ZM398.047 32.24C398.9 32.24 399.594 31.9733 400.127 31.44C400.687 30.9067 401.087 30.2133 401.327 29.36C401.594 28.48 401.727 27.56 401.727 26.6C401.727 25.5333 401.58 24.5733 401.287 23.72C401.02 22.84 400.607 22.1467 400.047 21.64C399.514 21.1067 398.847 20.84 398.047 20.84C397.54 20.84 397.047 20.96 396.567 21.2C396.087 21.4133 395.66 21.76 395.287 22.24C394.914 22.6933 394.607 23.28 394.367 24C394.154 24.72 394.047 25.5867 394.047 26.6V26.84C394.047 27.64 394.127 28.3333 394.287 28.92C394.447 29.5067 394.66 30.0133 394.927 30.44C395.194 30.8667 395.5 31.2133 395.847 31.48C396.194 31.7467 396.554 31.9467 396.927 32.08C397.3 32.1867 397.674 32.24 398.047 32.24ZM424.294 42.92V37.72C424.294 36.9733 424.321 36.2 424.374 35.4C424.454 34.5733 424.547 33.7467 424.654 32.92C424.787 32.0667 424.907 31.2533 425.014 30.48H424.654C424.414 32.1067 423.987 33.44 423.374 34.48C422.761 35.52 421.987 36.2933 421.054 36.8C420.147 37.3067 419.094 37.56 417.894 37.56C416.427 37.56 415.107 37.1733 413.934 36.4C412.761 35.6 411.827 34.3733 411.134 32.72C410.467 31.0667 410.134 28.9467 410.134 26.36C410.134 23.96 410.427 21.9467 411.014 20.32C411.627 18.6667 412.507 17.4267 413.654 16.6C414.827 15.7467 416.241 15.32 417.894 15.32C419.201 15.32 420.307 15.5867 421.214 16.12C422.147 16.6267 422.907 17.4133 423.494 18.48C424.081 19.52 424.521 20.8267 424.814 22.4H425.054V15.88H430.774V23.36V42.92H424.294ZM420.334 32.24C420.707 32.24 421.081 32.1867 421.454 32.08C421.827 31.9467 422.187 31.7467 422.534 31.48C422.881 31.2133 423.187 30.88 423.454 30.48C423.747 30.0533 423.974 29.5467 424.134 28.96C424.294 28.3467 424.374 27.64 424.374 26.84V26.6C424.374 25.5867 424.254 24.72 424.014 24C423.801 23.28 423.507 22.6933 423.134 22.24C422.761 21.76 422.334 21.4133 421.854 21.2C421.374 20.96 420.881 20.84 420.374 20.84C419.574 20.84 418.894 21.1067 418.334 21.64C417.801 22.1467 417.387 22.84 417.094 23.72C416.827 24.5733 416.694 25.5333 416.694 26.6C416.694 27.56 416.814 28.48 417.054 29.36C417.321 30.2133 417.721 30.9067 418.254 31.44C418.787 31.9733 419.481 32.24 420.334 32.24ZM433.663 37V25.52V15.88H439.263V24.28H439.583C439.743 22.04 440.049 20.28 440.503 19C440.983 17.6933 441.569 16.7733 442.263 16.24C442.983 15.68 443.783 15.4 444.663 15.4C445.143 15.4 445.636 15.4667 446.143 15.6C446.676 15.7333 447.196 15.9467 447.703 16.24L447.383 23.44C446.796 23.0933 446.223 22.84 445.663 22.68C445.103 22.4933 444.569 22.4 444.063 22.4C443.209 22.4 442.489 22.64 441.903 23.12C441.316 23.6 440.863 24.3067 440.543 25.24C440.249 26.1733 440.103 27.3067 440.103 28.64V37H433.663ZM458.645 37.56C457.232 37.56 455.912 37.4133 454.685 37.12C453.485 36.8533 452.432 36.4133 451.525 35.8C450.645 35.1867 449.965 34.3733 449.485 33.36C449.032 32.32 448.845 31.0667 448.925 29.6L454.565 29.12C454.618 30 454.818 30.7333 455.165 31.32C455.512 31.88 455.992 32.2933 456.605 32.56C457.218 32.8267 457.965 32.96 458.845 32.96C459.672 32.96 460.378 32.8267 460.965 32.56C461.578 32.2667 461.885 31.7867 461.885 31.12C461.885 30.7733 461.778 30.4933 461.565 30.28C461.352 30.04 460.952 29.8267 460.365 29.64C459.805 29.4267 458.978 29.1867 457.885 28.92C456.525 28.5733 455.298 28.2267 454.205 27.88C453.112 27.5333 452.178 27.12 451.405 26.64C450.632 26.16 450.045 25.5733 449.645 24.88C449.245 24.16 449.045 23.28 449.045 22.24C449.045 20.7733 449.432 19.5333 450.205 18.52C451.005 17.48 452.098 16.6933 453.485 16.16C454.872 15.6 456.472 15.32 458.285 15.32C459.912 15.32 461.432 15.5733 462.845 16.08C464.258 16.5867 465.365 17.4133 466.165 18.56C466.992 19.7067 467.298 21.2267 467.085 23.12L461.565 23.64C461.645 22.8667 461.538 22.2133 461.245 21.68C460.952 21.12 460.525 20.7067 459.965 20.44C459.405 20.1467 458.725 20 457.925 20C457.018 20 456.312 20.1733 455.805 20.52C455.325 20.84 455.085 21.2533 455.085 21.76C455.085 22.16 455.232 22.5067 455.525 22.8C455.845 23.0667 456.325 23.3067 456.965 23.52C457.632 23.7067 458.485 23.92 459.525 24.16C460.432 24.3467 461.378 24.5867 462.365 24.88C463.352 25.1733 464.272 25.5733 465.125 26.08C465.978 26.56 466.672 27.2 467.205 28C467.738 28.8 468.005 29.8133 468.005 31.04C468.005 32.3467 467.645 33.4933 466.925 34.48C466.205 35.4667 465.152 36.2267 463.765 36.76C462.378 37.2933 460.672 37.56 458.645 37.56ZM478.509 37.48C476.029 37.48 474.176 36.8533 472.949 35.6C471.749 34.32 471.149 32.3467 471.149 29.68V20.92H468.829V16.84H468.949C470.602 16.6267 471.776 16.08 472.469 15.2C473.162 14.2933 473.589 12.9333 473.749 11.12V11.04H477.549V15.88H482.389V21.08H477.549V29.08C477.549 30.0933 477.789 30.8133 478.269 31.24C478.776 31.6667 479.389 31.88 480.109 31.88C480.482 31.88 480.869 31.8267 481.269 31.72C481.669 31.6133 482.042 31.4667 482.389 31.28V36.92C481.562 37.16 480.829 37.3067 480.189 37.36C479.549 37.44 478.989 37.48 478.509 37.48ZM491.355 37.56C489.062 37.56 487.355 36.76 486.235 35.16C485.142 33.56 484.595 31.1067 484.595 27.8V15.88H491.075V27.72C491.075 29.2667 491.289 30.3467 491.715 30.96C492.169 31.5733 492.809 31.88 493.635 31.88C494.222 31.88 494.755 31.7333 495.235 31.44C495.742 31.12 496.182 30.6533 496.555 30.04C496.929 29.4 497.209 28.5867 497.395 27.6C497.609 26.6133 497.715 25.4267 497.715 24.04V15.88H504.195V27.48V37H498.675V28.76H498.395C498.235 30.8133 497.875 32.4933 497.315 33.8C496.755 35.08 495.982 36.0267 494.995 36.64C494.009 37.2533 492.795 37.56 491.355 37.56ZM512.101 37L505.741 15.88H512.621L516.261 31.64H516.421L520.221 15.88H526.701L520.341 37H512.101ZM532.425 37L527.425 15.88H534.305L536.745 31.56H536.945L539.665 15.88H546.825L549.465 31.56H549.665L552.305 15.88H558.745L553.825 37H545.385L543.225 22.76H543.025L540.785 37H532.425ZM559.219 37L565.859 26.4L559.299 15.88H566.819L569.899 22.72H570.099L573.099 15.88H580.539L574.179 26.4L580.619 37H572.979L570.059 30.28H569.899L566.659 37H559.219ZM589.777 43.24C588.977 43.24 588.097 43.1733 587.137 43.04C586.177 42.9067 585.217 42.6933 584.257 42.4C583.297 42.1067 582.404 41.7333 581.577 41.28L583.057 34.76C584.017 35.6667 585.084 36.3067 586.257 36.68C587.457 37.0533 588.524 37.24 589.457 37.24C590.764 37.24 591.857 36.9867 592.737 36.48C593.644 35.9467 594.324 35.1867 594.777 34.2C595.231 33.1867 595.457 31.96 595.457 30.52V26.84H595.097C595.044 28.7067 594.737 30.24 594.177 31.44C593.644 32.6133 592.911 33.48 591.977 34.04C591.044 34.6 589.964 34.88 588.737 34.88C587.217 34.88 585.951 34.4933 584.937 33.72C583.951 32.9467 583.204 31.7867 582.697 30.24C582.191 28.6933 581.937 26.76 581.937 24.44V15.88H588.377V22.76C588.377 25.0267 588.617 26.68 589.097 27.72C589.577 28.76 590.337 29.28 591.377 29.28C591.911 29.28 592.377 29.1467 592.777 28.88C593.204 28.5867 593.551 28.16 593.817 27.6C594.084 27.0133 594.284 26.2933 594.417 25.44C594.551 24.56 594.617 23.5467 594.617 22.4V15.88H601.057V30.76C601.057 32.2 600.911 33.56 600.617 34.84C600.324 36.0933 599.884 37.2267 599.297 38.24C598.711 39.28 597.964 40.1733 597.057 40.92C596.177 41.6667 595.124 42.24 593.897 42.64C592.697 43.04 591.324 43.24 589.777 43.24ZM603.14 37V31.56L613.18 21.32V21.08H603.34V15.88H620.74V21.36L610.7 31.64V31.8H620.86V37H603.14Z" fill="white"/>
<path d="M110.543 92.48C109.423 92.48 108.409 92.28 107.503 91.88C106.596 91.4533 105.876 90.8133 105.343 89.96C104.809 89.08 104.543 87.9733 104.543 86.64C104.543 85.76 104.689 84.96 104.983 84.24C105.303 83.4933 105.809 82.84 106.503 82.28C107.196 81.72 108.129 81.2533 109.303 80.88C110.503 80.48 111.983 80.1733 113.743 79.96C114.863 79.8267 115.756 79.6933 116.423 79.56C117.089 79.4 117.569 79.16 117.863 78.84C118.183 78.52 118.343 78.0133 118.343 77.32C118.343 76.1733 117.943 75.2 117.143 74.4C116.343 73.5733 115.089 73.16 113.383 73.16C112.583 73.16 111.729 73.2933 110.823 73.56C109.943 73.8267 109.169 74.3067 108.503 75C107.836 75.6933 107.423 76.6933 107.263 78L105.103 77.16C105.236 76.28 105.516 75.48 105.943 74.76C106.369 74.0133 106.929 73.36 107.623 72.8C108.343 72.24 109.196 71.8133 110.183 71.52C111.169 71.2 112.263 71.04 113.463 71.04C115.036 71.04 116.343 71.3067 117.383 71.84C118.449 72.3733 119.249 73.2 119.783 74.32C120.343 75.4133 120.623 76.8267 120.623 78.56V83.8C120.623 84.5733 120.636 85.4533 120.663 86.44C120.716 87.4267 120.769 88.4133 120.823 89.4C120.903 90.36 120.983 91.2267 121.063 92H118.863C118.783 91.04 118.729 90.1333 118.703 89.28C118.676 88.4267 118.649 87.5733 118.623 86.72H118.223C117.823 87.7067 117.289 88.64 116.623 89.52C115.983 90.4 115.156 91.12 114.143 91.68C113.156 92.2133 111.956 92.48 110.543 92.48ZM110.703 90.36C111.343 90.36 111.983 90.2667 112.623 90.08C113.289 89.8667 113.956 89.52 114.623 89.04C115.316 88.56 115.969 87.9333 116.583 87.16C117.223 86.36 117.823 85.3867 118.383 84.24V79.84L119.543 80.04C119.169 80.52 118.596 80.88 117.823 81.12C117.076 81.36 116.223 81.5467 115.263 81.68C114.303 81.8133 113.329 81.9733 112.343 82.16C111.356 82.32 110.436 82.56 109.583 82.88C108.756 83.2 108.089 83.6667 107.583 84.28C107.076 84.8667 106.823 85.68 106.823 86.72C106.823 87.9467 107.183 88.8667 107.903 89.48C108.623 90.0667 109.556 90.36 110.703 90.36ZM136.825 92.48C135.492 92.48 134.372 92.2133 133.465 91.68C132.559 91.12 131.825 90.4 131.265 89.52C130.732 88.64 130.292 87.72 129.945 86.76H129.385L129.705 92H127.425V81.92V64.36H129.705V70.64C129.705 71.3333 129.679 72.08 129.625 72.88C129.572 73.68 129.492 74.48 129.385 75.28C129.305 76.08 129.212 76.8267 129.105 77.52H129.705C129.972 76.56 130.359 75.5867 130.865 74.6C131.399 73.5867 132.145 72.7467 133.105 72.08C134.065 71.3867 135.305 71.04 136.825 71.04C138.559 71.04 140.025 71.5067 141.225 72.44C142.452 73.3733 143.385 74.6533 144.025 76.28C144.665 77.88 144.985 79.7067 144.985 81.76C144.985 83.7867 144.679 85.6 144.065 87.2C143.452 88.8 142.545 90.08 141.345 91.04C140.145 92 138.639 92.48 136.825 92.48ZM136.745 90.32C137.999 90.32 139.065 89.9867 139.945 89.32C140.825 88.6267 141.492 87.6533 141.945 86.4C142.425 85.12 142.665 83.6267 142.665 81.92C142.665 80.32 142.439 78.8667 141.985 77.56C141.532 76.2533 140.852 75.2133 139.945 74.44C139.065 73.64 137.959 73.24 136.625 73.24C135.665 73.24 134.799 73.44 134.025 73.84C133.279 74.24 132.625 74.7733 132.065 75.44C131.532 76.08 131.079 76.7867 130.705 77.56C130.359 78.3067 130.092 79.0533 129.905 79.8C129.745 80.5467 129.665 81.2 129.665 81.76V82.08C129.665 82.9867 129.839 83.9333 130.185 84.92C130.532 85.88 131.012 86.7733 131.625 87.6C132.265 88.4 133.012 89.0533 133.865 89.56C134.745 90.0667 135.705 90.32 136.745 90.32ZM159.261 92.48C157.474 92.48 155.981 92.1733 154.781 91.56C153.581 90.9467 152.621 90.1333 151.901 89.12C151.208 88.08 150.701 86.9467 150.381 85.72C150.061 84.4667 149.901 83.2133 149.901 81.96C149.901 80.52 150.088 79.1467 150.461 77.84C150.834 76.5333 151.394 75.3733 152.141 74.36C152.888 73.32 153.834 72.5067 154.981 71.92C156.128 71.3333 157.474 71.04 159.021 71.04C160.514 71.04 161.834 71.3067 162.981 71.84C164.154 72.3733 165.101 73.1333 165.821 74.12C166.568 75.08 167.021 76.24 167.181 77.6L164.941 78.08C164.888 77.4133 164.661 76.7067 164.261 75.96C163.861 75.1867 163.234 74.5333 162.381 74C161.554 73.4667 160.461 73.2 159.101 73.2C157.928 73.2 156.901 73.44 156.021 73.92C155.168 74.3733 154.461 75 153.901 75.8C153.341 76.6 152.914 77.5333 152.621 78.6C152.328 79.64 152.181 80.7733 152.181 82C152.181 83.5733 152.421 84.9867 152.901 86.24C153.408 87.4933 154.181 88.4933 155.221 89.24C156.261 89.96 157.621 90.32 159.301 90.32C160.448 90.32 161.448 90.1333 162.301 89.76C163.181 89.3867 163.888 88.8267 164.421 88.08C164.981 87.3333 165.341 86.3867 165.501 85.24L167.701 85.76C167.488 86.9867 167.101 88.04 166.541 88.92C166.008 89.7733 165.368 90.4667 164.621 91C163.874 91.5067 163.048 91.88 162.141 92.12C161.234 92.36 160.274 92.48 159.261 92.48ZM179.584 92.48C177.798 92.48 176.291 92.0133 175.064 91.08C173.864 90.12 172.958 88.84 172.344 87.24C171.731 85.6133 171.424 83.8 171.424 81.8C171.424 79.7467 171.744 77.9067 172.384 76.28C173.024 74.6533 173.944 73.3733 175.144 72.44C176.371 71.5067 177.838 71.04 179.544 71.04C181.091 71.04 182.344 71.3867 183.304 72.08C184.264 72.7467 185.011 73.5867 185.544 74.6C186.078 75.5867 186.464 76.56 186.704 77.52H187.264C187.184 76.8267 187.091 76.0533 186.984 75.2C186.904 74.32 186.824 73.4533 186.744 72.6C186.691 71.72 186.664 70.9333 186.664 70.24V64.36H188.944L188.904 81.84L188.944 92H186.664L187.024 86.76H186.464C186.144 87.7467 185.704 88.68 185.144 89.56C184.584 90.4133 183.851 91.12 182.944 91.68C182.038 92.2133 180.918 92.48 179.584 92.48ZM179.624 90.32C180.691 90.32 181.651 90.0667 182.504 89.56C183.384 89.0533 184.131 88.4 184.744 87.6C185.384 86.7733 185.864 85.88 186.184 84.92C186.504 83.9333 186.664 82.9867 186.664 82.08V81.76C186.664 81.2 186.584 80.5467 186.424 79.8C186.291 79.0533 186.051 78.3067 185.704 77.56C185.358 76.7867 184.904 76.08 184.344 75.44C183.811 74.7733 183.171 74.24 182.424 73.84C181.678 73.44 180.811 73.24 179.824 73.24C178.491 73.24 177.371 73.64 176.464 74.44C175.558 75.2133 174.864 76.2533 174.384 77.56C173.931 78.8667 173.704 80.3333 173.704 81.96C173.704 83.64 173.931 85.1067 174.384 86.36C174.864 87.6133 175.544 88.5867 176.424 89.28C177.304 89.9733 178.371 90.32 179.624 90.32ZM204.262 92.48C202.689 92.48 201.315 92.2267 200.142 91.72C198.969 91.2133 197.982 90.4933 197.182 89.56C196.409 88.6267 195.822 87.5333 195.422 86.28C195.022 85 194.822 83.6 194.822 82.08C194.822 80.48 195.022 79.0133 195.422 77.68C195.822 76.3467 196.409 75.1867 197.182 74.2C197.955 73.1867 198.902 72.4133 200.022 71.88C201.169 71.32 202.489 71.04 203.982 71.04C205.182 71.04 206.289 71.2533 207.302 71.68C208.342 72.08 209.235 72.72 209.982 73.6C210.755 74.48 211.342 75.6133 211.742 77C212.142 78.36 212.315 79.9867 212.262 81.88L196.142 82.04V80L210.782 79.88L210.022 81.6C210.129 79.76 209.929 78.2267 209.422 77C208.942 75.7467 208.235 74.8 207.302 74.16C206.369 73.52 205.249 73.2 203.942 73.2C202.529 73.2 201.302 73.56 200.262 74.28C199.249 74.9733 198.462 75.9867 197.902 77.32C197.342 78.6267 197.062 80.2133 197.062 82.08C197.062 84.6667 197.649 86.6933 198.822 88.16C200.022 89.6 201.862 90.32 204.342 90.32C205.249 90.32 206.049 90.2267 206.742 90.04C207.435 89.8267 208.035 89.5333 208.542 89.16C209.049 88.76 209.475 88.2933 209.822 87.76C210.169 87.2267 210.435 86.6267 210.622 85.96L212.622 86.48C212.329 87.44 211.929 88.2933 211.422 89.04C210.942 89.7867 210.342 90.4133 209.622 90.92C208.929 91.4267 208.129 91.8133 207.222 92.08C206.342 92.3467 205.355 92.48 204.262 92.48ZM219.691 92V76.64H215.811V74.6L220.691 74.96V74.32C220.185 74.0267 219.758 73.6533 219.411 73.2C219.065 72.7467 218.798 72.2267 218.611 71.64C218.425 71.0533 218.331 70.4133 218.331 69.72C218.331 68.6533 218.545 67.7067 218.971 66.88C219.425 66.0533 220.051 65.4 220.851 64.92C221.678 64.4133 222.678 64.16 223.851 64.16C224.705 64.16 225.478 64.3067 226.171 64.6C226.865 64.8667 227.451 65.2133 227.931 65.64L227.451 67.84C227.025 67.3867 226.478 67.0133 225.811 66.72C225.171 66.4267 224.491 66.28 223.771 66.28C222.785 66.28 221.998 66.6133 221.411 67.28C220.825 67.92 220.531 68.8933 220.531 70.2C220.531 70.84 220.598 71.4533 220.731 72.04C220.865 72.6 221.051 73.1067 221.291 73.56C221.531 73.9867 221.785 74.3333 222.051 74.6H227.371L227.331 76.64H221.931V92H219.691ZM239.395 98.8C237.261 98.8 235.515 98.64 234.155 98.32C232.821 98 231.835 97.5067 231.195 96.84C230.555 96.1733 230.235 95.3333 230.235 94.32C230.235 93.0933 230.701 92.08 231.635 91.28C232.595 90.48 234.075 89.9067 236.075 89.56V88.84C234.635 88.8667 233.581 88.6933 232.915 88.32C232.248 87.9467 231.915 87.44 231.915 86.8C231.915 86.08 232.261 85.5067 232.955 85.08C233.648 84.6267 234.755 84.1733 236.275 83.72V83C234.675 83.0267 233.461 82.5733 232.635 81.64C231.835 80.68 231.435 79.4533 231.435 77.96C231.435 76.5467 231.795 75.36 232.515 74.4C233.261 73.44 234.301 72.72 235.635 72.24C236.995 71.7333 238.581 71.48 240.395 71.48H249.555V73.68L243.315 72.64V73.32C244.755 73.6667 245.901 74.28 246.755 75.16C247.635 76.0133 248.075 77.1467 248.075 78.56C248.075 79.7333 247.755 80.76 247.115 81.64C246.475 82.4933 245.515 83.16 244.235 83.64C242.955 84.0933 241.355 84.32 239.435 84.32C239.035 84.32 238.635 84.3067 238.235 84.28C237.835 84.2267 237.381 84.1467 236.875 84.04C235.995 84.52 235.288 84.9733 234.755 85.4C234.221 85.8267 233.955 86.2133 233.955 86.56C233.955 86.9333 234.221 87.2267 234.755 87.44C235.315 87.6267 235.968 87.76 236.715 87.84C237.461 87.8933 238.141 87.92 238.755 87.92H242.595C243.128 87.92 243.781 87.9867 244.555 88.12C245.355 88.2267 246.141 88.4533 246.915 88.8C247.715 89.1467 248.381 89.6667 248.915 90.36C249.448 91.0533 249.715 91.9867 249.715 93.16C249.715 94.5467 249.288 95.6533 248.435 96.48C247.608 97.3067 246.421 97.8933 244.875 98.24C243.355 98.6133 241.528 98.8 239.395 98.8ZM239.075 96.84C240.968 96.84 242.528 96.7067 243.755 96.44C245.008 96.2 245.941 95.8 246.555 95.24C247.168 94.68 247.475 93.9867 247.475 93.16C247.475 92.36 247.248 91.7467 246.795 91.32C246.368 90.8667 245.821 90.5467 245.155 90.36C244.515 90.1733 243.861 90.0667 243.195 90.04C242.555 89.9867 242.008 89.96 241.555 89.96H237.155C235.315 90.4667 234.075 91.0667 233.435 91.76C232.795 92.4267 232.475 93.12 232.475 93.84C232.475 94.72 232.795 95.36 233.435 95.76C234.075 96.1867 234.901 96.4667 235.915 96.6C236.928 96.76 237.981 96.84 239.075 96.84ZM239.915 82.4C241.861 82.4 243.328 82.04 244.315 81.32C245.328 80.5733 245.835 79.5467 245.835 78.24C245.835 76.8533 245.328 75.72 244.315 74.84C243.301 73.9333 241.768 73.48 239.715 73.48C237.768 73.48 236.275 73.9067 235.235 74.76C234.195 75.5867 233.675 76.6667 233.675 78C233.675 78.9067 233.915 79.6933 234.395 80.36C234.875 81 235.568 81.5067 236.475 81.88C237.408 82.2267 238.555 82.4 239.915 82.4ZM254.847 92V79.92V64.36H257.247V70.76C257.247 71.3733 257.234 71.9867 257.207 72.6C257.181 73.2133 257.141 73.84 257.087 74.48C257.034 75.0933 256.967 75.72 256.887 76.36C256.807 76.9733 256.727 77.6 256.647 78.24H257.207C257.607 76.5867 258.127 75.2267 258.767 74.16C259.407 73.0667 260.194 72.28 261.127 71.8C262.061 71.2933 263.127 71.04 264.327 71.04C266.594 71.04 268.287 71.84 269.407 73.44C270.527 75.0133 271.087 77.32 271.087 80.36V92H268.807V80.4C268.807 77.8667 268.407 76.04 267.607 74.92C266.807 73.8 265.634 73.24 264.087 73.24C262.754 73.24 261.607 73.64 260.647 74.44C259.714 75.2133 258.954 76.2667 258.367 77.6C257.781 78.9333 257.354 80.4533 257.087 82.16V92H254.847ZM277.778 92V71.52H280.018V92H277.778ZM278.898 67.6C278.258 67.6 277.778 67.4667 277.458 67.2C277.138 66.9333 276.978 66.52 276.978 65.96C276.978 65.4533 277.138 65.0667 277.458 64.8C277.778 64.5333 278.258 64.4 278.898 64.4C279.538 64.4 280.018 64.5333 280.338 64.8C280.658 65.0667 280.818 65.4533 280.818 65.96C280.818 66.52 280.644 66.9333 280.298 67.2C279.978 67.4667 279.511 67.6 278.898 67.6ZM284.995 98.88C284.541 98.88 284.035 98.8267 283.475 98.72C282.915 98.6133 282.328 98.4667 281.715 98.28L281.515 96C283.621 96.64 285.155 96.76 286.115 96.36C287.101 95.9867 287.595 94.8267 287.595 92.88V71.52H289.835V92.08C289.835 93.1467 289.741 94.0933 289.555 94.92C289.368 95.7733 289.075 96.4933 288.675 97.08C288.301 97.6667 287.808 98.1067 287.195 98.4C286.581 98.72 285.848 98.88 284.995 98.88ZM288.675 67.6C288.035 67.6 287.555 67.4667 287.235 67.2C286.915 66.9333 286.755 66.52 286.755 65.96C286.755 65.4533 286.915 65.0667 287.235 64.8C287.555 64.5333 288.035 64.4 288.675 64.4C289.315 64.4 289.795 64.5333 290.115 64.8C290.435 65.0667 290.595 65.4533 290.595 65.96C290.595 66.52 290.421 66.9333 290.075 67.2C289.755 67.4667 289.288 67.6 288.675 67.6ZM296.8 92V64.36H299.08V80.4C300.254 79.84 301.4 79.1733 302.52 78.4C303.64 77.6267 304.667 76.8133 305.6 75.96C306.56 75.1067 307.374 74.2933 308.04 73.52C308.734 72.72 309.227 72.0533 309.52 71.52H312.24C311.654 72.5067 310.92 73.4933 310.04 74.48C309.187 75.4667 308.254 76.3867 307.24 77.24C306.254 78.0933 305.267 78.84 304.28 79.48C303.294 80.0933 302.374 80.5333 301.52 80.8V81.16C302.56 81.1867 303.52 81.44 304.4 81.92C305.307 82.3733 306.16 83 306.96 83.8C307.787 84.5733 308.587 85.48 309.36 86.52C310.16 87.5333 310.96 88.64 311.76 89.84L313.2 92H310.56L309.4 90.24C308.467 88.8267 307.52 87.5333 306.56 86.36C305.6 85.1867 304.56 84.2533 303.44 83.56C302.347 82.84 301.12 82.48 299.76 82.48H299.08V92H296.8ZM317.464 92V64.36H319.744V92H317.464ZM326.722 92V79.6V71.52H329.042L328.522 78.24H329.082C329.429 76.64 329.896 75.3067 330.482 74.24C331.069 73.1733 331.789 72.3733 332.642 71.84C333.496 71.3067 334.469 71.04 335.562 71.04C336.922 71.04 338.029 71.4 338.882 72.12C339.762 72.8133 340.389 73.7067 340.762 74.8C341.162 75.8667 341.336 76.96 341.282 78.08H341.882C342.122 76.6133 342.522 75.36 343.082 74.32C343.642 73.2533 344.362 72.44 345.242 71.88C346.149 71.32 347.189 71.04 348.362 71.04C349.349 71.04 350.216 71.2533 350.962 71.68C351.736 72.08 352.389 72.68 352.922 73.48C353.456 74.2533 353.856 75.2267 354.122 76.4C354.389 77.5467 354.522 78.8667 354.522 80.36V92H352.282V80.64C352.282 78.9867 352.122 77.6133 351.802 76.52C351.482 75.4267 351.002 74.6133 350.362 74.08C349.749 73.52 348.976 73.24 348.042 73.24C346.976 73.24 346.002 73.6133 345.122 74.36C344.269 75.1067 343.549 76.1333 342.962 77.44C342.376 78.7467 341.962 80.24 341.722 81.92V92H339.522V81.16C339.522 79.4 339.362 77.9333 339.042 76.76C338.749 75.5867 338.282 74.7067 337.642 74.12C337.029 73.5333 336.242 73.24 335.282 73.24C334.109 73.24 333.082 73.64 332.202 74.44C331.349 75.24 330.642 76.32 330.082 77.68C329.549 79.04 329.176 80.5333 328.962 82.16V92H326.722ZM361.175 92V79.12V71.52H363.535L362.975 78.24H363.535C363.935 76.5867 364.442 75.24 365.055 74.2C365.695 73.1333 366.482 72.3467 367.415 71.84C368.375 71.3067 369.482 71.04 370.735 71.04C372.922 71.04 374.575 71.84 375.695 73.44C376.842 75.0133 377.415 77.2933 377.415 80.28V92H375.135V80.4C375.135 77.9733 374.735 76.1733 373.935 75C373.162 73.8267 372.015 73.24 370.495 73.24C369.109 73.24 367.895 73.6933 366.855 74.6C365.842 75.48 365.042 76.64 364.455 78.08C363.869 79.52 363.522 81.08 363.415 82.76V92H361.175ZM392.586 92.48C390.693 92.48 389.026 92.04 387.586 91.16C386.146 90.28 385.013 89.04 384.186 87.44C383.386 85.8133 382.986 83.88 382.986 81.64C382.986 79.2667 383.413 77.3067 384.266 75.76C385.146 74.1867 386.293 73.0133 387.706 72.24C389.146 71.44 390.719 71.04 392.426 71.04C394.213 71.04 395.826 71.4667 397.266 72.32C398.706 73.1467 399.853 74.3733 400.706 76C401.586 77.6 402.026 79.56 402.026 81.88C402.026 84.1733 401.613 86.1067 400.786 87.68C399.959 89.2533 398.826 90.4533 397.386 91.28C395.973 92.08 394.373 92.48 392.586 92.48ZM392.666 90.32C394.106 90.32 395.346 89.9733 396.386 89.28C397.453 88.56 398.279 87.56 398.866 86.28C399.453 85 399.746 83.52 399.746 81.84C399.746 80.1067 399.439 78.6 398.826 77.32C398.239 76.0133 397.399 75 396.306 74.28C395.213 73.56 393.919 73.2 392.426 73.2C390.986 73.2 389.733 73.5333 388.666 74.2C387.599 74.8667 386.759 75.8267 386.146 77.08C385.559 78.3067 385.266 79.8 385.266 81.56C385.266 84.2267 385.933 86.36 387.266 87.96C388.626 89.5333 390.426 90.32 392.666 90.32ZM407.894 98.32V81.68V71.52H410.174L409.854 76.48H410.414C410.761 75.4667 411.201 74.56 411.734 73.76C412.294 72.9333 413.001 72.28 413.854 71.8C414.734 71.2933 415.827 71.04 417.134 71.04C419.054 71.04 420.627 71.5333 421.854 72.52C423.081 73.48 423.987 74.7733 424.574 76.4C425.161 78 425.454 79.7733 425.454 81.72C425.454 83.7733 425.134 85.6133 424.494 87.24C423.854 88.8667 422.921 90.1467 421.694 91.08C420.494 92.0133 419.027 92.48 417.294 92.48C415.774 92.48 414.534 92.1467 413.574 91.48C412.614 90.8133 411.867 89.9733 411.334 88.96C410.827 87.9467 410.441 86.9733 410.174 86.04H409.574C409.707 86.76 409.814 87.52 409.894 88.32C409.974 89.12 410.041 89.92 410.094 90.72C410.147 91.4933 410.174 92.24 410.174 92.96V98.32H407.894ZM417.094 90.28C418.427 90.28 419.534 89.8933 420.414 89.12C421.321 88.3467 422.001 87.3067 422.454 86C422.907 84.6667 423.134 83.1867 423.134 81.56C423.134 79.8533 422.894 78.3867 422.414 77.16C421.961 75.9067 421.294 74.9333 420.414 74.24C419.534 73.5467 418.454 73.2 417.174 73.2C416.134 73.2 415.187 73.44 414.334 73.92C413.481 74.4 412.734 75.0533 412.094 75.88C411.481 76.68 411.001 77.5733 410.654 78.56C410.307 79.52 410.134 80.5067 410.134 81.52V81.8C410.134 82.36 410.214 83.0133 410.374 83.76C410.561 84.48 410.827 85.2267 411.174 86C411.547 86.7467 412.001 87.4533 412.534 88.12C413.094 88.76 413.747 89.28 414.494 89.68C415.267 90.08 416.134 90.28 417.094 90.28ZM445.61 98.32V92.96C445.61 92.24 445.636 91.48 445.69 90.68C445.77 89.88 445.85 89.08 445.93 88.28C446.036 87.48 446.13 86.7467 446.21 86.08H445.65C445.41 87.0133 445.023 87.9867 444.49 89C443.956 89.9867 443.21 90.8133 442.25 91.48C441.29 92.1467 440.036 92.48 438.49 92.48C436.783 92.48 435.316 92.0133 434.09 91.08C432.89 90.1467 431.97 88.8667 431.33 87.24C430.69 85.6133 430.37 83.7867 430.37 81.76C430.37 79.8133 430.663 78.04 431.25 76.44C431.836 74.8133 432.743 73.5067 433.97 72.52C435.196 71.5333 436.756 71.04 438.65 71.04C440.036 71.04 441.17 71.3067 442.05 71.84C442.93 72.3733 443.636 73.0533 444.17 73.88C444.703 74.7067 445.116 75.5867 445.41 76.52H445.97L445.61 71.56H447.89L447.85 81.68L447.89 98.32H445.61ZM438.77 90.28C439.756 90.28 440.623 90.08 441.37 89.68C442.116 89.28 442.756 88.76 443.29 88.12C443.85 87.48 444.303 86.7733 444.65 86C444.996 85.2267 445.236 84.4667 445.37 83.72C445.53 82.9733 445.61 82.3333 445.61 81.8V81.52C445.61 80.5067 445.436 79.52 445.09 78.56C444.77 77.5733 444.303 76.68 443.69 75.88C443.076 75.08 442.33 74.44 441.45 73.96C440.596 73.48 439.65 73.24 438.61 73.24C437.356 73.24 436.276 73.5867 435.37 74.28C434.49 74.9733 433.81 75.9467 433.33 77.2C432.876 78.4267 432.65 79.8933 432.65 81.6C432.65 83.2267 432.876 84.6933 433.33 86C433.81 87.3067 434.503 88.3467 435.41 89.12C436.316 89.8933 437.436 90.28 438.77 90.28ZM454.847 92V80.12V71.52H457.167L456.607 78.76H457.207C457.501 77.3467 457.887 76.0533 458.367 74.88C458.874 73.7067 459.514 72.7733 460.287 72.08C461.087 71.36 462.047 71 463.167 71C463.487 71 463.834 71.0267 464.207 71.08C464.607 71.1333 465.047 71.2533 465.527 71.44L465.367 73.76C464.994 73.6267 464.621 73.52 464.247 73.44C463.901 73.36 463.554 73.32 463.207 73.32C462.141 73.32 461.234 73.72 460.487 74.52C459.741 75.32 459.087 76.3733 458.527 77.68C457.994 78.96 457.514 80.3467 457.087 81.84V92H454.847ZM476.969 92.48C475.529 92.48 474.262 92.32 473.169 92C472.076 91.6533 471.169 91.1733 470.449 90.56C469.756 89.9467 469.236 89.2133 468.889 88.36C468.569 87.5067 468.449 86.5733 468.529 85.56L470.729 85.36C470.596 86.48 470.769 87.4133 471.249 88.16C471.756 88.88 472.502 89.4267 473.489 89.8C474.502 90.1733 475.689 90.36 477.049 90.36C478.916 90.36 480.342 90.04 481.329 89.4C482.342 88.76 482.849 87.88 482.849 86.76C482.849 85.88 482.569 85.2 482.009 84.72C481.449 84.2133 480.689 83.8267 479.729 83.56C478.796 83.2667 477.729 83 476.529 82.76C475.596 82.5467 474.662 82.3067 473.729 82.04C472.822 81.7733 471.996 81.44 471.249 81.04C470.529 80.6133 469.942 80.0667 469.489 79.4C469.062 78.7333 468.849 77.9067 468.849 76.92C468.849 75.6933 469.169 74.6533 469.809 73.8C470.449 72.92 471.342 72.24 472.489 71.76C473.662 71.28 475.036 71.04 476.609 71.04C478.289 71.04 479.689 71.32 480.809 71.88C481.956 72.4133 482.822 73.1733 483.409 74.16C483.996 75.1467 484.276 76.28 484.249 77.56L482.089 77.88C482.116 76.8133 481.889 75.9333 481.409 75.24C480.956 74.5467 480.289 74.0267 479.409 73.68C478.556 73.3333 477.542 73.16 476.369 73.16C474.742 73.16 473.449 73.48 472.489 74.12C471.556 74.76 471.089 75.64 471.089 76.76C471.089 77.6133 471.356 78.2933 471.889 78.8C472.449 79.28 473.182 79.6533 474.089 79.92C475.022 80.1867 476.036 80.44 477.129 80.68C478.169 80.8933 479.156 81.1333 480.089 81.4C481.049 81.6667 481.889 82.0133 482.609 82.44C483.356 82.84 483.942 83.3867 484.369 84.08C484.822 84.7467 485.049 85.6 485.049 86.64C485.049 87.9733 484.702 89.08 484.009 89.96C483.316 90.8133 482.356 91.4533 481.129 91.88C479.929 92.28 478.542 92.48 476.969 92.48ZM496.11 92.36C494.484 92.36 493.257 91.9067 492.43 91C491.604 90.0933 491.19 88.76 491.19 87V73.56H488.07V71.52H489.91C490.47 71.52 490.87 71.4133 491.11 71.2C491.35 70.96 491.497 70.5867 491.55 70.08L491.87 66.88H493.43V71.52H499.75V73.56H493.43V87.04C493.43 88.1867 493.684 89.0133 494.19 89.52C494.697 90 495.417 90.24 496.35 90.24C496.857 90.24 497.404 90.1733 497.99 90.04C498.577 89.88 499.204 89.5467 499.87 89.04V91.52C499.15 91.8133 498.47 92.0267 497.83 92.16C497.217 92.2933 496.644 92.36 496.11 92.36ZM511.051 92.48C508.864 92.48 507.198 91.7067 506.051 90.16C504.931 88.6133 504.371 86.32 504.371 83.28V71.52H506.651V83.24C506.651 85.6133 507.024 87.3867 507.771 88.56C508.518 89.7067 509.718 90.28 511.371 90.28C512.278 90.28 513.091 90.0667 513.811 89.64C514.531 89.2133 515.171 88.6 515.731 87.8C516.318 87 516.798 86.0533 517.171 84.96C517.571 83.8667 517.851 82.6533 518.011 81.32V71.52H520.251V83.32L520.291 92H517.971L518.531 85.32H517.971C517.678 86.9467 517.198 88.2933 516.531 89.36C515.891 90.4267 515.104 91.2133 514.171 91.72C513.238 92.2267 512.198 92.48 511.051 92.48ZM532.389 92L524.789 71.56H527.269L533.669 89.92H534.189L540.549 71.56H543.109L535.509 92H532.389ZM552.39 92L546.71 71.52H548.99L553.79 89.88H554.35L559.27 71.52H562.55L567.47 89.88H567.91L572.79 71.52H575.07L569.31 92H566.11L561.11 73.6H560.79L555.75 92H552.39ZM578.349 92L585.349 81.8L578.229 71.52H580.909L586.509 80.12H586.869L592.349 71.52H595.029L587.989 81.8L595.229 92H592.509L586.869 83.4H586.509L581.029 92H578.349ZM606.772 98.72C605.679 98.72 604.612 98.5867 603.572 98.32C602.559 98.0533 601.639 97.6267 600.812 97.04C600.012 96.48 599.372 95.7467 598.892 94.84L600.852 93.72C601.305 94.6267 602.039 95.3333 603.052 95.84C604.065 96.3467 605.265 96.6 606.652 96.6C608.199 96.6 609.492 96.24 610.532 95.52C611.572 94.8 612.345 93.6933 612.852 92.2C613.385 90.7333 613.652 88.88 613.652 86.64L614.172 82.12H613.532C613.212 84.1733 612.719 85.8 612.052 87C611.412 88.2 610.639 89.0533 609.732 89.56C608.825 90.0667 607.785 90.32 606.612 90.32C605.145 90.32 603.892 89.9467 602.852 89.2C601.839 88.4533 601.065 87.36 600.532 85.92C599.999 84.4533 599.732 82.6933 599.732 80.64V71.52H601.932V80.28C601.932 82.92 602.359 84.8933 603.212 86.2C604.092 87.48 605.359 88.12 607.012 88.12C607.919 88.12 608.732 87.9067 609.452 87.48C610.199 87.0533 610.839 86.4 611.372 85.52C611.932 84.64 612.372 83.5333 612.692 82.2C613.039 80.84 613.265 79.2267 613.372 77.36V71.52H615.652V86.84C615.652 88.4133 615.532 89.84 615.292 91.12C615.079 92.3733 614.732 93.4667 614.252 94.4C613.799 95.36 613.212 96.16 612.492 96.8C611.799 97.4667 610.972 97.9467 610.012 98.24C609.079 98.56 607.999 98.72 606.772 98.72ZM620.582 92V89.72L632.942 74.08V73.6H620.622V71.52H636.102V73.56L623.422 89.4V89.88H636.142V92H620.582Z" fill="white"/>
</svg>
