<svg width="638" height="102" viewBox="0 0 638 102" fill="none" xmlns="http://www.w3.org/2000/svg">
<path d="M62.4098 37V19.48H58.8898V13.92C59.9832 13.92 60.9032 13.7333 61.6498 13.36C62.4232 12.96 62.9432 12.04 63.2098 10.6H68.8898V37H62.4098ZM71.6727 37V30.36L81.4327 23.68C81.9927 23.3067 82.486 22.92 82.9127 22.52C83.3393 22.0933 83.6993 21.6533 83.9927 21.2C84.286 20.7467 84.5127 20.2933 84.6727 19.84C84.8327 19.36 84.9127 18.8667 84.9127 18.36C84.9127 17.7467 84.766 17.2133 84.4727 16.76C84.1793 16.3067 83.766 15.96 83.2327 15.72C82.726 15.48 82.1127 15.36 81.3927 15.36C80.5393 15.36 79.8327 15.52 79.2727 15.84C78.7393 16.16 78.326 16.5867 78.0327 17.12C77.766 17.6267 77.5927 18.1867 77.5127 18.8C77.4593 19.3867 77.4727 19.9733 77.5527 20.56L71.4727 19.96C71.2327 17.88 71.486 16.1067 72.2327 14.64C72.9793 13.1467 74.1527 12.0133 75.7527 11.24C77.3527 10.44 79.2993 10.04 81.5927 10.04C83.646 10.04 85.3927 10.36 86.8327 11C88.2993 11.6133 89.4193 12.52 90.1927 13.72C90.966 14.92 91.3527 16.36 91.3527 18.04C91.3527 19.2667 91.166 20.3733 90.7927 21.36C90.446 22.3467 89.9393 23.24 89.2727 24.04C88.6327 24.84 87.8727 25.5867 86.9927 26.28C86.1393 26.9733 85.206 27.64 84.1927 28.28L79.1127 31.52V31.68L91.6727 31.6V37H71.6727ZM103.74 37.56C101.98 37.56 100.433 37.3867 99.1002 37.04C97.7668 36.6933 96.6468 36.1867 95.7402 35.52C94.8335 34.8267 94.1535 33.9733 93.7002 32.96C93.2735 31.92 93.0868 30.7067 93.1402 29.32L99.2202 28.4C99.1935 28.96 99.2602 29.4933 99.4202 30C99.6068 30.48 99.9002 30.9067 100.3 31.28C100.7 31.6533 101.207 31.9467 101.82 32.16C102.433 32.3733 103.167 32.48 104.02 32.48C104.873 32.48 105.62 32.36 106.26 32.12C106.927 31.8533 107.433 31.4667 107.78 30.96C108.153 30.4533 108.34 29.8133 108.34 29.04C108.34 27.9467 107.993 27.0667 107.3 26.4C106.633 25.7333 105.54 25.2933 104.02 25.08C102.527 24.8667 100.553 24.8933 98.1002 25.16V21.36L105.78 16.08V15.92H94.4602V10.56H113.5V15.64L104.94 21.64V21.84C107.233 21.7067 109.127 21.9867 110.62 22.68C112.113 23.3467 113.22 24.2933 113.94 25.52C114.687 26.72 115.06 28.08 115.06 29.6C115.06 31.2 114.633 32.6 113.78 33.8C112.953 34.9733 111.7 35.8933 110.02 36.56C108.367 37.2267 106.273 37.56 103.74 37.56ZM116.62 32.24V26.2C117.9 24.76 118.98 23.3867 119.86 22.08C120.766 20.7733 121.54 19.5067 122.18 18.28C122.82 17.0267 123.38 15.7733 123.86 14.52C124.366 13.24 124.873 11.92 125.38 10.56H135.94V37H129.5V15.4H129.34C128.886 16.8133 128.34 18.1867 127.7 19.52C127.06 20.8267 126.366 22.08 125.62 23.28C124.873 24.4533 124.06 25.5867 123.18 26.68V26.84H139.38V32.24H116.62ZM151.076 37.56C148.783 37.56 146.903 37.2533 145.436 36.64C143.97 36 142.89 35.0667 142.196 33.84C141.53 32.6133 141.223 31.1333 141.276 29.4L147.356 28.84C147.356 29.9333 147.69 30.7867 148.356 31.4C149.023 31.9867 149.97 32.28 151.196 32.28C152.583 32.28 153.596 31.8933 154.236 31.12C154.876 30.3467 155.196 29.2667 155.196 27.88C155.196 27.1333 155.116 26.48 154.956 25.92C154.796 25.36 154.57 24.8933 154.276 24.52C153.983 24.12 153.623 23.8267 153.196 23.64C152.77 23.4533 152.276 23.36 151.716 23.36C151.316 23.36 150.93 23.4133 150.556 23.52C150.183 23.6267 149.85 23.7867 149.556 24C149.263 24.2133 149.01 24.48 148.796 24.8C148.583 25.12 148.423 25.4933 148.316 25.92H141.756L143.036 10.56H160.796V15.92H148.476L147.756 24.12H147.916C148.21 22.5733 148.876 21.3333 149.916 20.4C150.956 19.44 152.41 18.96 154.276 18.96C155.956 18.96 157.356 19.3467 158.476 20.12C159.623 20.8667 160.476 21.92 161.036 23.28C161.623 24.64 161.916 26.2267 161.916 28.04C161.916 30.1733 161.503 31.9467 160.676 33.36C159.85 34.7733 158.623 35.8267 156.996 36.52C155.396 37.2133 153.423 37.56 151.076 37.56ZM175.535 37.56C171.749 37.56 168.869 36.4 166.895 34.08C164.922 31.7333 163.935 28.3867 163.935 24.04C163.935 20.9467 164.415 18.3733 165.375 16.32C166.335 14.24 167.669 12.68 169.375 11.64C171.109 10.5733 173.109 10.04 175.375 10.04C176.602 10.04 177.775 10.2 178.895 10.52C180.015 10.84 181.002 11.3467 181.855 12.04C182.709 12.7067 183.362 13.5867 183.815 14.68C184.295 15.7467 184.495 17.04 184.415 18.56L178.375 19.2C178.375 18.1867 178.189 17.4133 177.815 16.88C177.442 16.32 176.989 15.9333 176.455 15.72C175.949 15.5067 175.455 15.4 174.975 15.4C174.229 15.4 173.562 15.6 172.975 16C172.389 16.4 171.895 16.96 171.495 17.68C171.122 18.4 170.829 19.2533 170.615 20.24C170.429 21.2 170.335 22.24 170.335 23.36C170.335 24.0267 170.375 24.7333 170.455 25.48C170.535 26.2267 170.629 26.96 170.735 27.68H170.895C170.842 26.1867 171.015 24.9733 171.415 24.04C171.842 23.1067 172.389 22.3867 173.055 21.88C173.749 21.3467 174.482 20.9867 175.255 20.8C176.029 20.6133 176.749 20.52 177.415 20.52C178.882 20.52 180.215 20.8267 181.415 21.44C182.642 22.0267 183.629 22.92 184.375 24.12C185.122 25.32 185.495 26.8 185.495 28.56C185.495 29.6 185.322 30.6533 184.975 31.72C184.655 32.7867 184.109 33.76 183.335 34.64C182.589 35.52 181.575 36.2267 180.295 36.76C179.015 37.2933 177.429 37.56 175.535 37.56ZM175.335 32.4C175.895 32.4 176.389 32.32 176.815 32.16C177.269 31.9733 177.655 31.72 177.975 31.4C178.322 31.0533 178.575 30.6533 178.735 30.2C178.922 29.7467 179.015 29.2533 179.015 28.72C179.015 27.9467 178.869 27.2933 178.575 26.76C178.282 26.2 177.869 25.7733 177.335 25.48C176.802 25.1867 176.175 25.04 175.455 25.04C174.709 25.04 174.055 25.2 173.495 25.52C172.935 25.84 172.495 26.2933 172.175 26.88C171.855 27.44 171.695 28.12 171.695 28.92C171.695 29.4533 171.775 29.9333 171.935 30.36C172.122 30.7867 172.362 31.16 172.655 31.48C172.975 31.7733 173.362 32 173.815 32.16C174.269 32.32 174.775 32.4 175.335 32.4ZM189.704 37C189.704 35.1333 189.918 33.2667 190.344 31.4C190.798 29.5333 191.438 27.7067 192.264 25.92C193.091 24.1333 194.091 22.4133 195.264 20.76C196.464 19.1067 197.824 17.5467 199.344 16.08V15.92H186.304V10.56H205.304V15.92C204.318 16.96 203.318 18.2533 202.304 19.8C201.318 21.3467 200.411 23.0533 199.584 24.92C198.758 26.7867 198.091 28.7467 197.584 30.8C197.104 32.8533 196.864 34.92 196.864 37H189.704ZM217.515 37.56C215.275 37.56 213.302 37.2933 211.595 36.76C209.915 36.2267 208.595 35.4133 207.635 34.32C206.702 33.2 206.235 31.7867 206.235 30.08C206.235 28.88 206.475 27.8267 206.955 26.92C207.462 26.0133 208.235 25.28 209.275 24.72C210.315 24.1333 211.649 23.7733 213.275 23.64V23.36L217.515 22.36L221.755 23.36V23.64C223.329 23.7733 224.635 24.12 225.675 24.68C226.715 25.2133 227.489 25.9333 227.995 26.84C228.529 27.7467 228.795 28.8267 228.795 30.08C228.795 31.7867 228.315 33.2 227.355 34.32C226.422 35.4133 225.115 36.2267 223.435 36.76C221.755 37.2933 219.782 37.56 217.515 37.56ZM217.595 32.28C218.129 32.28 218.662 32.2267 219.195 32.12C219.729 32.0133 220.222 31.84 220.675 31.6C221.155 31.36 221.529 31.04 221.795 30.64C222.089 30.2133 222.235 29.68 222.235 29.04C222.235 28.2933 222.022 27.7067 221.595 27.28C221.195 26.8267 220.635 26.5067 219.915 26.32C219.222 26.1067 218.422 26 217.515 26C216.609 26 215.795 26.1067 215.075 26.32C214.382 26.5067 213.835 26.8267 213.435 27.28C213.062 27.7067 212.875 28.2933 212.875 29.04C212.875 29.6533 213.009 30.1733 213.275 30.6C213.569 31 213.942 31.3333 214.395 31.6C214.875 31.84 215.382 32.0133 215.915 32.12C216.475 32.2267 217.035 32.28 217.595 32.28ZM217.515 21.36C218.235 21.36 218.875 21.2667 219.435 21.08C219.995 20.8933 220.435 20.5867 220.755 20.16C221.075 19.7067 221.235 19.12 221.235 18.4C221.235 17.8133 221.115 17.32 220.875 16.92C220.662 16.52 220.369 16.2133 219.995 16C219.622 15.76 219.209 15.5867 218.755 15.48C218.329 15.3733 217.915 15.32 217.515 15.32C216.955 15.32 216.395 15.4133 215.835 15.6C215.275 15.7867 214.809 16.1067 214.435 16.56C214.062 16.9867 213.875 17.5867 213.875 18.36C213.875 19.1067 214.035 19.7067 214.355 20.16C214.675 20.5867 215.115 20.8933 215.675 21.08C216.235 21.2667 216.849 21.36 217.515 21.36ZM217.515 25.16L213.275 23.72V23.36C211.889 23.1733 210.742 22.8533 209.835 22.4C208.929 21.92 208.262 21.28 207.835 20.48C207.409 19.6533 207.195 18.6533 207.195 17.48C207.195 15.7733 207.635 14.3733 208.515 13.28C209.395 12.1867 210.609 11.3733 212.155 10.84C213.702 10.3067 215.489 10.04 217.515 10.04C219.622 10.04 221.449 10.32 222.995 10.88C224.542 11.4133 225.742 12.24 226.595 13.36C227.449 14.4533 227.875 15.8267 227.875 17.48C227.875 19.1333 227.409 20.4533 226.475 21.44C225.542 22.4267 223.969 23.0667 221.755 23.36V23.72L217.515 25.16ZM240.853 37.56C239.573 37.56 238.32 37.4 237.093 37.08C235.867 36.76 234.773 36.2667 233.813 35.6C232.88 34.9067 232.16 34.0133 231.653 32.92C231.147 31.8267 230.973 30.52 231.133 29L237.173 28.36C237.173 29.1333 237.293 29.7733 237.533 30.28C237.773 30.76 238.093 31.1467 238.493 31.44C238.893 31.7067 239.32 31.9067 239.773 32.04C240.227 32.1467 240.653 32.2 241.053 32.2C241.933 32.2 242.693 32.0133 243.333 31.64C243.973 31.24 244.507 30.68 244.933 29.96C245.387 29.24 245.72 28.4133 245.933 27.48C246.147 26.52 246.253 25.48 246.253 24.36C246.253 23.96 246.227 23.5067 246.173 23C246.147 22.4933 246.107 21.9733 246.053 21.44C246 20.9067 245.933 20.3867 245.853 19.88H245.613C245.693 21.32 245.533 22.5067 245.133 23.44C244.76 24.3467 244.227 25.0667 243.533 25.6C242.84 26.1333 242.067 26.5067 241.213 26.72C240.387 26.9333 239.56 27.04 238.733 27.04C237.32 27.04 236 26.7333 234.773 26.12C233.547 25.5067 232.547 24.6 231.773 23.4C231.027 22.2 230.653 20.72 230.653 18.96C230.653 17.9467 230.813 16.92 231.133 15.88C231.48 14.84 232.04 13.88 232.813 13C233.587 12.12 234.627 11.4133 235.933 10.88C237.24 10.32 238.853 10.04 240.773 10.04C243.333 10.04 245.493 10.6 247.253 11.72C249.04 12.8133 250.387 14.4 251.293 16.48C252.2 18.5333 252.653 21 252.653 23.88C252.653 26.9467 252.16 29.4933 251.173 31.52C250.213 33.5467 248.84 35.0667 247.053 36.08C245.293 37.0667 243.227 37.56 240.853 37.56ZM240.813 22.52C241.613 22.52 242.307 22.36 242.893 22.04C243.48 21.72 243.933 21.2667 244.253 20.68C244.573 20.0933 244.733 19.4133 244.733 18.64C244.733 17.9467 244.573 17.3467 244.253 16.84C243.96 16.3333 243.52 15.9333 242.933 15.64C242.373 15.3467 241.707 15.2 240.933 15.2C240.373 15.2 239.853 15.2933 239.373 15.48C238.92 15.64 238.52 15.8933 238.173 16.24C237.853 16.56 237.6 16.9467 237.413 17.4C237.227 17.8267 237.133 18.3067 237.133 18.84C237.133 19.5867 237.28 20.24 237.573 20.8C237.893 21.36 238.32 21.7867 238.853 22.08C239.413 22.3733 240.067 22.52 240.813 22.52ZM265.553 37.56C263.82 37.56 262.286 37.2533 260.953 36.64C259.62 36 258.5 35.0933 257.593 33.92C256.686 32.7467 256.006 31.3333 255.553 29.68C255.1 28 254.873 26.12 254.873 24.04C254.873 21.0533 255.286 18.52 256.113 16.44C256.966 14.36 258.206 12.7733 259.833 11.68C261.46 10.5867 263.446 10.04 265.793 10.04C268.113 10.04 270.06 10.5867 271.633 11.68C273.233 12.7467 274.433 14.32 275.233 16.4C276.06 18.4533 276.473 20.9467 276.473 23.88C276.473 25.9867 276.233 27.88 275.753 29.56C275.3 31.24 274.606 32.68 273.673 33.88C272.766 35.0533 271.633 35.96 270.273 36.6C268.913 37.24 267.34 37.56 265.553 37.56ZM265.753 32.4C266.473 32.4 267.086 32.24 267.593 31.92C268.1 31.5733 268.513 31.0667 268.833 30.4C269.153 29.7067 269.38 28.84 269.513 27.8C269.673 26.76 269.753 25.5467 269.753 24.16C269.753 22.1867 269.606 20.5467 269.313 19.24C269.046 17.9067 268.606 16.9067 267.993 16.24C267.406 15.5733 266.62 15.24 265.633 15.24C264.7 15.24 263.926 15.56 263.313 16.2C262.726 16.84 262.286 17.8 261.993 19.08C261.726 20.36 261.593 21.9733 261.593 23.92C261.593 25.3333 261.673 26.5733 261.833 27.64C261.993 28.68 262.246 29.56 262.593 30.28C262.94 30.9733 263.366 31.5067 263.873 31.88C264.406 32.2267 265.033 32.4 265.753 32.4ZM280.512 28.64C280.352 27.28 280.379 26.1467 280.592 25.24C280.832 24.3333 281.166 23.5867 281.592 23C282.046 22.3867 282.539 21.88 283.072 21.48C283.632 21.08 284.152 20.72 284.632 20.4C285.139 20.0533 285.552 19.6933 285.872 19.32C286.192 18.92 286.352 18.44 286.352 17.88C286.352 17.1867 286.112 16.6667 285.632 16.32C285.152 15.9733 284.539 15.8 283.792 15.8C283.206 15.8 282.566 15.8933 281.872 16.08C281.179 16.2667 280.499 16.52 279.832 16.84C279.166 17.1333 278.552 17.48 277.992 17.88L277.712 11.8C278.406 11.3733 279.112 11.0267 279.832 10.76C280.579 10.4933 281.339 10.2933 282.112 10.16C282.912 10.0267 283.726 9.96 284.552 9.96C285.512 9.96 286.459 10.0667 287.392 10.28C288.352 10.4933 289.219 10.8533 289.992 11.36C290.792 11.8667 291.419 12.5733 291.872 13.48C292.352 14.36 292.592 15.4933 292.592 16.88C292.592 18.1067 292.419 19.1333 292.072 19.96C291.726 20.76 291.272 21.44 290.712 22C290.152 22.5333 289.566 23.0133 288.952 23.44C288.366 23.8667 287.806 24.3067 287.272 24.76C286.766 25.2133 286.366 25.7467 286.072 26.36C285.779 26.9733 285.672 27.7333 285.752 28.64H280.512ZM283.472 37.52C282.112 37.52 281.086 37.2267 280.392 36.64C279.726 36.0533 279.392 35.1467 279.392 33.92C279.392 32.6667 279.726 31.7467 280.392 31.16C281.086 30.5733 282.112 30.28 283.472 30.28C284.859 30.28 285.899 30.5733 286.592 31.16C287.286 31.7467 287.632 32.6667 287.632 33.92C287.632 36.32 286.246 37.52 283.472 37.52ZM295.852 28.6L294.532 10.6H301.612L300.292 28.6H295.852ZM298.332 37.52C296.972 37.52 295.945 37.2267 295.252 36.64C294.585 36.0533 294.252 35.1467 294.252 33.92C294.252 32.6667 294.585 31.7467 295.252 31.16C295.945 30.5733 296.972 30.28 298.332 30.28C299.718 30.28 300.758 30.5733 301.452 31.16C302.145 31.7467 302.492 32.6667 302.492 33.92C302.492 36.32 301.105 37.52 298.332 37.52ZM322.395 41.8C319.595 41.8 317.088 41.4667 314.875 40.8C312.688 40.1333 310.835 39.1333 309.315 37.8C307.795 36.4933 306.635 34.8667 305.835 32.92C305.035 30.9467 304.635 28.6667 304.635 26.08C304.635 23.52 305.035 21.2533 305.835 19.28C306.635 17.3067 307.795 15.6667 309.315 14.36C310.835 13.0267 312.688 12.0267 314.875 11.36C317.088 10.6667 319.595 10.32 322.395 10.32C325.168 10.32 327.648 10.6533 329.835 11.32C332.048 11.9867 333.928 12.9867 335.475 14.32C337.022 15.6533 338.195 17.3067 338.995 19.28C339.822 21.2267 340.235 23.4933 340.235 26.08C340.235 28.6667 339.822 30.9467 338.995 32.92C338.195 34.8933 337.022 36.5333 335.475 37.84C333.928 39.1467 332.048 40.1333 329.835 40.8C327.648 41.4667 325.168 41.8 322.395 41.8ZM322.395 36.8C325.248 36.8 327.608 36.4267 329.475 35.68C331.342 34.9067 332.728 33.7333 333.635 32.16C334.568 30.56 335.035 28.5333 335.035 26.08C335.035 23.6533 334.568 21.6533 333.635 20.08C332.702 18.48 331.302 17.2933 329.435 16.52C327.568 15.72 325.222 15.32 322.395 15.32C319.542 15.32 317.182 15.7067 315.315 16.48C313.475 17.2533 312.102 18.44 311.195 20.04C310.288 21.6133 309.835 23.6267 309.835 26.08C309.835 28.5333 310.288 30.56 311.195 32.16C312.102 33.7333 313.475 34.9067 315.315 35.68C317.182 36.4267 319.542 36.8 322.395 36.8ZM321.555 30.12C321.902 30.12 322.262 30.0667 322.635 29.96C323.035 29.8267 323.408 29.6267 323.755 29.36C324.102 29.0933 324.382 28.72 324.595 28.24C324.835 27.76 324.955 27.16 324.955 26.44V25.56L325.875 25C325.688 25.4 325.355 25.72 324.875 25.96C324.395 26.1733 323.862 26.36 323.275 26.52C322.715 26.6533 322.168 26.8133 321.635 27C321.102 27.16 320.662 27.3867 320.315 27.68C319.968 27.9467 319.795 28.32 319.795 28.8C319.795 29.2533 319.955 29.5867 320.275 29.8C320.622 30.0133 321.048 30.12 321.555 30.12ZM318.995 34.44C318.142 34.44 317.302 34.3067 316.475 34.04C315.648 33.7467 314.968 33.28 314.435 32.64C313.902 31.9733 313.635 31.0933 313.635 30C313.635 28.96 313.862 28.1333 314.315 27.52C314.768 26.88 315.355 26.3867 316.075 26.04C316.795 25.6667 317.568 25.3867 318.395 25.2C319.222 25.0133 319.995 24.8667 320.715 24.76C321.675 24.6 322.475 24.4533 323.115 24.32C323.755 24.1867 324.222 24.0267 324.515 23.84C324.835 23.6267 324.995 23.3467 324.995 23C324.995 22.7867 324.928 22.5867 324.795 22.4C324.688 22.1867 324.488 22.0133 324.195 21.88C323.902 21.7467 323.488 21.68 322.955 21.68C322.475 21.68 321.982 21.76 321.475 21.92C320.995 22.0533 320.595 22.28 320.275 22.6C319.955 22.92 319.822 23.3467 319.875 23.88L314.515 23.64C314.435 22.4667 314.595 21.4667 314.995 20.64C315.422 19.8133 316.022 19.1467 316.795 18.64C317.568 18.1333 318.462 17.76 319.475 17.52C320.488 17.28 321.555 17.16 322.675 17.16C324.222 17.16 325.528 17.3733 326.595 17.8C327.662 18.2267 328.515 18.84 329.155 19.64C329.795 20.4133 330.248 21.36 330.515 22.48C330.808 23.5733 330.955 24.8 330.955 26.16V28.48C330.955 28.9067 330.955 29.4133 330.955 30C330.955 30.56 330.955 31.12 330.955 31.68C330.955 32.24 330.955 32.7067 330.955 33.08C330.955 33.4533 330.955 33.6533 330.955 33.68H325.715C325.688 32.88 325.675 32.0933 325.675 31.32C325.675 30.52 325.662 29.72 325.635 28.92H325.395C325.208 30.0133 324.848 30.9867 324.315 31.84C323.782 32.6667 323.062 33.3067 322.155 33.76C321.275 34.2133 320.222 34.44 318.995 34.44ZM352.177 37L358.617 10.6H364.257L357.857 37H352.177ZM341.697 30.36V25.44H364.177V30.36H341.697ZM342.417 37L348.857 10.6H354.497L348.097 37H342.417ZM342.617 21.16V16.28H365.097V21.16H342.617ZM374.748 11.32L374.108 6.48H379.988L379.308 11.32H374.748ZM374.108 41.28L374.748 36.44H379.308L379.988 41.28H374.108ZM377.428 36.96C375.588 36.96 373.975 36.76 372.588 36.36C371.228 35.96 370.095 35.3733 369.188 34.6C368.281 33.8267 367.615 32.9067 367.188 31.84C366.761 30.7467 366.575 29.5333 366.628 28.2L372.508 26.92C372.561 28.0933 372.815 29.0533 373.268 29.8C373.721 30.52 374.335 31.0533 375.108 31.4C375.881 31.7467 376.761 31.92 377.748 31.92C378.521 31.92 379.215 31.8267 379.828 31.64C380.441 31.4533 380.921 31.1867 381.268 30.84C381.615 30.4933 381.788 30.08 381.788 29.6C381.788 28.9867 381.548 28.48 381.068 28.08C380.588 27.68 379.935 27.3467 379.108 27.08C378.308 26.7867 377.388 26.5067 376.348 26.24C375.228 25.92 374.108 25.5867 372.988 25.24C371.868 24.8667 370.841 24.4 369.908 23.84C369.001 23.2533 368.268 22.52 367.708 21.64C367.148 20.7333 366.868 19.6133 366.868 18.28C366.868 16.6267 367.295 15.2267 368.148 14.08C369.001 12.9333 370.175 12.0667 371.668 11.48C373.188 10.8667 374.908 10.56 376.828 10.56C378.881 10.56 380.695 10.9067 382.268 11.6C383.868 12.2667 385.095 13.2533 385.948 14.56C386.828 15.8667 387.175 17.4667 386.988 19.36L381.188 20.28C381.215 19.5067 381.135 18.8267 380.948 18.24C380.788 17.6533 380.508 17.16 380.108 16.76C379.735 16.3333 379.255 16.0133 378.668 15.8C378.081 15.5867 377.401 15.48 376.628 15.48C375.828 15.48 375.161 15.5867 374.628 15.8C374.095 16.0133 373.681 16.3067 373.388 16.68C373.121 17.0267 372.988 17.4133 372.988 17.84C372.988 18.4 373.201 18.8667 373.628 19.24C374.055 19.5867 374.655 19.8933 375.428 20.16C376.201 20.4267 377.135 20.6933 378.228 20.96C379.348 21.2533 380.468 21.6 381.588 22C382.735 22.3733 383.788 22.8667 384.748 23.48C385.735 24.0667 386.521 24.84 387.108 25.8C387.695 26.7333 387.988 27.92 387.988 29.36C387.988 31.0667 387.535 32.48 386.628 33.6C385.721 34.72 384.468 35.56 382.868 36.12C381.295 36.68 379.481 36.96 377.428 36.96ZM397.076 24.28C395.556 24.28 394.196 24.0133 392.996 23.48C391.822 22.92 390.902 22.08 390.236 20.96C389.569 19.8133 389.236 18.3733 389.236 16.64C389.236 15.12 389.462 13.8533 389.916 12.84C390.396 11.8267 391.022 11.0267 391.796 10.44C392.596 9.85333 393.462 9.44 394.396 9.2C395.356 8.93333 396.329 8.8 397.316 8.8C398.862 8.8 400.222 9.08 401.396 9.64C402.596 10.1733 403.529 11.0133 404.196 12.16C404.889 13.28 405.236 14.72 405.236 16.48C405.236 18.4533 404.836 20.0133 404.036 21.16C403.236 22.3067 402.209 23.12 400.956 23.6C399.729 24.0533 398.436 24.28 397.076 24.28ZM397.316 19.56C397.822 19.56 398.276 19.48 398.676 19.32C399.076 19.1333 399.396 18.84 399.636 18.44C399.902 18.0133 400.036 17.4267 400.036 16.68C400.036 15.9067 399.902 15.2933 399.636 14.84C399.396 14.3867 399.062 14.0533 398.636 13.84C398.209 13.6267 397.716 13.52 397.156 13.52C396.676 13.52 396.222 13.6133 395.796 13.8C395.369 13.9867 395.022 14.2933 394.756 14.72C394.516 15.12 394.396 15.6933 394.396 16.44C394.396 17.1867 394.529 17.8 394.796 18.28C395.062 18.7333 395.409 19.0667 395.836 19.28C396.289 19.4667 396.782 19.56 397.316 19.56ZM417.876 38.92C416.356 38.92 414.996 38.64 413.796 38.08C412.622 37.5467 411.702 36.72 411.036 35.6C410.369 34.4533 410.036 33.0133 410.036 31.28C410.036 29.76 410.262 28.4933 410.716 27.48C411.196 26.4667 411.822 25.6667 412.596 25.08C413.396 24.4933 414.262 24.08 415.196 23.84C416.156 23.5733 417.129 23.44 418.116 23.44C419.662 23.44 421.022 23.72 422.196 24.28C423.396 24.8133 424.329 25.6533 424.996 26.8C425.689 27.92 426.036 29.36 426.036 31.12C426.036 33.0933 425.636 34.6533 424.836 35.8C424.036 36.9467 423.009 37.7467 421.756 38.2C420.529 38.68 419.236 38.92 417.876 38.92ZM418.116 34.2C418.622 34.2 419.076 34.12 419.476 33.96C419.876 33.7733 420.196 33.48 420.436 33.08C420.702 32.6533 420.836 32.0667 420.836 31.32C420.836 30.5467 420.702 29.9333 420.436 29.48C420.196 29.0267 419.862 28.6933 419.436 28.48C419.009 28.2667 418.516 28.16 417.956 28.16C417.476 28.16 417.022 28.2533 416.596 28.44C416.169 28.6267 415.822 28.9333 415.556 29.36C415.316 29.76 415.196 30.3333 415.196 31.08C415.196 31.8267 415.329 32.44 415.596 32.92C415.862 33.3733 416.209 33.7067 416.636 33.92C417.089 34.1067 417.582 34.2 418.116 34.2ZM396.756 37L412.356 10.6H418.596L402.996 37H396.756ZM426.725 26L433.085 10.76H441.325L447.685 26H441.205L437.405 16.12H437.245L433.605 26H426.725ZM469.456 37.6C468.016 37.6 466.603 37.2667 465.216 36.6C463.83 35.9333 462.496 35.04 461.216 33.92C459.963 32.8 458.803 31.5333 457.736 30.12C456.696 28.7067 455.776 27.24 454.976 25.72C454.203 24.2 453.603 22.72 453.176 21.28C452.75 19.84 452.536 18.5333 452.536 17.36C452.536 16.0533 452.816 14.8533 453.376 13.76C453.963 12.64 454.856 11.7333 456.056 11.04C457.283 10.3467 458.843 10 460.736 10C462.523 10 463.99 10.3067 465.136 10.92C466.283 11.5067 467.136 12.2667 467.696 13.2C468.283 14.1067 468.576 15.0533 468.576 16.04C468.576 17.1067 468.256 18.1333 467.616 19.12C466.976 20.1067 466.043 21 464.816 21.8C463.59 22.5733 462.083 23.2 460.296 23.68L459.456 21.52C460.416 20.88 461.203 20.1867 461.816 19.44C462.456 18.6933 462.776 17.88 462.776 17C462.776 16.4667 462.63 16.0133 462.336 15.64C462.07 15.24 461.603 15.04 460.936 15.04C460.483 15.04 460.11 15.1467 459.816 15.36C459.523 15.5733 459.31 15.8533 459.176 16.2C459.07 16.52 459.016 16.8667 459.016 17.24C459.016 17.8533 459.163 18.6533 459.456 19.64C459.776 20.6 460.19 21.6533 460.696 22.8C461.23 23.92 461.83 25.04 462.496 26.16C463.163 27.28 463.856 28.3067 464.576 29.24C465.296 30.1467 466.016 30.88 466.736 31.44C467.456 32 468.123 32.28 468.736 32.28C469.19 32.28 469.51 32.1467 469.696 31.88C469.883 31.5867 469.976 31.28 469.976 30.96C469.976 30.5067 469.79 30.0133 469.416 29.48C469.043 28.92 468.443 28.4133 467.616 27.96C466.79 27.5067 465.683 27.24 464.296 27.16V22.84H474.336V27.48L467.536 26.44V26.8C470.043 27.2533 471.95 27.9333 473.256 28.84C474.59 29.72 475.256 31.0267 475.256 32.76C475.256 33.7733 475.056 34.6 474.656 35.24C474.256 35.88 473.75 36.3733 473.136 36.72C472.523 37.0667 471.883 37.2933 471.216 37.4C470.55 37.5333 469.963 37.6 469.456 37.6ZM454.976 37.6C453.696 37.6 452.55 37.36 451.536 36.88C450.523 36.4 449.723 35.7067 449.136 34.8C448.576 33.8667 448.296 32.7333 448.296 31.4C448.296 30.2 448.51 29.16 448.936 28.28C449.39 27.4 449.95 26.6667 450.616 26.08C451.283 25.4667 451.963 24.9867 452.656 24.64C453.376 24.2667 454.003 24 454.536 23.84L455.656 25.96C455.283 26.4667 454.976 27.04 454.736 27.68C454.496 28.2933 454.376 28.9067 454.376 29.52C454.376 30.3733 454.59 31.12 455.016 31.76C455.47 32.3733 456.056 32.8533 456.776 33.2C457.496 33.52 458.27 33.68 459.096 33.68C459.47 33.68 459.79 33.64 460.056 33.56C460.323 33.4533 460.603 33.3067 460.896 33.12L461.336 33.88H461.016C460.776 34.6267 460.376 35.28 459.816 35.84C459.283 36.4 458.603 36.8267 457.776 37.12C456.976 37.44 456.043 37.6 454.976 37.6ZM482.427 25.76L477.507 22.2L481.907 18.32V18.2L476.027 17.6L477.867 11.84L482.867 14.76H483.067L481.827 9H487.867L486.627 14.76H486.827L491.827 11.84L493.667 17.6L487.827 18.16V18.32L492.147 22.2L487.267 25.76L484.907 20.36H484.787L482.427 25.76ZM505.671 9C505.031 10.0933 504.444 11.3467 503.911 12.76C503.404 14.1467 502.978 15.6 502.631 17.12C502.284 18.6133 502.018 20.08 501.831 21.52C501.644 22.96 501.551 24.2667 501.551 25.44C501.551 27.0133 501.711 28.7733 502.031 30.72C502.351 32.6667 502.818 34.6 503.431 36.52C504.071 38.44 504.818 40.16 505.671 41.68H498.831C497.871 39.92 497.111 38.0667 496.551 36.12C495.991 34.1467 495.591 32.24 495.351 30.4C495.111 28.5333 494.991 26.88 494.991 25.44C494.991 24 495.111 22.3333 495.351 20.44C495.591 18.5467 495.991 16.6 496.551 14.6C497.111 12.6 497.871 10.7333 498.831 9H505.671ZM506.574 9H513.414C514.374 10.7333 515.134 12.6 515.694 14.6C516.254 16.6 516.654 18.5467 516.894 20.44C517.134 22.3333 517.254 24 517.254 25.44C517.254 26.88 517.134 28.5333 516.894 30.4C516.654 32.24 516.254 34.1467 515.694 36.12C515.134 38.0667 514.374 39.92 513.414 41.68H506.574C507.454 40.16 508.201 38.44 508.814 36.52C509.427 34.6 509.894 32.6667 510.214 30.72C510.534 28.7733 510.694 27.0133 510.694 25.44C510.694 24.2667 510.601 22.96 510.414 21.52C510.227 20.08 509.961 18.6133 509.614 17.12C509.267 15.6 508.827 14.1467 508.294 12.76C507.787 11.3467 507.214 10.0933 506.574 9ZM518.363 44.04V38.36H539.443V44.04H518.363ZM546.577 32.24V15.4H551.777V32.24H546.577ZM541.057 26.32V21.28H557.297V26.32H541.057Z" fill="white"/>
<path d="M85.1669 91V69.36H81.4469V67.28C82.5669 67.28 83.5402 67.12 84.3669 66.8C85.1935 66.4533 85.7269 65.72 85.9669 64.6H87.4469V91H85.1669ZM93.3388 91V87.76L102.179 80.32C102.845 79.76 103.512 79.16 104.179 78.52C104.872 77.8533 105.512 77.1467 106.099 76.4C106.712 75.6267 107.205 74.8133 107.579 73.96C107.979 73.1067 108.179 72.2 108.179 71.24C108.179 70.2533 107.952 69.3867 107.499 68.64C107.045 67.8933 106.365 67.3067 105.459 66.88C104.579 66.4533 103.472 66.24 102.139 66.24C101.392 66.24 100.632 66.3333 99.8588 66.52C99.1121 66.7067 98.4321 67.0667 97.8188 67.6C97.2321 68.1333 96.7654 68.8933 96.4188 69.88C96.0988 70.8667 95.9521 72.16 95.9788 73.76L93.7788 73.48C93.7254 71.6133 93.9788 69.9733 94.5388 68.56C95.1254 67.1467 96.0454 66.0533 97.2988 65.28C98.5521 64.48 100.179 64.08 102.179 64.08C103.885 64.08 105.352 64.3733 106.579 64.96C107.805 65.5467 108.752 66.36 109.419 67.4C110.085 68.44 110.419 69.6533 110.419 71.04C110.419 72.2667 110.205 73.4 109.779 74.44C109.379 75.48 108.859 76.44 108.219 77.32C107.579 78.2 106.885 79 106.139 79.72C105.392 80.44 104.672 81.08 103.979 81.64L95.5788 88.64V88.96L111.259 88.84V91H93.3388ZM123.735 91.56C122.188 91.56 120.855 91.3733 119.735 91C118.615 90.6267 117.681 90.1067 116.935 89.44C116.188 88.7467 115.628 87.9333 115.255 87C114.881 86.04 114.681 85 114.655 83.88L116.855 83.28C116.881 84.5867 117.121 85.64 117.575 86.44C118.028 87.24 118.601 87.8533 119.295 88.28C120.015 88.7067 120.761 89 121.535 89.16C122.308 89.32 123.028 89.4 123.695 89.4C125.081 89.4 126.348 89.2267 127.495 88.88C128.668 88.5067 129.601 87.9067 130.295 87.08C131.015 86.2533 131.375 85.16 131.375 83.8C131.375 82.0667 130.895 80.7333 129.935 79.8C128.975 78.8667 127.668 78.2133 126.015 77.84C124.388 77.44 122.535 77.2267 120.455 77.2V75.4L130.015 66.96V66.68L115.535 66.72V64.6H132.255V67.56L123.495 75.28V75.52C125.868 75.6 127.801 75.9867 129.295 76.68C130.788 77.3733 131.881 78.3067 132.575 79.48C133.295 80.6533 133.655 82.0267 133.655 83.6C133.655 85.1733 133.281 86.56 132.535 87.76C131.788 88.96 130.681 89.8933 129.215 90.56C127.748 91.2267 125.921 91.56 123.735 91.56ZM138.395 84.84V81.64C139.595 80.5467 140.795 79.32 141.995 77.96C143.195 76.6 144.329 75.1733 145.395 73.68C146.489 72.16 147.475 70.6267 148.355 69.08C149.262 67.5333 150.009 66.0267 150.595 64.56H154.595V91H152.355V66.68H152.035C151.049 68.8933 149.929 70.9467 148.675 72.84C147.449 74.7333 146.155 76.4667 144.795 78.04C143.435 79.6133 142.062 81.0533 140.675 82.36V82.72H157.715V84.84H138.395ZM170.975 91.56C169.189 91.56 167.655 91.28 166.375 90.72C165.095 90.1333 164.109 89.32 163.415 88.28C162.749 87.2133 162.389 85.9733 162.335 84.56L164.375 83.88C164.509 85.5867 165.069 86.9333 166.055 87.92C167.042 88.88 168.642 89.36 170.855 89.36C173.149 89.36 174.922 88.7867 176.175 87.64C177.429 86.4667 178.055 84.6 178.055 82.04C178.055 81.1867 177.962 80.36 177.775 79.56C177.615 78.7333 177.322 78 176.895 77.36C176.469 76.6933 175.882 76.16 175.135 75.76C174.389 75.36 173.442 75.16 172.295 75.16C171.229 75.16 170.309 75.2933 169.535 75.56C168.789 75.8267 168.175 76.1867 167.695 76.64C167.215 77.0667 166.842 77.5467 166.575 78.08C166.309 78.5867 166.122 79.08 166.015 79.56H163.015L163.775 64.6H179.095V66.72H165.855L165.175 77.44H165.695C166.229 75.7333 167.135 74.56 168.415 73.92C169.695 73.2533 171.042 72.92 172.455 72.92C174.295 72.92 175.789 73.3067 176.935 74.08C178.109 74.8533 178.975 75.92 179.535 77.28C180.095 78.64 180.375 80.2133 180.375 82C180.375 84.32 179.949 86.1867 179.095 87.6C178.269 88.9867 177.149 90 175.735 90.64C174.322 91.2533 172.735 91.56 170.975 91.56ZM196.457 91.56C193.203 91.56 190.617 90.4533 188.697 88.24C186.777 86 185.817 82.6267 185.817 78.12C185.817 75.4 186.19 72.9867 186.937 70.88C187.683 68.7733 188.817 67.12 190.337 65.92C191.857 64.6933 193.79 64.08 196.137 64.08C197.31 64.08 198.39 64.2533 199.377 64.6C200.363 64.92 201.217 65.4133 201.937 66.08C202.683 66.72 203.283 67.52 203.737 68.48C204.217 69.44 204.51 70.5467 204.617 71.8L202.417 72.32C202.283 70.96 201.937 69.84 201.377 68.96C200.843 68.0533 200.137 67.3733 199.257 66.92C198.377 66.4667 197.35 66.24 196.177 66.24C194.683 66.24 193.403 66.5867 192.337 67.28C191.297 67.9467 190.457 68.8667 189.817 70.04C189.177 71.2133 188.71 72.5333 188.417 74C188.123 75.4667 187.977 77 187.977 78.6C187.977 79.6667 188.057 80.7733 188.217 81.92C188.377 83.04 188.617 84.0933 188.937 85.08H189.297C189.137 83.32 189.243 81.8 189.617 80.52C190.017 79.24 190.59 78.2 191.337 77.4C192.11 76.5733 193.003 75.96 194.017 75.56C195.057 75.16 196.15 74.96 197.297 74.96C198.737 74.96 200.07 75.2667 201.297 75.88C202.523 76.4933 203.51 77.4 204.257 78.6C205.03 79.8 205.417 81.3067 205.417 83.12C205.417 84.2933 205.23 85.4 204.857 86.44C204.483 87.4533 203.923 88.3467 203.177 89.12C202.43 89.8933 201.497 90.4933 200.377 90.92C199.257 91.3467 197.95 91.56 196.457 91.56ZM196.177 89.44C197.537 89.44 198.657 89.2533 199.537 88.88C200.443 88.48 201.15 87.9733 201.657 87.36C202.19 86.72 202.563 86.0267 202.777 85.28C202.99 84.5333 203.097 83.7867 203.097 83.04C203.097 81.6 202.79 80.44 202.177 79.56C201.59 78.68 200.843 78.04 199.937 77.64C199.03 77.24 198.083 77.04 197.097 77.04C195.737 77.04 194.563 77.3333 193.577 77.92C192.617 78.5067 191.87 79.3333 191.337 80.4C190.803 81.44 190.537 82.6667 190.537 84.08C190.537 85.2 190.697 86.1067 191.017 86.8C191.363 87.4933 191.817 88.04 192.377 88.44C192.937 88.8133 193.537 89.08 194.177 89.24C194.843 89.3733 195.51 89.44 196.177 89.44ZM213.745 91C213.745 89 213.905 86.9067 214.225 84.72C214.572 82.5067 215.105 80.32 215.825 78.16C216.545 75.9733 217.465 73.92 218.585 72C219.732 70.08 221.092 68.4 222.665 66.96V66.64L208.905 66.76V64.6H224.985V67.28C223.465 68.7733 222.145 70.3867 221.025 72.12C219.905 73.8533 218.972 75.7067 218.225 77.68C217.505 79.6267 216.958 81.72 216.585 83.96C216.212 86.1733 216.025 88.52 216.025 91H213.745ZM238.78 91.56C236.806 91.56 235.06 91.2933 233.54 90.76C232.046 90.2267 230.873 89.44 230.02 88.4C229.193 87.3333 228.78 86.04 228.78 84.52C228.78 83.2133 229.073 82.1067 229.66 81.2C230.246 80.2933 231.02 79.56 231.98 79C232.94 78.44 233.993 78.0533 235.14 77.84V77.64L238.78 77.32L242.34 77.56V77.8C243.433 77.9067 244.46 78.24 245.42 78.8C246.406 79.3333 247.206 80.08 247.82 81.04C248.46 81.9733 248.78 83.1333 248.78 84.52C248.78 86.04 248.353 87.3333 247.5 88.4C246.673 89.44 245.5 90.2267 243.98 90.76C242.486 91.2933 240.753 91.56 238.78 91.56ZM238.82 89.28C239.566 89.28 240.38 89.2133 241.26 89.08C242.14 88.9467 242.98 88.72 243.78 88.4C244.58 88.0533 245.233 87.5733 245.74 86.96C246.246 86.3467 246.5 85.5733 246.5 84.64C246.5 83.44 246.1 82.4 245.3 81.52C244.526 80.6133 243.553 79.92 242.38 79.44C241.206 78.9333 240.006 78.68 238.78 78.68C237.58 78.68 236.38 78.92 235.18 79.4C234.006 79.88 233.033 80.56 232.26 81.44C231.486 82.2933 231.1 83.3333 231.1 84.56C231.1 85.4667 231.34 86.2267 231.82 86.84C232.326 87.4533 232.966 87.9467 233.74 88.32C234.54 88.6667 235.38 88.92 236.26 89.08C237.166 89.2133 238.02 89.28 238.82 89.28ZM238.74 76.44C239.78 76.44 240.82 76.2267 241.86 75.8C242.9 75.3467 243.766 74.72 244.46 73.92C245.18 73.0933 245.54 72.1067 245.54 70.96C245.54 70.1067 245.313 69.3867 244.86 68.8C244.433 68.2133 243.873 67.7333 243.18 67.36C242.486 66.9867 241.726 66.72 240.9 66.56C240.1 66.4 239.313 66.32 238.54 66.32C237.553 66.32 236.54 66.4667 235.5 66.76C234.46 67.0533 233.593 67.5333 232.9 68.2C232.206 68.84 231.86 69.72 231.86 70.84C231.86 71.9867 232.193 72.9867 232.86 73.84C233.553 74.6667 234.433 75.3067 235.5 75.76C236.566 76.2133 237.646 76.44 238.74 76.44ZM238.78 78.24L235.14 77.96V77.28C234.18 77.0667 233.273 76.7067 232.42 76.2C231.593 75.6933 230.913 75.0133 230.38 74.16C229.846 73.3067 229.58 72.2533 229.58 71C229.58 69.5067 229.966 68.2533 230.74 67.24C231.54 66.2 232.62 65.4133 233.98 64.88C235.366 64.3467 236.953 64.08 238.74 64.08C240.66 64.08 242.286 64.3733 243.62 64.96C244.98 65.52 246.006 66.32 246.7 67.36C247.42 68.4 247.78 69.6267 247.78 71.04C247.78 72.7467 247.286 74.12 246.3 75.16C245.313 76.2 243.993 76.9067 242.34 77.28V77.88L238.78 78.24ZM263.335 91.56C262.082 91.56 260.948 91.4133 259.935 91.12C258.922 90.8267 258.028 90.3867 257.255 89.8C256.508 89.1867 255.882 88.4533 255.375 87.6C254.895 86.7467 254.548 85.76 254.335 84.64L256.495 84.04C256.708 85.1067 257.042 85.9867 257.495 86.68C257.975 87.3467 258.522 87.88 259.135 88.28C259.775 88.6533 260.455 88.9333 261.175 89.12C261.895 89.28 262.628 89.36 263.375 89.36C264.895 89.36 266.162 89.0667 267.175 88.48C268.215 87.8933 269.042 87.08 269.655 86.04C270.268 85 270.695 83.8133 270.935 82.48C271.202 81.1467 271.335 79.7467 271.335 78.28C271.335 77.2667 271.282 76.32 271.175 75.44C271.095 74.5333 270.975 73.68 270.815 72.88C270.682 72.0533 270.522 71.2667 270.335 70.52H269.815C270.055 72.2 270.002 73.68 269.655 74.96C269.335 76.2133 268.802 77.2667 268.055 78.12C267.308 78.9467 266.415 79.5733 265.375 80C264.362 80.4267 263.282 80.64 262.135 80.64C260.695 80.64 259.362 80.32 258.135 79.68C256.935 79.0133 255.962 78.0667 255.215 76.84C254.495 75.6133 254.135 74.1467 254.135 72.44C254.135 71.2667 254.322 70.1733 254.695 69.16C255.068 68.1467 255.615 67.2667 256.335 66.52C257.082 65.7467 257.988 65.1467 259.055 64.72C260.148 64.2933 261.402 64.08 262.815 64.08C265.002 64.08 266.882 64.6267 268.455 65.72C270.055 66.7867 271.282 68.3867 272.135 70.52C273.015 72.6267 273.455 75.2667 273.455 78.44C273.455 81 273.122 83.2667 272.455 85.24C271.815 87.2133 270.748 88.76 269.255 89.88C267.788 91 265.815 91.56 263.335 91.56ZM262.415 78.6C263.668 78.6 264.762 78.3067 265.695 77.72C266.655 77.1333 267.388 76.3067 267.895 75.24C268.428 74.1733 268.695 72.9333 268.695 71.52C268.695 70.0533 268.415 68.9333 267.855 68.16C267.322 67.3867 266.628 66.8667 265.775 66.6C264.948 66.3067 264.068 66.16 263.135 66.16C261.828 66.16 260.735 66.36 259.855 66.76C258.975 67.1333 258.282 67.64 257.775 68.28C257.295 68.8933 256.948 69.5733 256.735 70.32C256.522 71.04 256.415 71.76 256.415 72.48C256.415 73.8667 256.695 75.0133 257.255 75.92C257.842 76.8267 258.588 77.5067 259.495 77.96C260.428 78.3867 261.402 78.6 262.415 78.6ZM289.489 91.56C287.969 91.56 286.583 91.2267 285.329 90.56C284.103 89.8933 283.049 88.96 282.169 87.76C281.289 86.5333 280.609 85.0933 280.129 83.44C279.676 81.7867 279.449 79.96 279.449 77.96C279.449 75.1333 279.863 72.68 280.689 70.6C281.543 68.52 282.716 66.92 284.209 65.8C285.729 64.6533 287.489 64.08 289.489 64.08C291.596 64.08 293.383 64.6933 294.849 65.92C296.343 67.12 297.476 68.7733 298.249 70.88C299.023 72.96 299.409 75.3333 299.409 78C299.409 79.92 299.196 81.7067 298.769 83.36C298.343 84.9867 297.689 86.4267 296.809 87.68C295.956 88.9067 294.916 89.8667 293.689 90.56C292.463 91.2267 291.063 91.56 289.489 91.56ZM289.409 89.36C290.583 89.36 291.636 89.1067 292.569 88.6C293.529 88.0667 294.343 87.3067 295.009 86.32C295.703 85.3067 296.236 84.08 296.609 82.64C296.983 81.1733 297.169 79.5067 297.169 77.64C297.169 75.32 296.849 73.3067 296.209 71.6C295.596 69.8933 294.716 68.5733 293.569 67.64C292.423 66.7067 291.063 66.24 289.489 66.24C288.049 66.24 286.729 66.6667 285.529 67.52C284.356 68.3733 283.409 69.6533 282.689 71.36C281.996 73.0667 281.649 75.2133 281.649 77.8C281.649 79.6133 281.836 81.24 282.209 82.68C282.583 84.0933 283.103 85.3067 283.769 86.32C284.463 87.3067 285.276 88.0667 286.209 88.6C287.169 89.1067 288.236 89.36 289.409 89.36ZM306.843 85.24C306.683 83.5867 306.749 82.2133 307.043 81.12C307.336 80.0267 307.763 79.12 308.323 78.4C308.883 77.6533 309.496 77.0133 310.163 76.48C310.856 75.9467 311.509 75.4267 312.123 74.92C312.763 74.4133 313.283 73.8533 313.683 73.24C314.083 72.6 314.283 71.8133 314.283 70.88C314.283 69.3867 313.776 68.2533 312.763 67.48C311.749 66.68 310.563 66.28 309.203 66.28C308.536 66.28 307.856 66.3867 307.163 66.6C306.469 66.8133 305.789 67.16 305.123 67.64C304.483 68.0933 303.869 68.7067 303.283 69.48L302.803 67.36C303.309 66.6667 303.883 66.08 304.523 65.6C305.189 65.12 305.909 64.76 306.683 64.52C307.483 64.2533 308.336 64.12 309.243 64.12C310.203 64.12 311.123 64.2667 312.003 64.56C312.909 64.8533 313.696 65.2933 314.363 65.88C315.056 66.44 315.603 67.1467 316.003 68C316.403 68.8533 316.603 69.8267 316.603 70.92C316.603 72.0667 316.389 73.0133 315.963 73.76C315.563 74.5067 315.043 75.1467 314.403 75.68C313.763 76.2133 313.083 76.7333 312.363 77.24C311.669 77.7467 311.029 78.3333 310.443 79C309.856 79.64 309.403 80.4667 309.083 81.48C308.789 82.4667 308.709 83.72 308.843 85.24H306.843ZM307.963 91.44C307.376 91.44 306.923 91.3067 306.603 91.04C306.309 90.7733 306.163 90.3467 306.163 89.76C306.163 89.1467 306.309 88.7067 306.603 88.44C306.923 88.1733 307.376 88.04 307.963 88.04C308.576 88.04 309.029 88.1733 309.323 88.44C309.643 88.7067 309.803 89.1467 309.803 89.76C309.803 90.88 309.189 91.44 307.963 91.44ZM321.778 85.24L320.978 64.56H324.018L323.218 85.24H321.778ZM322.458 91.44C321.872 91.44 321.418 91.3067 321.098 91.04C320.805 90.7733 320.658 90.3467 320.658 89.76C320.658 89.1467 320.805 88.7067 321.098 88.44C321.418 88.1733 321.872 88.04 322.458 88.04C323.072 88.04 323.525 88.1733 323.818 88.44C324.138 88.7067 324.298 89.1467 324.298 89.76C324.298 90.88 323.685 91.44 322.458 91.44ZM345.117 94.36C342.797 94.36 340.717 94.0533 338.877 93.44C337.037 92.8267 335.477 91.92 334.197 90.72C332.917 89.52 331.931 88.04 331.237 86.28C330.571 84.4933 330.237 82.4267 330.237 80.08C330.237 77.7333 330.571 75.6667 331.237 73.88C331.904 72.0933 332.877 70.6 334.157 69.4C335.464 68.1733 337.037 67.2533 338.877 66.64C340.717 66.0267 342.797 65.72 345.117 65.72C347.437 65.72 349.517 66.0267 351.357 66.64C353.197 67.2533 354.757 68.1733 356.037 69.4C357.317 70.6 358.291 72.0933 358.957 73.88C359.651 75.6667 359.997 77.7333 359.997 80.08C359.997 82.4267 359.651 84.4933 358.957 86.28C358.291 88.04 357.304 89.52 355.997 90.72C354.717 91.92 353.157 92.8267 351.317 93.44C349.504 94.0533 347.437 94.36 345.117 94.36ZM345.117 92.36C347.811 92.36 350.091 91.9067 351.957 91C353.851 90.0933 355.291 88.7333 356.277 86.92C357.291 85.1067 357.797 82.8267 357.797 80.08C357.797 77.3333 357.304 75.0533 356.317 73.24C355.331 71.4 353.891 70.0267 351.997 69.12C350.104 68.1867 347.811 67.72 345.117 67.72C342.424 67.72 340.131 68.1867 338.237 69.12C336.344 70.0267 334.904 71.4 333.917 73.24C332.931 75.0533 332.437 77.3333 332.437 80.08C332.437 82.8267 332.931 85.1067 333.917 86.92C334.904 88.7333 336.344 90.0933 338.237 91C340.131 91.9067 342.424 92.36 345.117 92.36ZM343.277 86C343.757 86 344.251 85.9333 344.757 85.8C345.291 85.64 345.797 85.3867 346.277 85.04C346.757 84.6933 347.224 84.24 347.677 83.68C348.157 83.12 348.584 82.44 348.957 81.64L348.997 78.4L349.957 78.56C349.557 78.96 348.971 79.2533 348.197 79.44C347.424 79.6 346.584 79.7467 345.677 79.88C344.797 79.9867 343.944 80.1467 343.117 80.36C342.317 80.5733 341.651 80.9067 341.117 81.36C340.584 81.8133 340.317 82.48 340.317 83.36C340.317 84.2133 340.597 84.8667 341.157 85.32C341.717 85.7733 342.424 86 343.277 86ZM342.797 87.96C341.917 87.96 341.117 87.8 340.397 87.48C339.704 87.16 339.144 86.6667 338.717 86C338.291 85.3333 338.077 84.52 338.077 83.56C338.077 82.52 338.291 81.68 338.717 81.04C339.144 80.4 339.717 79.9067 340.437 79.56C341.157 79.1867 341.957 78.92 342.837 78.76C343.717 78.5733 344.584 78.4267 345.437 78.32C346.317 78.2133 347.011 78.0933 347.517 77.96C348.051 77.8267 348.424 77.64 348.637 77.4C348.851 77.1333 348.957 76.7867 348.957 76.36C348.957 75.88 348.811 75.4267 348.517 75C348.251 74.5733 347.851 74.2267 347.317 73.96C346.811 73.6933 346.144 73.56 345.317 73.56C344.677 73.56 344.011 73.6667 343.317 73.88C342.651 74.0933 342.064 74.4667 341.557 75C341.077 75.5067 340.784 76.2267 340.677 77.16L338.477 76.4C338.611 75.7067 338.851 75.0667 339.197 74.48C339.544 73.8667 339.997 73.3467 340.557 72.92C341.144 72.4933 341.824 72.16 342.597 71.92C343.397 71.68 344.291 71.56 345.277 71.56C346.717 71.56 347.837 71.7867 348.637 72.24C349.437 72.6667 350.011 73.2 350.357 73.84C350.731 74.48 350.957 75.1333 351.037 75.8C351.144 76.44 351.197 77 351.197 77.48V81.2C351.224 81.7333 351.237 82.2667 351.237 82.8C351.264 83.3333 351.291 83.88 351.317 84.44C351.344 85 351.384 85.5467 351.437 86.08C351.491 86.5867 351.531 87.08 351.557 87.56H349.437C349.384 86.7867 349.344 86.08 349.317 85.44C349.291 84.7733 349.264 84.1467 349.237 83.56H348.837C348.491 84.4133 348.037 85.1733 347.477 85.84C346.944 86.5067 346.277 87.0267 345.477 87.4C344.704 87.7733 343.811 87.96 342.797 87.96ZM376.133 91L380.973 64.6H383.213L378.333 91H376.133ZM364.333 82.36V80.24H384.693V82.36H364.333ZM366.813 91L371.733 64.6H373.973L369.053 91H366.813ZM365.253 73.96V71.84H385.613V73.96H365.253ZM398.046 65L397.446 59.72H400.286L399.646 65H398.046ZM397.446 96.04L398.046 90.76H399.646L400.286 96.04H397.446ZM398.926 91.08C397.219 91.08 395.726 90.8933 394.446 90.52C393.166 90.12 392.112 89.56 391.286 88.84C390.486 88.0933 389.899 87.1867 389.526 86.12C389.179 85.0267 389.099 83.7733 389.286 82.36L391.366 82.2C391.152 83.72 391.326 84.9733 391.886 85.96C392.472 86.9467 393.366 87.6933 394.566 88.2C395.792 88.68 397.259 88.92 398.966 88.92C400.619 88.92 402.006 88.72 403.126 88.32C404.272 87.92 405.139 87.3467 405.726 86.6C406.339 85.8533 406.646 84.9733 406.646 83.96C406.646 82.84 406.312 81.9733 405.646 81.36C404.979 80.7467 404.099 80.28 403.006 79.96C401.939 79.64 400.779 79.3467 399.526 79.08C398.352 78.84 397.192 78.5733 396.046 78.28C394.899 77.96 393.846 77.5467 392.886 77.04C391.926 76.5067 391.152 75.8267 390.566 75C390.006 74.1467 389.726 73.0667 389.726 71.76C389.726 70.2667 390.099 68.9867 390.846 67.92C391.619 66.8267 392.659 65.9867 393.966 65.4C395.299 64.8133 396.819 64.52 398.526 64.52C400.232 64.52 401.792 64.8 403.206 65.36C404.619 65.92 405.752 66.7867 406.606 67.96C407.486 69.1067 407.939 70.56 407.966 72.32L405.726 72.72C405.726 71.7067 405.552 70.8133 405.206 70.04C404.859 69.2667 404.352 68.6267 403.686 68.12C403.046 67.6133 402.286 67.24 401.406 67C400.526 66.7333 399.552 66.6 398.486 66.6C397.232 66.6 396.112 66.8133 395.126 67.24C394.139 67.64 393.352 68.2133 392.766 68.96C392.206 69.7067 391.926 70.6 391.926 71.64C391.926 72.84 392.326 73.7867 393.126 74.48C393.926 75.1467 394.952 75.6667 396.206 76.04C397.486 76.3867 398.832 76.7067 400.246 77C401.366 77.24 402.432 77.52 403.446 77.84C404.486 78.1333 405.406 78.5333 406.206 79.04C407.032 79.5467 407.672 80.2133 408.126 81.04C408.606 81.84 408.846 82.8533 408.846 84.08C408.846 85.4667 408.472 86.6933 407.726 87.76C407.006 88.8 405.912 89.6133 404.446 90.2C402.979 90.7867 401.139 91.08 398.926 91.08ZM419.697 79.04C418.444 79.04 417.284 78.76 416.217 78.2C415.15 77.6133 414.297 76.76 413.657 75.64C413.044 74.52 412.737 73.1733 412.737 71.6C412.737 70.4 412.91 69.3467 413.257 68.44C413.63 67.5067 414.137 66.7333 414.777 66.12C415.417 65.5067 416.15 65.04 416.977 64.72C417.83 64.4 418.724 64.24 419.657 64.24C420.91 64.24 422.057 64.5333 423.097 65.12C424.164 65.68 425.004 66.52 425.617 67.64C426.257 68.7333 426.577 70.0933 426.577 71.72C426.577 73.3733 426.244 74.7467 425.577 75.84C424.937 76.9067 424.097 77.7067 423.057 78.24C422.017 78.7733 420.897 79.04 419.697 79.04ZM419.817 76.92C420.537 76.92 421.244 76.7467 421.937 76.4C422.657 76.0267 423.244 75.4667 423.697 74.72C424.15 73.9467 424.377 72.96 424.377 71.76C424.377 70.4 424.11 69.3333 423.577 68.56C423.07 67.76 422.444 67.2 421.697 66.88C420.95 66.5333 420.23 66.36 419.537 66.36C418.79 66.36 418.057 66.5467 417.337 66.92C416.644 67.2667 416.07 67.8267 415.617 68.6C415.164 69.3467 414.937 70.32 414.937 71.52C414.937 72.7733 415.177 73.8 415.657 74.6C416.164 75.4 416.79 75.9867 417.537 76.36C418.31 76.7333 419.07 76.92 419.817 76.92ZM439.057 91.48C437.777 91.48 436.604 91.2 435.537 90.64C434.47 90.0533 433.617 89.2 432.977 88.08C432.364 86.96 432.057 85.6133 432.057 84.04C432.057 82.84 432.23 81.7867 432.577 80.88C432.95 79.9467 433.457 79.1733 434.097 78.56C434.737 77.9467 435.47 77.48 436.297 77.16C437.15 76.84 438.044 76.68 438.977 76.68C440.257 76.68 441.417 76.9733 442.457 77.56C443.524 78.12 444.364 78.96 444.977 80.08C445.617 81.1733 445.937 82.5333 445.937 84.16C445.937 85.8133 445.604 87.1867 444.937 88.28C444.297 89.3467 443.457 90.1467 442.417 90.68C441.377 91.2133 440.257 91.48 439.057 91.48ZM439.137 89.36C439.884 89.36 440.604 89.1867 441.297 88.84C442.017 88.4667 442.604 87.9067 443.057 87.16C443.51 86.4133 443.737 85.4267 443.737 84.2C443.737 82.84 443.47 81.7733 442.937 81C442.43 80.2 441.804 79.64 441.057 79.32C440.31 78.9733 439.577 78.8 438.857 78.8C438.11 78.8 437.377 78.9867 436.657 79.36C435.964 79.7067 435.39 80.2667 434.937 81.04C434.484 81.7867 434.257 82.76 434.257 83.96C434.257 85.2133 434.51 86.24 435.017 87.04C435.524 87.84 436.15 88.4267 436.897 88.8C437.644 89.1733 438.39 89.36 439.137 89.36ZM419.617 91L435.937 64.6H438.417L422.057 91H419.617ZM448.352 78.28L456.032 64.76H458.992L466.672 78.28H464.112L457.752 66.84H457.232L450.832 78.28H448.352ZM490.264 91.48C488.931 91.48 487.651 91.1467 486.424 90.48C485.224 89.8133 484.091 88.92 483.024 87.8C481.984 86.6533 481.037 85.3733 480.184 83.96C479.357 82.52 478.637 81.0533 478.024 79.56C477.411 78.04 476.931 76.56 476.584 75.12C476.264 73.68 476.104 72.4 476.104 71.28C476.104 69.9733 476.331 68.7867 476.784 67.72C477.237 66.6267 477.917 65.7467 478.824 65.08C479.757 64.4133 480.944 64.08 482.384 64.08C483.637 64.08 484.717 64.3333 485.624 64.84C486.531 65.3467 487.224 66.04 487.704 66.92C488.184 67.7733 488.424 68.7467 488.424 69.84C488.424 70.7467 488.197 71.6533 487.744 72.56C487.317 73.4667 486.611 74.3067 485.624 75.08C484.637 75.8533 483.277 76.48 481.544 76.96L481.224 76.12C483.064 75.08 484.344 74.1067 485.064 73.2C485.811 72.2667 486.184 71.24 486.184 70.12C486.184 68.9467 485.837 68 485.144 67.28C484.451 66.56 483.517 66.2 482.344 66.2C481.384 66.2 480.611 66.4267 480.024 66.88C479.437 67.3067 479.011 67.9067 478.744 68.68C478.477 69.4533 478.344 70.32 478.344 71.28C478.344 72.32 478.491 73.4933 478.784 74.8C479.077 76.08 479.491 77.4 480.024 78.76C480.557 80.0933 481.184 81.4 481.904 82.68C482.624 83.96 483.424 85.1067 484.304 86.12C485.184 87.1067 486.117 87.8933 487.104 88.48C488.117 89.0667 489.144 89.36 490.184 89.36C491.197 89.36 491.984 89.0933 492.544 88.56C493.104 88 493.384 87.32 493.384 86.52C493.384 85.64 493.077 84.8133 492.464 84.04C491.851 83.24 490.971 82.5333 489.824 81.92C488.677 81.3067 487.277 80.8533 485.624 80.56V77.6H494.984V79.84L487.504 79V79.8C490.144 80.3333 492.144 81.2133 493.504 82.44C494.891 83.6667 495.584 85.08 495.584 86.68C495.584 87.4267 495.437 88.1067 495.144 88.72C494.877 89.3067 494.491 89.8133 493.984 90.24C493.504 90.64 492.944 90.9467 492.304 91.16C491.664 91.3733 490.984 91.48 490.264 91.48ZM476.464 91.44C475.051 91.44 473.837 91.1467 472.824 90.56C471.811 89.9733 471.024 89.2 470.464 88.24C469.931 87.2533 469.664 86.1733 469.664 85C469.664 84.0667 469.837 83.2 470.184 82.4C470.531 81.5733 471.051 80.84 471.744 80.2C472.437 79.5333 473.317 78.96 474.384 78.48C475.451 78 476.717 77.64 478.184 77.4L478.464 78.84C476.384 79.4267 474.771 80.24 473.624 81.28C472.477 82.32 471.904 83.5467 471.904 84.96C471.904 85.6267 472.051 86.2933 472.344 86.96C472.664 87.6267 473.157 88.1867 473.824 88.64C474.517 89.0667 475.451 89.28 476.624 89.28C477.851 89.28 478.904 89.0133 479.784 88.48C480.691 87.92 481.557 87.2133 482.384 86.36L483.784 87.72H482.664C482.264 88.44 481.771 89.08 481.184 89.64C480.624 90.2 479.957 90.64 479.184 90.96C478.411 91.28 477.504 91.44 476.464 91.44ZM502.057 74.48L499.977 73.04L503.617 69.56L503.577 69.36L498.617 68.2L499.377 65.84L503.977 68.28L504.097 68.16L503.457 63.36H505.857L505.217 68.16L505.377 68.28L509.937 65.8L510.697 68.2L505.737 69.36L505.697 69.52L509.577 72.96L507.577 74.44L504.817 70.2H504.617L502.057 74.48ZM520.626 64.04C519.826 65.4267 519.146 66.8267 518.586 68.24C518.053 69.6267 517.613 71 517.266 72.36C516.946 73.72 516.706 75.0667 516.546 76.4C516.386 77.7333 516.306 79.04 516.306 80.32C516.306 82.3467 516.48 84.2667 516.826 86.08C517.173 87.8933 517.666 89.6133 518.306 91.24C518.973 92.8933 519.76 94.48 520.666 96H517.986C516.973 94.2133 516.16 92.4533 515.546 90.72C514.96 88.96 514.533 87.2 514.266 85.44C514.026 83.6533 513.906 81.8667 513.906 80.08C513.906 78.2933 514.026 76.5067 514.266 74.72C514.533 72.9067 514.96 71.1067 515.546 69.32C516.133 67.5333 516.933 65.7733 517.946 64.04H520.626ZM524.741 64.04H527.421C528.434 65.7733 529.234 67.5333 529.821 69.32C530.408 71.1067 530.821 72.9067 531.061 74.72C531.328 76.5067 531.461 78.2933 531.461 80.08C531.461 81.8667 531.328 83.6533 531.061 85.44C530.821 87.2 530.394 88.96 529.781 90.72C529.194 92.4533 528.394 94.2133 527.381 96H524.701C525.634 94.48 526.421 92.8933 527.061 91.24C527.701 89.6133 528.194 87.8933 528.541 86.08C528.888 84.2667 529.061 82.3467 529.061 80.32C529.061 79.04 528.981 77.7333 528.821 76.4C528.661 75.0667 528.408 73.72 528.061 72.36C527.741 71 527.301 69.6267 526.741 68.24C526.208 66.8267 525.541 65.4267 524.741 64.04ZM534.5 94.12V92H559.02V94.12H534.5ZM567.911 86.76V71.76H570.111V86.76H567.911ZM561.551 80.32V78.24H576.431V80.32H561.551Z" fill="white"/>
</svg>
