<svg width="688" height="103" viewBox="0 0 688 103" fill="none" xmlns="http://www.w3.org/2000/svg">
<path d="M17.8319 37L26.6719 10.6H35.0719L43.8719 37H36.8719L30.9519 15.84H30.7119L24.7519 37H17.8319ZM22.8319 32.32V27.76H39.6719V32.32H22.8319ZM45.6391 37V10.6H56.2791C57.9057 10.6 59.3457 10.7467 60.5991 11.04C61.8791 11.3333 62.9591 11.7733 63.8391 12.36C64.7457 12.92 65.4257 13.6267 65.8791 14.48C66.3591 15.3333 66.5991 16.3333 66.5991 17.48C66.5991 18.5467 66.3724 19.5067 65.9191 20.36C65.4924 21.2133 64.7857 21.9067 63.7991 22.44C62.8391 22.9467 61.5724 23.2667 59.9991 23.4V23.76C62.6924 23.8933 64.6391 24.52 65.8391 25.64C67.0657 26.76 67.6791 28.24 67.6791 30.08C67.6791 31.6267 67.2791 32.9067 66.4791 33.92C65.6791 34.9333 64.5057 35.7067 62.9591 36.24C61.4391 36.7467 59.5457 37 57.2791 37H45.6391ZM52.1191 31.8H56.9991C58.3591 31.8 59.4124 31.56 60.1591 31.08C60.9057 30.5733 61.2791 29.8667 61.2791 28.96C61.2791 27.9467 60.8524 27.2 59.9991 26.72C59.1724 26.2133 57.9191 25.96 56.2391 25.96H52.1191V31.8ZM52.1191 21.56H55.5991C57.1191 21.56 58.2791 21.3067 59.0791 20.8C59.8791 20.2933 60.2791 19.5467 60.2791 18.56C60.2791 17.6267 59.9191 16.9333 59.1991 16.48C58.4791 16 57.3991 15.76 55.9591 15.76H52.1191V21.56ZM81.9369 37.56C79.6969 37.56 77.7769 37.2 76.1769 36.48C74.5769 35.76 73.2702 34.76 72.2569 33.48C71.2435 32.2 70.4969 30.7467 70.0169 29.12C69.5635 27.4667 69.3369 25.72 69.3369 23.88C69.3369 21.9867 69.5769 20.2 70.0569 18.52C70.5369 16.84 71.2702 15.3733 72.2569 14.12C73.2702 12.84 74.5635 11.84 76.1369 11.12C77.7102 10.4 79.6035 10.04 81.8169 10.04C83.7369 10.04 85.3902 10.32 86.7769 10.88C88.1635 11.4133 89.2702 12.16 90.0969 13.12C90.9502 14.0533 91.5369 15.1333 91.8569 16.36C92.1769 17.5867 92.2569 18.8667 92.0969 20.2L86.1369 20.92C86.1902 19.7733 86.0435 18.7867 85.6969 17.96C85.3769 17.1333 84.8702 16.4933 84.1769 16.04C83.5102 15.5867 82.6569 15.36 81.6169 15.36C80.7369 15.36 79.9502 15.5333 79.2569 15.88C78.5902 16.2267 78.0169 16.7467 77.5369 17.44C77.0835 18.1333 76.7369 19 76.4969 20.04C76.2569 21.0533 76.1369 22.24 76.1369 23.6C76.1369 25.36 76.3502 26.8933 76.7769 28.2C77.2035 29.48 77.8569 30.48 78.7369 31.2C79.6169 31.8933 80.7235 32.24 82.0569 32.24C83.2835 32.24 84.2435 31.96 84.9369 31.4C85.6569 30.84 86.1635 30.0667 86.4569 29.08C86.7502 28.0933 86.8435 26.9867 86.7369 25.76L92.8569 26.28C92.9902 27.7467 92.8835 29.16 92.5369 30.52C92.2169 31.8533 91.6169 33.0533 90.7369 34.12C89.8835 35.1867 88.7235 36.0267 87.2569 36.64C85.8169 37.2533 84.0435 37.56 81.9369 37.56ZM98.0913 37V31.6H104.931C105.945 31.6 106.878 31.3867 107.731 30.96C108.611 30.5333 109.318 29.7733 109.851 28.68C110.385 27.56 110.651 25.96 110.651 23.88C110.651 22.3867 110.505 21.1333 110.211 20.12C109.918 19.1067 109.491 18.3067 108.931 17.72C108.398 17.1067 107.731 16.6667 106.931 16.4C106.158 16.1333 105.265 16 104.251 16H98.0913V10.6H103.971C107.091 10.6 109.638 11.12 111.611 12.16C113.585 13.2 115.038 14.6933 115.971 16.64C116.905 18.56 117.371 20.8667 117.371 23.56C117.371 25.64 117.131 27.44 116.651 28.96C116.198 30.48 115.558 31.76 114.731 32.8C113.905 33.84 112.971 34.6667 111.931 35.28C110.891 35.8933 109.785 36.3333 108.611 36.6C107.438 36.8667 106.278 37 105.131 37H98.0913ZM95.1313 37V10.6H101.611V37H95.1313ZM119.975 37V10.6H126.455V37H119.975ZM124.815 37V31.6H138.855V37H124.815ZM124.815 26.12V21.28H137.015V26.12H124.815ZM124.815 16V10.6H138.855V16H124.815ZM141.577 37V10.6H148.057V37H141.577ZM144.817 27.6V22.32H158.257V27.6H144.817ZM144.817 16V10.6H159.617V16H144.817ZM171.548 37.56C169.254 37.56 167.281 36.9867 165.628 35.84C164.001 34.6933 162.748 33.1067 161.868 31.08C161.014 29.0267 160.588 26.6667 160.588 24C160.588 22.0267 160.828 20.2 161.308 18.52C161.814 16.8133 162.588 15.3333 163.628 14.08C164.668 12.8 165.988 11.8133 167.588 11.12C169.188 10.4 171.094 10.04 173.308 10.04C175.174 10.04 176.774 10.2933 178.108 10.8C179.468 11.3067 180.574 12.0133 181.428 12.92C182.281 13.8267 182.881 14.88 183.228 16.08C183.574 17.2533 183.681 18.52 183.548 19.88L177.508 20.6C177.561 19.4 177.414 18.4267 177.068 17.68C176.721 16.9067 176.201 16.3333 175.508 15.96C174.841 15.5867 174.028 15.4 173.068 15.4C171.921 15.4 170.921 15.7067 170.068 16.32C169.214 16.9333 168.548 17.8533 168.068 19.08C167.614 20.3067 167.388 21.84 167.388 23.68C167.388 25.04 167.521 26.2667 167.788 27.36C168.054 28.4267 168.454 29.3333 168.988 30.08C169.521 30.8 170.174 31.36 170.948 31.76C171.748 32.1333 172.654 32.32 173.668 32.32C174.681 32.32 175.548 32.1467 176.268 31.8C176.988 31.4267 177.534 30.9333 177.908 30.32C178.308 29.68 178.508 28.9467 178.508 28.12H174.348V23.56H184.268V28.52V37H179.828V29.88H179.468C179.334 31.5333 178.934 32.9333 178.268 34.08C177.628 35.2267 176.734 36.0933 175.588 36.68C174.468 37.2667 173.121 37.56 171.548 37.56ZM202.884 37V10.6H209.364V37H202.884ZM187.084 37V10.6H193.564V37H187.084ZM191.924 26.44V21H206.284V26.44H191.924ZM212.553 37V10.6H219.073V37H212.553ZM221.72 37.24L221 31.36C221.32 31.44 221.626 31.4933 221.92 31.52C222.24 31.5467 222.426 31.56 222.48 31.56C223.28 31.56 223.906 31.4133 224.36 31.12C224.84 30.8267 225.173 30.36 225.36 29.72C225.546 29.08 225.64 28.2533 225.64 27.24V10.6H232.12V27.28C232.12 29.52 231.8 31.3867 231.16 32.88C230.52 34.3733 229.56 35.4933 228.28 36.24C227 36.9867 225.4 37.36 223.48 37.36C223.08 37.36 222.76 37.3467 222.52 37.32C222.28 37.2933 222.013 37.2667 221.72 37.24ZM235.209 37V10.6H241.689V21.88C242.969 21.4533 244.089 20.8533 245.049 20.08C246.036 19.28 246.876 18.3733 247.569 17.36C248.263 16.3467 248.836 15.2667 249.289 14.12C249.743 12.9467 250.089 11.7733 250.329 10.6H257.609C257.289 12.12 256.823 13.56 256.209 14.92C255.623 16.2533 254.876 17.48 253.969 18.6C253.063 19.72 252.009 20.72 250.809 21.6C249.609 22.4533 248.249 23.16 246.729 23.72V24.04C248.356 23.9067 249.703 24.0133 250.769 24.36C251.836 24.68 252.703 25.16 253.369 25.8C254.036 26.44 254.556 27.1733 254.929 28C255.329 28.8 255.663 29.6133 255.929 30.44L258.049 37H250.849L249.329 31.12C249.089 30.16 248.743 29.3867 248.289 28.8C247.863 28.1867 247.303 27.7467 246.609 27.48C245.916 27.2133 245.036 27.08 243.969 27.08H241.689V37H235.209ZM260.131 37V10.6H266.611V37H260.131ZM261.251 37V31.48H276.651V37H261.251ZM278.53 37V10.6H288.25L293.65 29.36H293.73L299.01 10.6H308.21V37H302.21V17.12H302.13L296.17 37H290.49L284.61 17.12H284.53V37H278.53ZM311.42 37V10.6H320.1L329.5 28.48H329.58V10.6H335.98V37H327.82L317.9 18.52H317.82V37H311.42ZM350.714 37.56C348.847 37.56 347.167 37.2667 345.674 36.68C344.18 36.0933 342.914 35.2267 341.874 34.08C340.834 32.9333 340.034 31.5067 339.474 29.8C338.94 28.0933 338.674 26.1333 338.674 23.92C338.674 20.7733 339.18 18.1867 340.194 16.16C341.234 14.1067 342.674 12.5733 344.514 11.56C346.38 10.5467 348.527 10.04 350.954 10.04C352.82 10.04 354.487 10.3333 355.954 10.92C357.447 11.48 358.714 12.3333 359.754 13.48C360.794 14.6267 361.58 16.0667 362.114 17.8C362.674 19.5067 362.954 21.4933 362.954 23.76C362.954 26.0533 362.66 28.0667 362.074 29.8C361.514 31.5333 360.687 32.9733 359.594 34.12C358.527 35.2667 357.234 36.1333 355.714 36.72C354.22 37.28 352.554 37.56 350.714 37.56ZM350.954 32.24C352.154 32.24 353.14 31.9467 353.914 31.36C354.714 30.7467 355.3 29.84 355.674 28.64C356.074 27.4133 356.274 25.88 356.274 24.04C356.274 22.0933 356.06 20.48 355.634 19.2C355.234 17.92 354.62 16.96 353.794 16.32C352.994 15.6533 351.98 15.32 350.754 15.32C349.58 15.32 348.594 15.64 347.794 16.28C346.994 16.8933 346.394 17.8267 345.994 19.08C345.594 20.3333 345.394 21.8933 345.394 23.76C345.394 25.1733 345.5 26.4133 345.714 27.48C345.954 28.5467 346.3 29.44 346.754 30.16C347.234 30.8533 347.82 31.3733 348.514 31.72C349.207 32.0667 350.02 32.24 350.954 32.24ZM370.479 29.52V24.32H375.399C377.026 24.32 378.239 24 379.039 23.36C379.839 22.6933 380.239 21.6 380.239 20.08C380.239 18.64 379.866 17.5733 379.119 16.88C378.399 16.16 377.292 15.8 375.799 15.8H370.479V10.6H376.159C377.679 10.6 379.092 10.7867 380.399 11.16C381.706 11.5067 382.839 12.0667 383.799 12.84C384.786 13.6133 385.546 14.5867 386.079 15.76C386.639 16.9333 386.919 18.3467 386.919 20C386.919 22.1067 386.439 23.8667 385.479 25.28C384.546 26.6933 383.186 27.76 381.399 28.48C379.612 29.1733 377.426 29.52 374.839 29.52H370.479ZM365.639 37V10.6H372.119V37H365.639ZM412.595 43.28C410.781 43.68 409.235 43.92 407.955 44C406.675 44.1067 405.541 44.1067 404.555 44C403.568 43.8933 402.608 43.7333 401.675 43.52C400.741 43.3333 399.728 43.1333 398.635 42.92C397.541 42.7333 396.248 42.5867 394.755 42.48C393.261 42.3733 391.448 42.3867 389.315 42.52V37.2C390.061 37.2533 390.955 37.2667 391.995 37.24C393.035 37.24 394.141 37.1867 395.315 37.08C396.515 37 397.688 36.88 398.835 36.72C400.008 36.56 401.075 36.36 402.035 36.12C402.995 35.88 403.768 35.6 404.355 35.28V35.04C402.248 35.6267 400.355 35.8933 398.675 35.84C397.021 35.76 395.555 35.4133 394.275 34.8C393.021 34.1867 391.968 33.3467 391.115 32.28C390.288 31.1867 389.661 29.92 389.235 28.48C388.835 27.04 388.635 25.4533 388.635 23.72C388.635 21.6933 388.888 19.8533 389.395 18.2C389.928 16.52 390.701 15.08 391.715 13.88C392.728 12.6533 393.995 11.7067 395.515 11.04C397.061 10.3733 398.848 10.04 400.875 10.04C403.435 10.04 405.608 10.5733 407.395 11.64C409.181 12.7067 410.528 14.2667 411.435 16.32C412.368 18.3467 412.835 20.8 412.835 23.68C412.835 26.24 412.475 28.3733 411.755 30.08C411.035 31.7867 410.048 33.1733 408.795 34.24C407.541 35.3067 406.088 36.12 404.435 36.68C402.808 37.2133 401.061 37.6 399.195 37.84L399.235 38.12C400.808 38.36 402.195 38.5467 403.395 38.68C404.621 38.84 405.741 38.92 406.755 38.92C407.768 38.92 408.741 38.84 409.675 38.68C410.635 38.52 411.608 38.24 412.595 37.84V43.28ZM400.835 32.64C401.768 32.64 402.621 32.4 403.395 31.92C404.195 31.4133 404.835 30.5467 405.315 29.32C405.821 28.0667 406.075 26.3467 406.075 24.16C406.075 22.08 405.861 20.4 405.435 19.12C405.035 17.8133 404.435 16.8533 403.635 16.24C402.835 15.6267 401.848 15.32 400.675 15.32C399.795 15.32 398.955 15.5733 398.155 16.08C397.355 16.5867 396.701 17.4667 396.195 18.72C395.688 19.9467 395.435 21.6667 395.435 23.88C395.435 26.12 395.675 27.88 396.155 29.16C396.635 30.44 397.288 31.3467 398.115 31.88C398.941 32.3867 399.848 32.64 400.835 32.64ZM415.522 37V10.6H426.482C427.655 10.6 428.762 10.7067 429.802 10.92C430.869 11.1067 431.829 11.4 432.682 11.8C433.562 12.2 434.322 12.7067 434.962 13.32C435.602 13.9333 436.095 14.6667 436.442 15.52C436.789 16.3467 436.962 17.2933 436.962 18.36C436.962 19.1867 436.815 19.9733 436.522 20.72C436.255 21.44 435.815 22.0933 435.202 22.68C434.615 23.2667 433.842 23.76 432.882 24.16C431.949 24.5333 430.829 24.8 429.522 24.96V25.28C431.229 25.36 432.549 25.6933 433.482 26.28C434.415 26.8667 435.109 27.6133 435.562 28.52C436.042 29.4 436.402 30.36 436.642 31.4L438.042 37H430.882L429.882 31.76C429.722 30.8533 429.469 30.12 429.122 29.56C428.802 29 428.335 28.5867 427.722 28.32C427.109 28.0533 426.295 27.92 425.282 27.92H422.002V37H415.522ZM422.002 22.92H425.762C427.229 22.92 428.349 22.64 429.122 22.08C429.895 21.52 430.282 20.6667 430.282 19.52C430.282 18.2667 429.922 17.3333 429.202 16.72C428.482 16.1067 427.389 15.8 425.922 15.8H422.002V22.92ZM450.374 37.56C448.507 37.56 446.867 37.3467 445.454 36.92C444.067 36.4933 442.907 35.88 441.974 35.08C441.041 34.28 440.347 33.32 439.894 32.2C439.467 31.0533 439.281 29.7867 439.334 28.4L445.334 27.08C445.387 28.3067 445.641 29.3067 446.094 30.08C446.574 30.8267 447.214 31.3867 448.014 31.76C448.814 32.1067 449.707 32.28 450.694 32.28C451.494 32.28 452.201 32.1867 452.814 32C453.427 31.7867 453.907 31.5067 454.254 31.16C454.627 30.7867 454.814 30.36 454.814 29.88C454.814 29.24 454.574 28.72 454.094 28.32C453.614 27.8933 452.947 27.5333 452.094 27.24C451.267 26.9467 450.321 26.6533 449.254 26.36C448.107 26.04 446.961 25.6933 445.814 25.32C444.694 24.92 443.667 24.4267 442.734 23.84C441.801 23.2533 441.041 22.4933 440.454 21.56C439.894 20.6267 439.614 19.4667 439.614 18.08C439.614 16.3733 440.041 14.92 440.894 13.72C441.774 12.52 442.974 11.6133 444.494 11C446.041 10.36 447.801 10.04 449.774 10.04C451.854 10.04 453.707 10.4 455.334 11.12C456.961 11.8133 458.214 12.84 459.094 14.2C459.974 15.56 460.321 17.2267 460.134 19.2L454.214 20.16C454.241 19.36 454.161 18.6533 453.974 18.04C453.787 17.4267 453.494 16.9067 453.094 16.48C452.721 16.0533 452.241 15.7333 451.654 15.52C451.067 15.28 450.374 15.16 449.574 15.16C448.747 15.16 448.054 15.2667 447.494 15.48C446.961 15.6933 446.547 15.9867 446.254 16.36C445.987 16.7333 445.854 17.16 445.854 17.64C445.854 18.2 446.067 18.6667 446.494 19.04C446.921 19.4133 447.534 19.7467 448.334 20.04C449.134 20.3067 450.081 20.5867 451.174 20.88C452.321 21.2 453.467 21.56 454.614 21.96C455.787 22.3333 456.867 22.84 457.854 23.48C458.841 24.0933 459.627 24.8933 460.214 25.88C460.827 26.8667 461.134 28.12 461.134 29.64C461.134 31.4 460.667 32.8667 459.734 34.04C458.827 35.2133 457.561 36.0933 455.934 36.68C454.334 37.2667 452.481 37.56 450.374 37.56ZM468.346 37V10.6H474.826V37H468.346ZM461.826 16.12V10.6H481.346V16.12H461.826ZM494.411 37.56C492.891 37.56 491.531 37.3867 490.331 37.04C489.131 36.6933 488.091 36.2 487.211 35.56C486.357 34.92 485.637 34.16 485.051 33.28C484.491 32.3733 484.064 31.36 483.771 30.24C483.504 29.12 483.371 27.9067 483.371 26.6V10.6H489.851V26.28C489.851 27.64 490.051 28.7333 490.451 29.56C490.851 30.36 491.384 30.9333 492.051 31.28C492.744 31.6267 493.531 31.8 494.411 31.8C495.317 31.8 496.104 31.6267 496.771 31.28C497.464 30.9333 498.011 30.36 498.411 29.56C498.811 28.76 499.011 27.6667 499.011 26.28V10.6H505.491V26.6C505.491 30.0667 504.557 32.76 502.691 34.68C500.824 36.6 498.064 37.56 494.411 37.56ZM515.566 37L507.246 10.6H514.286L519.726 31.64H519.846L525.166 10.6H532.206L523.886 37H515.566ZM538.863 37L533.503 10.6H540.503L543.743 30.84H543.863L547.663 10.6H555.303L559.223 30.84H559.343L562.503 10.6H569.143L563.783 37H554.743L551.383 17.16H551.263L547.823 37H538.863ZM570.065 37L577.785 23.92L570.065 10.6H577.745L581.985 20.48H582.065L586.185 10.6H594.065L586.385 23.84L594.105 37H586.185L582.105 26.88H582.025L577.745 37H570.065ZM603.227 37V28.2L594.627 10.6H602.307L606.467 22.36H606.547L610.667 10.6H618.267L609.707 28.2V37H603.227ZM619.256 37V31.48L631.736 16.24V16.12H619.256V10.6H639.216V16.16L626.776 31.36V31.48H639.416V37H619.256Z" fill="white"/>
<path d="M37.0425 92L46.4825 65.6H49.8025L59.2425 92H56.8425L48.3625 67.68H47.9625L39.4825 92H37.0425ZM41.0025 85.6V83.56H55.5225V85.6H41.0025ZM64.5178 92V65.6H73.3578C74.7445 65.6 76.0111 65.7333 77.1578 66C78.3045 66.24 79.2911 66.64 80.1178 67.2C80.9445 67.7333 81.5845 68.44 82.0378 69.32C82.4911 70.1733 82.7178 71.2133 82.7178 72.44C82.7178 73.4533 82.5178 74.3467 82.1178 75.12C81.7445 75.8667 81.1445 76.4933 80.3178 77C79.4911 77.48 78.4111 77.8667 77.0778 78.16V78.52C79.4511 78.76 81.1578 79.4533 82.1978 80.6C83.2378 81.72 83.7578 83.1867 83.7578 85C83.7578 86.4667 83.4378 87.72 82.7978 88.76C82.1578 89.8 81.1445 90.6 79.7578 91.16C78.3711 91.72 76.5445 92 74.2778 92H64.5178ZM66.7578 89.88H74.9578C77.1445 89.88 78.7711 89.4933 79.8378 88.72C80.9311 87.92 81.4778 86.72 81.4778 85.12C81.4778 83.2267 80.6911 81.8133 79.1178 80.88C77.5711 79.92 75.2378 79.44 72.1178 79.44H66.7578V89.88ZM66.7578 77.36H71.4378C74.4511 77.36 76.6911 76.96 78.1578 76.16C79.6511 75.36 80.3978 74.1467 80.3978 72.52C80.3978 70.92 79.7711 69.72 78.5178 68.92C77.2645 68.12 75.3711 67.72 72.8378 67.72H66.7578V77.36ZM100.703 92.48C98.8895 92.48 97.2628 92.1867 95.8228 91.6C94.4095 90.9867 93.2095 90.1067 92.2228 88.96C91.2361 87.8133 90.4895 86.4133 89.9828 84.76C89.4761 83.1067 89.2228 81.24 89.2228 79.16C89.2228 77.0533 89.4761 75.1467 89.9828 73.44C90.5161 71.7067 91.2761 70.2267 92.2628 69C93.2495 67.7467 94.4361 66.7867 95.8228 66.12C97.2361 65.4533 98.8228 65.12 100.583 65.12C101.916 65.12 103.143 65.32 104.263 65.72C105.409 66.0933 106.396 66.6533 107.223 67.4C108.049 68.12 108.689 69 109.143 70.04C109.623 71.08 109.863 72.24 109.863 73.52L107.663 74.04C107.689 72.52 107.383 71.2667 106.743 70.28C106.103 69.2933 105.236 68.56 104.143 68.08C103.049 67.5733 101.863 67.32 100.583 67.32C99.3561 67.32 98.1828 67.56 97.0628 68.04C95.9695 68.52 95.0095 69.24 94.1828 70.2C93.3561 71.16 92.7028 72.3867 92.2228 73.88C91.7428 75.3733 91.5028 77.1467 91.5028 79.2C91.5028 81.7867 91.8761 83.8933 92.6228 85.52C93.3961 87.12 94.4761 88.2933 95.8628 89.04C97.2761 89.7867 98.9295 90.16 100.823 90.16C102.583 90.16 104.009 89.8667 105.103 89.28C106.223 88.6667 107.063 87.7867 107.623 86.64C108.209 85.4667 108.529 84.04 108.583 82.36L110.743 82.8C110.716 84.1067 110.503 85.3467 110.103 86.52C109.703 87.6933 109.089 88.7333 108.263 89.64C107.463 90.52 106.436 91.2133 105.183 91.72C103.929 92.2267 102.436 92.48 100.703 92.48ZM117.833 92V89.88H125.753C127.753 89.88 129.393 89.4 130.673 88.44C131.979 87.4533 132.939 86.1333 133.553 84.48C134.193 82.8267 134.513 80.96 134.513 78.88C134.513 76.96 134.313 75.3067 133.913 73.92C133.513 72.5333 132.899 71.3867 132.073 70.48C131.246 69.5467 130.206 68.8533 128.953 68.4C127.699 67.9467 126.219 67.72 124.513 67.72H117.833V65.6H124.513C127.339 65.6 129.659 66.12 131.473 67.16C133.286 68.2 134.633 69.6933 135.513 71.64C136.393 73.5867 136.833 75.92 136.833 78.64C136.833 80.2667 136.659 81.7867 136.313 83.2C135.993 84.5867 135.513 85.8267 134.873 86.92C134.259 87.9867 133.499 88.9067 132.593 89.68C131.686 90.4267 130.659 91 129.513 91.4C128.393 91.8 127.153 92 125.793 92H117.833ZM116.393 92V65.6H118.673V92H116.393ZM143.424 92V65.6H145.704V92H143.424ZM143.904 92V89.88H160.744V92H143.904ZM143.904 79.48V77.36H158.904V79.48H143.904ZM143.904 67.72V65.6H160.744V67.72H143.904ZM166.08 92V65.6H168.36V92H166.08ZM166.68 79.72V77.6H181.68V79.72H166.68ZM166.68 67.72V65.6H183.56V67.72H166.68ZM197.88 92.48C195.72 92.48 193.8 91.9867 192.12 91C190.467 89.9867 189.173 88.48 188.24 86.48C187.307 84.4533 186.84 81.9067 186.84 78.84C186.84 76.7067 187.08 74.8 187.56 73.12C188.067 71.44 188.8 70 189.76 68.8C190.747 67.6 191.947 66.6933 193.36 66.08C194.773 65.44 196.413 65.12 198.28 65.12C199.64 65.12 200.867 65.3067 201.96 65.68C203.08 66.0267 204.053 66.56 204.88 67.28C205.733 67.9733 206.427 68.84 206.96 69.88C207.493 70.8933 207.853 72.0667 208.04 73.4L205.8 73.96C205.667 72.28 205.213 70.96 204.44 70C203.693 69.0133 202.773 68.32 201.68 67.92C200.613 67.52 199.48 67.32 198.28 67.32C196.547 67.32 194.987 67.7067 193.6 68.48C192.24 69.2267 191.16 70.4533 190.36 72.16C189.587 73.84 189.2 76.0667 189.2 78.84C189.2 81.0267 189.44 82.8533 189.92 84.32C190.427 85.7867 191.08 86.9467 191.88 87.8C192.707 88.6533 193.64 89.2667 194.68 89.64C195.747 89.9867 196.813 90.16 197.88 90.16C199.427 90.16 200.76 89.8533 201.88 89.24C203 88.6267 203.907 87.6933 204.6 86.44C205.32 85.16 205.787 83.56 206 81.64H199.28V79.52H208.28V82.92V92H205.96L207.12 84.52H206.64C206.32 86.3333 205.787 87.8267 205.04 89C204.32 90.1733 203.36 91.0533 202.16 91.64C200.987 92.2 199.56 92.48 197.88 92.48ZM232.706 92V65.6H234.986V92H232.706ZM215.026 92V65.6H217.306V92H215.026ZM215.826 79.48V77.36H233.626V79.48H215.826ZM242.487 92V65.6H244.807V92H242.487ZM249.53 92.4L248.81 90.16C249.104 90.1867 249.357 90.2 249.57 90.2C249.784 90.2 249.984 90.2 250.17 90.2C251.824 90.2 253.064 89.9333 253.89 89.4C254.717 88.84 255.264 88.0267 255.53 86.96C255.824 85.8933 255.97 84.6 255.97 83.08V65.6H258.21V83.08C258.21 84.84 258.01 86.4267 257.61 87.84C257.21 89.2533 256.437 90.3733 255.29 91.2C254.17 92 252.517 92.4 250.33 92.4C250.224 92.4 250.104 92.4 249.97 92.4C249.837 92.4 249.69 92.4 249.53 92.4ZM265.651 92V65.6H267.931V78.76C269.531 78.2533 271.091 77.5733 272.611 76.72C274.131 75.8667 275.557 74.8667 276.891 73.72C278.251 72.5733 279.437 71.32 280.451 69.96C281.464 68.5733 282.251 67.12 282.811 65.6H285.211C284.571 67.3067 283.784 68.8667 282.851 70.28C281.917 71.6667 280.877 72.9067 279.731 74C278.584 75.0933 277.397 76.04 276.171 76.84C274.971 77.64 273.784 78.28 272.611 78.76V79.24C273.971 79.2667 275.211 79.4667 276.331 79.84C277.451 80.2133 278.464 80.7733 279.371 81.52C280.277 82.24 281.104 83.16 281.851 84.28C282.624 85.4 283.331 86.7333 283.971 88.28L285.371 92H282.811L281.931 89.36C281.184 87.44 280.331 85.84 279.371 84.56C278.437 83.2533 277.251 82.2667 275.811 81.6C274.397 80.9333 272.571 80.6 270.331 80.6H267.931V92H265.651ZM291.041 92V65.6H293.321V92H291.041ZM292.241 92V89.88H306.481V92H292.241ZM311.276 92V65.6H314.996L324.716 89.92H324.916L334.636 65.6H338.236V92H336.036L336.236 67.88H335.996L326.196 92H323.396L313.636 67.84H313.396L313.556 92H311.276ZM345.768 92V65.6H348.928L364.128 89.04H364.368L364.168 65.6H366.368V92H363.488L348.088 68.28H347.808L348.008 92H345.768ZM384.293 92.48C382.373 92.48 380.706 92.1467 379.293 91.48C377.879 90.8133 376.693 89.88 375.733 88.68C374.799 87.4533 374.106 86.0133 373.653 84.36C373.199 82.7067 372.973 80.88 372.973 78.88C372.973 75.8667 373.453 73.3467 374.413 71.32C375.373 69.2667 376.693 67.72 378.373 66.68C380.079 65.64 382.026 65.12 384.213 65.12C385.946 65.12 387.506 65.44 388.893 66.08C390.279 66.6933 391.466 67.6133 392.453 68.84C393.439 70.04 394.199 71.5067 394.733 73.24C395.266 74.9467 395.533 76.88 395.533 79.04C395.533 80.9867 395.306 82.7867 394.853 84.44C394.399 86.0667 393.706 87.48 392.773 88.68C391.839 89.88 390.666 90.8133 389.253 91.48C387.866 92.1467 386.213 92.48 384.293 92.48ZM384.213 90.28C386.133 90.28 387.759 89.84 389.093 88.96C390.453 88.0533 391.479 86.76 392.173 85.08C392.866 83.4 393.213 81.36 393.213 78.96C393.213 76.5333 392.853 74.4533 392.133 72.72C391.413 70.9867 390.373 69.6533 389.013 68.72C387.679 67.7867 386.079 67.32 384.213 67.32C382.399 67.32 380.813 67.7733 379.453 68.68C378.119 69.5867 377.093 70.9067 376.373 72.64C375.653 74.3733 375.293 76.4933 375.293 79C375.293 80.8133 375.493 82.4267 375.893 83.84C376.293 85.2267 376.866 86.4 377.613 87.36C378.386 88.32 379.319 89.0533 380.413 89.56C381.533 90.04 382.799 90.28 384.213 90.28ZM402.734 83.52V81.32H409.574C412.507 81.32 414.707 80.7733 416.174 79.68C417.667 78.5867 418.414 76.8267 418.414 74.4C418.414 72.16 417.721 70.4933 416.334 69.4C414.947 68.28 412.854 67.72 410.054 67.72H402.734V65.6H410.094C411.801 65.6 413.321 65.8 414.654 66.2C416.014 66.6 417.147 67.1867 418.054 67.96C418.961 68.7067 419.641 69.64 420.094 70.76C420.574 71.8533 420.814 73.1067 420.814 74.52C420.814 76.4667 420.374 78.1067 419.494 79.44C418.614 80.7733 417.321 81.7867 415.614 82.48C413.907 83.1733 411.827 83.52 409.374 83.52H402.734ZM402.174 92V65.6H404.454V92H402.174ZM448.183 97.08C446.663 97.32 445.343 97.4667 444.223 97.52C443.103 97.5733 442.076 97.5733 441.143 97.52C440.236 97.4667 439.316 97.3733 438.383 97.24C437.476 97.1333 436.476 97.0133 435.383 96.88C434.289 96.7467 433.009 96.64 431.543 96.56C430.076 96.48 428.316 96.4533 426.263 96.48V94.24C427.329 94.24 428.316 94.2267 429.223 94.2C430.129 94.1733 430.983 94.12 431.783 94.04C432.583 93.96 433.369 93.8267 434.143 93.64C434.916 93.4533 435.703 93.2 436.503 92.88C437.303 92.5867 438.156 92.2 439.063 91.72V91.16C437.543 91.64 436.103 91.8133 434.743 91.68C433.409 91.52 432.196 91.1067 431.103 90.44C430.036 89.7733 429.116 88.88 428.342 87.76C427.569 86.6133 426.969 85.28 426.543 83.76C426.116 82.2133 425.903 80.52 425.903 78.68C425.903 76.68 426.156 74.8533 426.663 73.2C427.169 71.5467 427.903 70.12 428.863 68.92C429.849 67.6933 431.036 66.76 432.423 66.12C433.836 65.4533 435.436 65.12 437.223 65.12C439.489 65.12 441.476 65.6667 443.183 66.76C444.916 67.8267 446.263 69.3867 447.223 71.44C448.183 73.4933 448.663 76 448.663 78.96C448.663 80.96 448.409 82.76 447.903 84.36C447.423 85.9333 446.649 87.3467 445.583 88.6C444.516 89.8267 443.116 90.92 441.383 91.88C439.649 92.84 437.543 93.7067 435.063 94.48V94.88C436.236 94.9867 437.316 95.08 438.303 95.16C439.289 95.2667 440.263 95.3333 441.223 95.36C442.183 95.3867 443.209 95.3467 444.303 95.24C445.423 95.16 446.716 95 448.183 94.76V97.08ZM437.303 90.16C439.276 90.16 440.929 89.7067 442.263 88.8C443.596 87.8933 444.596 86.6 445.263 84.92C445.956 83.2133 446.303 81.1867 446.303 78.84C446.303 76.36 445.929 74.28 445.183 72.6C444.463 70.8933 443.423 69.6 442.063 68.72C440.729 67.84 439.116 67.4 437.223 67.4C435.303 67.4 433.676 67.8533 432.343 68.76C431.009 69.6667 429.996 70.9733 429.303 72.68C428.609 74.3867 428.263 76.44 428.263 78.84C428.263 81.32 428.623 83.4 429.343 85.08C430.089 86.76 431.129 88.0267 432.463 88.88C433.823 89.7333 435.436 90.16 437.303 90.16ZM455.299 92V65.6H463.459C464.739 65.6 465.912 65.7067 466.979 65.92C468.046 66.1333 468.992 66.4533 469.819 66.88C470.672 67.28 471.379 67.7867 471.939 68.4C472.526 69.0133 472.966 69.7333 473.259 70.56C473.579 71.36 473.739 72.2533 473.739 73.24C473.739 74.1733 473.592 75.04 473.299 75.84C473.032 76.6133 472.632 77.2933 472.099 77.88C471.566 78.4667 470.899 78.9467 470.099 79.32C469.326 79.6933 468.419 79.9467 467.379 80.08V80.52C468.072 80.6267 468.739 80.84 469.379 81.16C470.019 81.48 470.606 82 471.139 82.72C471.699 83.44 472.166 84.4533 472.539 85.76L474.339 92H471.979L470.499 86.32C470.232 85.2267 469.779 84.3333 469.139 83.64C468.499 82.92 467.699 82.3733 466.739 82C465.779 81.6267 464.672 81.44 463.419 81.44H457.579V92H455.299ZM457.579 79.32H463.259C466.006 79.32 468.059 78.84 469.419 77.88C470.779 76.92 471.459 75.4667 471.459 73.52C471.459 71.5467 470.792 70.0933 469.459 69.16C468.126 68.2 466.059 67.72 463.259 67.72H457.579V79.32ZM489.251 92.48C487.517 92.48 485.997 92.2933 484.691 91.92C483.384 91.52 482.317 90.9333 481.491 90.16C480.664 89.3867 480.064 88.4533 479.691 87.36C479.344 86.24 479.251 84.96 479.411 83.52L481.531 83.36C481.344 84.9067 481.531 86.2 482.091 87.24C482.677 88.2533 483.584 89.0133 484.811 89.52C486.064 90.0267 487.557 90.28 489.291 90.28C490.971 90.28 492.397 90.08 493.571 89.68C494.744 89.2533 495.624 88.6533 496.211 87.88C496.824 87.1067 497.131 86.2 497.131 85.16C497.131 84.0133 496.784 83.12 496.091 82.48C495.424 81.84 494.544 81.36 493.451 81.04C492.357 80.6933 491.171 80.3867 489.891 80.12C488.691 79.88 487.491 79.6 486.291 79.28C485.117 78.96 484.051 78.5333 483.091 78C482.131 77.4667 481.357 76.7733 480.771 75.92C480.184 75.04 479.891 73.92 479.891 72.56C479.891 71.0133 480.277 69.6933 481.051 68.6C481.824 67.48 482.877 66.6267 484.211 66.04C485.571 65.4267 487.117 65.12 488.851 65.12C490.584 65.12 492.171 65.4133 493.611 66C495.051 66.56 496.211 67.44 497.091 68.64C497.997 69.8133 498.464 71.32 498.491 73.16L496.211 73.56C496.211 72.52 496.024 71.6 495.651 70.8C495.304 70 494.797 69.3467 494.131 68.84C493.464 68.3067 492.677 67.9067 491.771 67.64C490.891 67.3733 489.904 67.24 488.811 67.24C487.531 67.24 486.384 67.4533 485.371 67.88C484.384 68.3067 483.597 68.9067 483.011 69.68C482.424 70.4533 482.131 71.3733 482.131 72.44C482.131 73.6933 482.531 74.6667 483.331 75.36C484.157 76.0533 485.211 76.5867 486.491 76.96C487.797 77.3333 489.171 77.68 490.611 78C491.757 78.24 492.851 78.52 493.891 78.84C494.931 79.16 495.864 79.5867 496.691 80.12C497.517 80.6267 498.171 81.2933 498.651 82.12C499.131 82.9467 499.371 84 499.371 85.28C499.371 86.72 498.997 87.9867 498.251 89.08C497.504 90.1467 496.384 90.9867 494.891 91.6C493.397 92.1867 491.517 92.48 489.251 92.48ZM510.47 92V65.6H512.75V92H510.47ZM502.27 67.72V65.6H520.95V67.72H502.27ZM536.283 92.48C534.95 92.48 533.723 92.3333 532.603 92.04C531.51 91.7467 530.536 91.32 529.683 90.76C528.83 90.1733 528.11 89.4667 527.523 88.64C526.963 87.8133 526.523 86.8667 526.203 85.8C525.91 84.7067 525.763 83.5067 525.763 82.2V65.6H528.043V82.08C528.043 83.8667 528.363 85.3733 529.003 86.6C529.643 87.8 530.576 88.72 531.803 89.36C533.03 89.9733 534.523 90.28 536.283 90.28C538.096 90.28 539.603 89.9733 540.803 89.36C542.03 88.7467 542.95 87.8267 543.563 86.6C544.203 85.3733 544.523 83.8667 544.523 82.08V65.6H546.803V82.2C546.803 85.48 545.883 88.0133 544.043 89.8C542.23 91.5867 539.643 92.48 536.283 92.48ZM561.483 92L552.043 65.6H554.523L563.003 89.8H563.323L571.883 65.6H574.323L564.803 92H561.483ZM585.453 92L578.413 65.6H580.813L587.013 89.72H587.333L593.333 65.6H596.693L602.533 89.72H602.853L609.213 65.6H611.653L604.413 92H600.973L595.173 67.88H594.893L588.893 92H585.453ZM615.605 92L624.125 78.84L615.365 65.6H618.085L625.325 77.16H625.525L632.765 65.6H635.485L626.805 78.84L635.645 92H632.925L625.485 80.44H625.325L618.285 92H615.605ZM647.703 92V83.28L638.783 65.6H641.303L648.783 80.8H648.943L656.343 65.6H658.903L649.983 83.28V92H647.703ZM662.159 92V89.68L677.839 68.24V67.72H662.799V65.6H680.639V68L664.919 89.4V89.88H681.039V92H662.159Z" fill="white"/>
</svg>
